<svg id="Capa_1" data-name="Capa 1" xmlns="http://www.w3.org/2000/svg" xmlns:xlink="http://www.w3.org/1999/xlink" viewBox="0 0 800 575"><defs><style>.cls-1,.cls-25,.cls-26{fill:#fff;}.cls-10,.cls-11,.cls-16,.cls-2,.cls-20,.cls-24,.cls-27,.cls-4,.cls-5,.cls-6,.cls-7,.cls-9{fill:none;}.cls-2,.cls-4,.cls-5,.cls-6,.cls-7{stroke:#33006a;}.cls-16,.cls-2,.cls-26,.cls-4,.cls-5,.cls-6,.cls-7,.cls-9{stroke-linecap:square;}.cls-2,.cls-26,.cls-4,.cls-5,.cls-6,.cls-7{stroke-width:2.5px;}.cls-3,.cls-9{opacity:0.66;isolation:isolate;}.cls-4{stroke-dasharray:2.24 10.08;}.cls-5{stroke-dasharray:4.48 2.24 2.24 10.08;}.cls-6{stroke-dasharray:2.32 10.43;}.cls-7{stroke-dasharray:4.64 2.32 2.32 10.43;}.cls-8{fill:#182945;}.cls-10,.cls-11,.cls-24,.cls-25,.cls-9{stroke:#b7c7cf;}.cls-9{stroke-width:2px;stroke-dasharray:4 2 2 9;}.cls-10{stroke-width:1.42px;}.cls-11{stroke-width:1.26px;}.cls-12{fill:#b7c7cf;}.cls-13,.cls-14,.cls-15{fill:#9dafc6;}.cls-14,.cls-15,.cls-27{stroke:#9dafc6;}.cls-14{stroke-width:0.2px;}.cls-15{stroke-width:0.6px;}.cls-16{stroke-width:2.04px;stroke:url(#Degradado_sin_nombre_2);}.cls-17{fill:#2d425b;}.cls-18{fill:#2bcd70;fill-opacity:0.8;}.cls-19{mask:url(#mask);}.cls-20{stroke:#fff;stroke-width:1.81px;}.cls-21{fill:#2fd475;fill-opacity:0.7;}.cls-22{fill:#062381;fill-opacity:0.9;}.cls-23{mask:url(#mask-2-2);}.cls-24{stroke-width:1.78px;}.cls-25{stroke-width:2.13px;}.cls-26{stroke:url(#Degradado_sin_nombre_2-2);}.cls-27{stroke-miterlimit:10;stroke-width:1.49px;}</style><linearGradient id="Degradado_sin_nombre_2" x1="816.33" y1="573.8" x2="815.51" y2="573.8" gradientTransform="matrix(126, 0, 0, -109.59, -102258, 63348.46)" gradientUnits="userSpaceOnUse"><stop offset="0" stop-color="#225380"/><stop offset="1" stop-color="#1d6986"/></linearGradient><mask id="mask" x="206.04" y="260.57" width="65.96" height="59.38" maskUnits="userSpaceOnUse"><g id="mask-2"><polyline id="path-1" class="cls-1" points="206.04 289.3 222.53 260.57 255.51 260.57 272 289.3 255.51 318.02 222.53 318.02 206.04 289.3"/></g></mask><mask id="mask-2-2" x="723.99" y="99.03" width="96.03" height="64.61" maskUnits="userSpaceOnUse"><g id="mask-2-3" data-name="mask-2"><polyline id="path-1-2" data-name="path-1" class="cls-1" points="723.99 128.01 740.64 99.03 773.92 99.05 790.54 128.04 773.89 157.01 740.62 157 723.99 128.01"/></g></mask><linearGradient id="Degradado_sin_nombre_2-2" x1="816.48" y1="576.89" x2="815.56" y2="576.89" xlink:href="#Degradado_sin_nombre_2"/></defs><title>mapas-TRAZADO</title><path id="line5" class="cls-2" d="M604.5,129.5h23v-1.9l3.5,1.9-3.5,1.9v-1.9h-23"/><g id="line5-2" data-name="line5" class="cls-3"><line class="cls-2" x1="368" y1="230.14" x2="366" y2="230.14"/><line class="cls-4" x1="363.76" y1="230.14" x2="356.48" y2="230.14"/><line class="cls-5" x1="351.45" y1="230.14" x2="318.42" y2="230.14"/><polyline class="cls-2" points="313.38 230.14 311.38 230.14 311.35 232.14"/><line class="cls-6" x1="311.32" y1="234.45" x2="311.21" y2="241.99"/><line class="cls-7" x1="311.13" y1="247.21" x2="310.61" y2="281.41"/><line class="cls-2" x1="310.53" y1="286.62" x2="310.5" y2="288.62"/></g><path class="cls-8" d="M410.64,56.42h-4v11h-2.19v-11h-3.94V54.63h10.11Z"/><path class="cls-8" d="M416.5,59.85a4.94,4.94,0,0,0-.87-.07,2,2,0,0,0-2,1.12v6.48h-2.13V57.9h2l.05,1.06a2.39,2.39,0,0,1,2.13-1.23,2.05,2.05,0,0,1,.76.12Z"/><path class="cls-8" d="M423.24,67.38a3.5,3.5,0,0,1-.24-.88,3.6,3.6,0,0,1-4.82.24,2.6,2.6,0,0,1-.9-2,2.7,2.7,0,0,1,1.12-2.33,5.47,5.47,0,0,1,3.22-.81h1.31V61a1.65,1.65,0,0,0-.42-1.18,1.64,1.64,0,0,0-1.25-.44,1.89,1.89,0,0,0-1.19.36,1.13,1.13,0,0,0-.46.93h-2.13a2.33,2.33,0,0,1,.52-1.46,3.47,3.47,0,0,1,1.4-1.07,5.06,5.06,0,0,1,2-.38,4,4,0,0,1,2.66.84,2.94,2.94,0,0,1,1,2.35v4.27a4.84,4.84,0,0,0,.36,2v.15Zm-2.34-1.53a2.48,2.48,0,0,0,1.19-.31,2.07,2.07,0,0,0,.84-.82V62.93h-1.15a3.19,3.19,0,0,0-1.78.41,1.33,1.33,0,0,0-.59,1.17,1.22,1.22,0,0,0,.4,1A1.55,1.55,0,0,0,420.9,65.85Z"/><path class="cls-8" d="M430.49,64.68l2-6.78h2.2l-3.29,9.48h-1.85l-3.31-9.48h2.21Z"/><path class="cls-8" d="M440.08,67.55a4.4,4.4,0,0,1-3.28-1.27,4.61,4.61,0,0,1-1.26-3.39v-.27a5.73,5.73,0,0,1,.55-2.53,4.21,4.21,0,0,1,1.54-1.74,4.09,4.09,0,0,1,2.21-.62,3.73,3.73,0,0,1,3,1.23,5.26,5.26,0,0,1,1.05,3.5v.86h-6.19a2.84,2.84,0,0,0,.78,1.85,2.35,2.35,0,0,0,1.73.69,2.9,2.9,0,0,0,2.39-1.19l1.14,1.1a3.91,3.91,0,0,1-1.52,1.32A4.76,4.76,0,0,1,440.08,67.55Zm-.25-8.11a1.79,1.79,0,0,0-1.42.61,3.11,3.11,0,0,0-.68,1.71h4V61.6a2.65,2.65,0,0,0-.57-1.62A1.78,1.78,0,0,0,439.83,59.44Z"/><path class="cls-8" d="M447.8,67.38h-2.13V53.93h2.13Z"/><path class="cls-8" d="M449.74,62.57a5.54,5.54,0,0,1,1-3.52,3.32,3.32,0,0,1,2.75-1.32,3.13,3.13,0,0,1,2.55,1.13l.1-1h1.91v9.19A3.8,3.8,0,0,1,456.93,70a4.39,4.39,0,0,1-3.13,1.08,5,5,0,0,1-2-.43,3.54,3.54,0,0,1-1.51-1.14l1-1.28a3,3,0,0,0,2.42,1.17,2.29,2.29,0,0,0,1.67-.58,2.18,2.18,0,0,0,.62-1.68v-.64a3.15,3.15,0,0,1-2.46,1,3.32,3.32,0,0,1-2.71-1.32A5.68,5.68,0,0,1,449.74,62.57Zm2.12.19a3.77,3.77,0,0,0,.58,2.24,1.87,1.87,0,0,0,1.62.82,2.06,2.06,0,0,0,1.91-1.1V60.55a2,2,0,0,0-1.89-1.08,1.89,1.89,0,0,0-1.64.83A4.3,4.3,0,0,0,451.86,62.76Z"/><path class="cls-8" d="M465.94,67.38a3.5,3.5,0,0,1-.24-.88,3.6,3.6,0,0,1-4.82.24,2.6,2.6,0,0,1-.9-2,2.7,2.7,0,0,1,1.12-2.33,5.47,5.47,0,0,1,3.22-.81h1.31V61a1.65,1.65,0,0,0-.42-1.18,1.64,1.64,0,0,0-1.25-.44,1.89,1.89,0,0,0-1.19.36,1.13,1.13,0,0,0-.46.93h-2.13a2.33,2.33,0,0,1,.52-1.46,3.47,3.47,0,0,1,1.4-1.07,5,5,0,0,1,2-.38,4,4,0,0,1,2.66.84,2.94,2.94,0,0,1,1,2.35v4.27a4.84,4.84,0,0,0,.36,2v.15Zm-2.34-1.53a2.48,2.48,0,0,0,1.19-.31,2.07,2.07,0,0,0,.84-.82V62.93h-1.15a3.19,3.19,0,0,0-1.78.41,1.33,1.33,0,0,0-.59,1.17,1.22,1.22,0,0,0,.4,1A1.55,1.55,0,0,0,463.6,65.85Z"/><path class="cls-8" d="M472.65,55.6v2.3h1.67v1.58h-1.67v5.29a1.17,1.17,0,0,0,.21.78,1,1,0,0,0,.77.24,3.11,3.11,0,0,0,.74-.08v1.64a5,5,0,0,1-1.4.2c-1.63,0-2.45-.9-2.45-2.7V59.48H469V57.9h1.56V55.6Z"/><path class="cls-8" d="M480.12,67.55a4.4,4.4,0,0,1-3.28-1.27,4.61,4.61,0,0,1-1.26-3.39v-.27a5.6,5.6,0,0,1,.55-2.53,4.14,4.14,0,0,1,1.54-1.74,4.08,4.08,0,0,1,2.2-.62,3.72,3.72,0,0,1,3,1.23,5.21,5.21,0,0,1,1.06,3.5v.86h-6.19a2.79,2.79,0,0,0,.78,1.85,2.35,2.35,0,0,0,1.73.69,2.87,2.87,0,0,0,2.38-1.19l1.15,1.1a4,4,0,0,1-1.52,1.32A4.76,4.76,0,0,1,480.12,67.55Zm-.26-8.11a1.78,1.78,0,0,0-1.41.61,3.19,3.19,0,0,0-.69,1.71h4.06V61.6a2.65,2.65,0,0,0-.57-1.62A1.8,1.8,0,0,0,479.86,59.44Z"/><path class="cls-8" d="M490.16,59.24l2.68-4.61h2.56L491.55,61l3.94,6.43H492.9l-2.74-4.68-2.75,4.68h-2.57l4-6.43-3.86-6.32h2.55Z"/><path id="Line" class="cls-9" d="M176,40V528"/><path class="cls-8" d="M72.69,63.23a4.58,4.58,0,0,1-1.5,3.18,5.16,5.16,0,0,1-3.5,1.14A5,5,0,0,1,65,66.83a4.73,4.73,0,0,1-1.79-2,7.47,7.47,0,0,1-.66-3.09V60.5a7.52,7.52,0,0,1,.64-3.18A4.78,4.78,0,0,1,65,55.2a5.05,5.05,0,0,1,2.76-.75,4.9,4.9,0,0,1,3.4,1.15,4.75,4.75,0,0,1,1.49,3.23h-2.2a3.16,3.16,0,0,0-.8-2,2.64,2.64,0,0,0-1.89-.61,2.58,2.58,0,0,0-2.22,1.06,5.22,5.22,0,0,0-.79,3.1v1.13a5.54,5.54,0,0,0,.74,3.15,2.43,2.43,0,0,0,2.16,1.09,2.9,2.9,0,0,0,2-.59,3.11,3.11,0,0,0,.83-2Z"/><path class="cls-8" d="M76.89,65.59h5.79v1.79h-8V54.63h2.22Z"/><path class="cls-8" d="M86.72,67.38H84.51V54.63h2.21Z"/><path class="cls-8" d="M96.89,61.69H91.65v3.9h6.13v1.79H89.44V54.63h8.27v1.79H91.65v3.52h5.24Z"/><path class="cls-8" d="M109.69,67.38h-2.21l-5.69-9v9H99.58V54.63h2.21l5.71,9.08V54.63h2.19Z"/><path class="cls-8" d="M121.27,56.42h-4v11H115.1v-11h-3.94V54.63h10.11Z"/><path class="cls-8" d="M129.47,64.1a1.55,1.55,0,0,0-.59-1.3,7.33,7.33,0,0,0-2.14-.92,10.48,10.48,0,0,1-2.45-1A3.27,3.27,0,0,1,122.55,58a3.11,3.11,0,0,1,1.26-2.54,5.09,5.09,0,0,1,3.26-1,5.57,5.57,0,0,1,2.37.49,4,4,0,0,1,1.64,1.4,3.58,3.58,0,0,1,.59,2h-2.2a2,2,0,0,0-.63-1.55,2.61,2.61,0,0,0-1.79-.56,2.72,2.72,0,0,0-1.69.46,1.54,1.54,0,0,0-.6,1.29,1.4,1.4,0,0,0,.65,1.17,7.47,7.47,0,0,0,2.14.9,9.9,9.9,0,0,1,2.39,1,3.82,3.82,0,0,1,1.32,1.3,3.33,3.33,0,0,1,.42,1.71,3,3,0,0,1-1.22,2.53,5.27,5.27,0,0,1-3.31.94A6.28,6.28,0,0,1,124.6,67a4.28,4.28,0,0,1-1.8-1.41,3.51,3.51,0,0,1-.65-2.1h2.22a2.07,2.07,0,0,0,.72,1.68,3.18,3.18,0,0,0,2.06.59,2.65,2.65,0,0,0,1.73-.47A1.5,1.5,0,0,0,129.47,64.1Z"/><path class="cls-8" d="M74.21,81.4v3.42H73.06V76.29h3.26a3,3,0,0,1,2.12.7,2.64,2.64,0,0,1,0,3.71,3,3,0,0,1-2.12.7Zm0-.9h2.11a1.7,1.7,0,0,0,1.29-2.83,1.63,1.63,0,0,0-1.29-.47H74.21Z"/><path class="cls-8" d="M84.36,84.82q-.06-.28-.09-.51a3.13,3.13,0,0,1,0-.44,2.57,2.57,0,0,1-.84.76,2.37,2.37,0,0,1-2.63-.19,1.9,1.9,0,0,1-.51-1.4A1.62,1.62,0,0,1,81,81.62a3.46,3.46,0,0,1,2-.52h1.25v-.62a1.14,1.14,0,0,0-.34-.88,1.33,1.33,0,0,0-1-.33,1.38,1.38,0,0,0-.91.28.84.84,0,0,0-.34.68h-1.1v0a1.5,1.5,0,0,1,.65-1.26,3,3,0,0,1,3.51,0,1.93,1.93,0,0,1,.65,1.58v3.05c0,.23,0,.45,0,.66a3.25,3.25,0,0,0,.13.62ZM82.44,84a2,2,0,0,0,1.13-.33,1.51,1.51,0,0,0,.66-.73v-1H82.94a1.66,1.66,0,0,0-1.12.36,1,1,0,0,0-.42.82.89.89,0,0,0,.26.67A1.14,1.14,0,0,0,82.44,84Z"/><path class="cls-8" d="M90.06,79.5l-.59,0a1.35,1.35,0,0,0-.77.22,1.49,1.49,0,0,0-.49.61v4.53H87.06V78.48h1l.11.93a2.12,2.12,0,0,1,.67-.77,1.51,1.51,0,0,1,.91-.28l.25,0,.19.05Z"/><path class="cls-8" d="M93,77v1.53h1.2v.85H93v3.85a.88.88,0,0,0,.18.63.67.67,0,0,0,.49.18l.22,0,.21-.06.16.79a1.22,1.22,0,0,1-.38.18,2.2,2.2,0,0,1-.5.06,1.51,1.51,0,0,1-1.12-.42,1.86,1.86,0,0,1-.42-1.34V79.33h-1v-.85h1V77Z"/><path class="cls-8" d="M96.44,78.48l.08.94a2.36,2.36,0,0,1,.79-.78,2.18,2.18,0,0,1,1.09-.28A2.09,2.09,0,0,1,100,79a2.67,2.67,0,0,1,.56,1.86v4H99.39v-4a1.73,1.73,0,0,0-.33-1.19,1.33,1.33,0,0,0-1-.35,1.81,1.81,0,0,0-.9.21,1.62,1.62,0,0,0-.59.6v4.71H95.4V78.48Z"/><path class="cls-8" d="M104.85,84.94a2.69,2.69,0,0,1-2.13-.87,3.36,3.36,0,0,1-.76-2.3v-.26a3.28,3.28,0,0,1,.78-2.25,2.48,2.48,0,0,1,1.93-.9,2.33,2.33,0,0,1,1.91.79,3.29,3.29,0,0,1,.63,2.11v.61h-4l0,0a2.65,2.65,0,0,0,.42,1.55,1.48,1.48,0,0,0,1.29.59,3,3,0,0,0,1-.17,2.24,2.24,0,0,0,.76-.46l.45.75a2.82,2.82,0,0,1-.9.56A3.58,3.58,0,0,1,104.85,84.94Zm-.18-5.67a1.26,1.26,0,0,0-1,.47,2.14,2.14,0,0,0-.48,1.19v0h2.86v-.1a1.88,1.88,0,0,0-.34-1.14A1.24,1.24,0,0,0,104.67,79.27Z"/><path class="cls-8" d="M111.51,79.5l-.6,0a1.37,1.37,0,0,0-.77.22,1.4,1.4,0,0,0-.48.61v4.53h-1.15V78.48h1l.11.93a2.19,2.19,0,0,1,.66-.77,1.53,1.53,0,0,1,.91-.28l.25,0,.19.05Z"/><path class="cls-8" d="M116.39,83.11a.75.75,0,0,0-.29-.62,2.77,2.77,0,0,0-1.1-.42,4.64,4.64,0,0,1-1.72-.67,1.37,1.37,0,0,1-.6-1.16,1.68,1.68,0,0,1,.66-1.33,2.62,2.62,0,0,1,1.71-.55,2.57,2.57,0,0,1,1.75.59,1.68,1.68,0,0,1,.64,1.36l0,0h-1.1a1,1,0,0,0-.36-.75,1.29,1.29,0,0,0-.91-.33,1.27,1.27,0,0,0-.91.28.85.85,0,0,0-.3.65.67.67,0,0,0,.26.58,2.89,2.89,0,0,0,1.07.38,4.47,4.47,0,0,1,1.77.69,1.41,1.41,0,0,1,.61,1.18,1.68,1.68,0,0,1-.69,1.38,2.83,2.83,0,0,1-1.78.53,2.77,2.77,0,0,1-1.91-.61,1.75,1.75,0,0,1-.66-1.44v0h1.1a1.06,1.06,0,0,0,.46.9,1.75,1.75,0,0,0,1,.28,1.59,1.59,0,0,0,1-.26A.78.78,0,0,0,116.39,83.11Z"/><path class="cls-8" d="M427.77,81.4v3.42h-1.15V76.29h3.26A3,3,0,0,1,432,77a2.64,2.64,0,0,1,0,3.71,3,3,0,0,1-2.13.7Zm0-.9h2.11a1.56,1.56,0,0,0,1.73-1.65,1.73,1.73,0,0,0-.43-1.18,1.66,1.66,0,0,0-1.3-.47h-2.11Z"/><path class="cls-8" d="M435.34,84.82h-1.16V75.68h1.16Z"/><path class="cls-8" d="M441,84.82q-.06-.28-.09-.51c0-.14,0-.29,0-.44a2.57,2.57,0,0,1-.84.76,2.1,2.1,0,0,1-1.12.31,2.07,2.07,0,0,1-1.5-.5,1.86,1.86,0,0,1-.52-1.4,1.62,1.62,0,0,1,.73-1.42,3.46,3.46,0,0,1,2-.52h1.25v-.62a1.14,1.14,0,0,0-.34-.88,1.3,1.3,0,0,0-1-.33,1.39,1.39,0,0,0-.91.28.84.84,0,0,0-.34.68h-1.1v0a1.5,1.5,0,0,1,.65-1.26,2.65,2.65,0,0,1,1.78-.58,2.6,2.6,0,0,1,1.73.55,1.94,1.94,0,0,1,.66,1.58v3.05q0,.34,0,.66a3.25,3.25,0,0,0,.13.62ZM439.09,84a2.05,2.05,0,0,0,1.14-.33,1.53,1.53,0,0,0,.65-.73v-1h-1.29a1.66,1.66,0,0,0-1.12.36,1,1,0,0,0-.42.82.86.86,0,0,0,.27.67A1.1,1.1,0,0,0,439.09,84Z"/><path class="cls-8" d="M445.32,77v1.53h1.2v.85h-1.2v3.85a.88.88,0,0,0,.18.63A.69.69,0,0,0,446,84l.22,0,.21-.06.16.79a1.22,1.22,0,0,1-.38.18,2.2,2.2,0,0,1-.5.06,1.51,1.51,0,0,1-1.12-.42,1.86,1.86,0,0,1-.42-1.34V79.33h-1v-.85h1V77Z"/><path class="cls-8" d="M448.24,84.82V79.33h-1v-.85h1v-.8a2.15,2.15,0,0,1,.53-1.57,1.93,1.93,0,0,1,1.48-.55l.4,0,.44.09-.14.88-.25,0a1.56,1.56,0,0,0-.31,0,.9.9,0,0,0-.75.3,1.32,1.32,0,0,0-.25.88v.8h1.15v.85h-1.15v5.49Z"/><path class="cls-8" d="M451.43,81.59a3.49,3.49,0,0,1,.77-2.32,2.55,2.55,0,0,1,2.06-.91,2.61,2.61,0,0,1,2.09.91,3.49,3.49,0,0,1,.76,2.32v.13a3.45,3.45,0,0,1-.76,2.32,2.84,2.84,0,0,1-4.15,0,3.49,3.49,0,0,1-.77-2.32Zm1.16.13a3,3,0,0,0,.42,1.66,1.42,1.42,0,0,0,1.27.66,1.39,1.39,0,0,0,1.25-.66,2.93,2.93,0,0,0,.43-1.66v-.13a3.05,3.05,0,0,0-.43-1.66,1.42,1.42,0,0,0-1.27-.66,1.4,1.4,0,0,0-1.25.66,3.05,3.05,0,0,0-.42,1.66Z"/><path class="cls-8" d="M461.52,79.5l-.59,0a1.37,1.37,0,0,0-.77.22,1.4,1.4,0,0,0-.48.61v4.53h-1.16V78.48h1l.11.93a2.19,2.19,0,0,1,.66-.77,1.53,1.53,0,0,1,.91-.28l.25,0,.19.05Z"/><path class="cls-8" d="M463.76,78.48l.08.83a2.21,2.21,0,0,1,.79-.7,2.45,2.45,0,0,1,1.11-.25,1.9,1.9,0,0,1,1.08.3,1.74,1.74,0,0,1,.69.87,2.24,2.24,0,0,1,.79-.85,2.09,2.09,0,0,1,1.15-.32A1.9,1.9,0,0,1,471,79a3.06,3.06,0,0,1,.56,2v3.79h-1.16V81a2.08,2.08,0,0,0-.32-1.33,1.16,1.16,0,0,0-1-.39,1.25,1.25,0,0,0-1,.41,1.79,1.79,0,0,0-.43,1v4.07h-1.16V81a2.1,2.1,0,0,0-.33-1.31,1.16,1.16,0,0,0-1-.41,1.56,1.56,0,0,0-.87.22,1.31,1.31,0,0,0-.52.61v4.69h-1.15V78.48Z"/><path class="cls-8" d="M75.61,338.82H74.36v-4.08H69.87v4.08H68.62v-9.24h1.25v4.17h4.49v-4.17h1.25Z"/><path class="cls-8" d="M77.3,335.32a3.8,3.8,0,0,1,.83-2.51,3,3,0,0,1,4.49,0,3.71,3.71,0,0,1,.83,2.51v.14a3.74,3.74,0,0,1-.82,2.51,3.07,3.07,0,0,1-4.5,0,3.76,3.76,0,0,1-.83-2.51Zm1.25.14a3.29,3.29,0,0,0,.46,1.8,1.67,1.67,0,0,0,2.73,0,3.21,3.21,0,0,0,.46-1.8v-.14a3.2,3.2,0,0,0-.46-1.79,1.54,1.54,0,0,0-1.37-.72,1.51,1.51,0,0,0-1.36.72,3.28,3.28,0,0,0-.46,1.79Z"/><path class="cls-8" d="M86.72,330.29V332H88v.93h-1.3v4.17a1,1,0,0,0,.2.68.72.72,0,0,0,.53.19,1.06,1.06,0,0,0,.24,0l.22-.06.18.85a1.1,1.1,0,0,1-.42.19,2,2,0,0,1-.54.07,1.61,1.61,0,0,1-1.21-.46,2,2,0,0,1-.45-1.44v-4.17H84.38V332h1.09v-1.66Z"/><path class="cls-8" d="M92.21,339A2.9,2.9,0,0,1,89.9,338a3.65,3.65,0,0,1-.83-2.49v-.28a3.57,3.57,0,0,1,.85-2.45,2.71,2.71,0,0,1,2.09-1,2.5,2.5,0,0,1,2.07.86,3.58,3.58,0,0,1,.68,2.28v.66H90.37l0,0a2.81,2.81,0,0,0,.46,1.68,1.59,1.59,0,0,0,1.4.64,2.94,2.94,0,0,0,1.11-.18,2.49,2.49,0,0,0,.82-.49l.49.81a3.15,3.15,0,0,1-1,.6A3.93,3.93,0,0,1,92.21,339Zm-.2-6.14a1.36,1.36,0,0,0-1.08.5,2.43,2.43,0,0,0-.53,1.29l0,0h3.09v-.1a2,2,0,0,0-.36-1.24A1.34,1.34,0,0,0,92,332.81Z"/><path class="cls-8" d="M97.52,338.82H96.27v-9.9h1.25Z"/><path class="cls-8" d="M100.79,330.19H99.54v-1.27h1.25Zm0,8.63H99.54V332h1.25Z"/><path class="cls-8" d="M105.56,339a2.93,2.93,0,0,1-2.31-.94,3.65,3.65,0,0,1-.82-2.49v-.28a3.57,3.57,0,0,1,.85-2.45,2.69,2.69,0,0,1,2.08-1,2.5,2.5,0,0,1,2.07.86,3.52,3.52,0,0,1,.69,2.28v.66h-4.39l0,0a2.88,2.88,0,0,0,.45,1.68,1.6,1.6,0,0,0,1.4.64,2.91,2.91,0,0,0,1.11-.18,2.53,2.53,0,0,0,.83-.49l.49.81a3.09,3.09,0,0,1-1,.6A3.89,3.89,0,0,1,105.56,339Zm-.2-6.14a1.38,1.38,0,0,0-1.08.5,2.42,2.42,0,0,0-.52,1.29v0h3.1v-.1a2,2,0,0,0-.37-1.24A1.32,1.32,0,0,0,105.36,332.81Z"/><path class="cls-8" d="M112.77,333.06l-.64,0a1.45,1.45,0,0,0-.83.23,1.59,1.59,0,0,0-.53.66v4.91h-1.25V332h1.12l.12,1a2.35,2.35,0,0,1,.72-.83,1.68,1.68,0,0,1,1-.3,1.09,1.09,0,0,1,.26,0l.21,0Z"/><path class="cls-8" d="M118.07,337a.83.83,0,0,0-.32-.67,3,3,0,0,0-1.19-.46,4.77,4.77,0,0,1-1.86-.73,1.45,1.45,0,0,1-.65-1.25,1.84,1.84,0,0,1,.71-1.44,3.13,3.13,0,0,1,3.74,0,1.81,1.81,0,0,1,.7,1.48l0,0H118a1.08,1.08,0,0,0-.39-.81,1.4,1.4,0,0,0-1-.36,1.39,1.39,0,0,0-1,.3.91.91,0,0,0-.33.71.75.75,0,0,0,.28.63,3.29,3.29,0,0,0,1.17.4,4.83,4.83,0,0,1,1.91.76,1.51,1.51,0,0,1,.66,1.27,1.84,1.84,0,0,1-.74,1.5,3.11,3.11,0,0,1-1.94.57,3.06,3.06,0,0,1-2.07-.66,1.91,1.91,0,0,1-.71-1.56v0h1.19a1.16,1.16,0,0,0,.5,1,2,2,0,0,0,1.08.3,1.7,1.7,0,0,0,1-.28A.87.87,0,0,0,118.07,337Z"/><path class="cls-8" d="M544.14,269.82v-9.24h3a3.71,3.71,0,0,1,2.27.62,2.21,2.21,0,0,1,.82,1.88,1.68,1.68,0,0,1-.37,1.07,2.35,2.35,0,0,1-1,.72,2.12,2.12,0,0,1,1.44.79,2.41,2.41,0,0,1,.53,1.55,2.35,2.35,0,0,1-.82,1.94,3.44,3.44,0,0,1-2.24.67Zm1.25-5.31h2a1.64,1.64,0,0,0,1.14-.39,1.55,1.55,0,0,0,0-2.19,2.17,2.17,0,0,0-1.37-.37h-1.76Zm0,1v3.36h2.41a1.93,1.93,0,0,0,1.33-.42,1.5,1.5,0,0,0,.47-1.2,1.63,1.63,0,0,0-.48-1.23,1.85,1.85,0,0,0-1.3-.51h-2.43Z"/><path class="cls-8" d="M553.58,261.19h-1.25v-1.27h1.25Zm0,8.63h-1.25V263h1.25Z"/><path class="cls-8" d="M555.29,266.51a4.6,4.6,0,0,1,.7-2.67,2.27,2.27,0,0,1,2-1,2.35,2.35,0,0,1,1.15.27,2.23,2.23,0,0,1,.83.76l.15-.9h1v6.91a2.65,2.65,0,0,1-.77,2,3.15,3.15,0,0,1-2.21.7,4.66,4.66,0,0,1-1.07-.13,4.51,4.51,0,0,1-1-.37l.19-1a3.77,3.77,0,0,0,.88.31,4.34,4.34,0,0,0,1,.12,1.8,1.8,0,0,0,1.33-.42,1.7,1.7,0,0,0,.42-1.26v-.78a2.22,2.22,0,0,1-.81.65A2.45,2.45,0,0,1,558,270a2.35,2.35,0,0,1-2-.91,3.79,3.79,0,0,1-.7-2.39Zm1.25.14a2.94,2.94,0,0,0,.42,1.66,1.47,1.47,0,0,0,1.31.63,1.66,1.66,0,0,0,1-.26,2,2,0,0,0,.63-.73v-3.16a1.91,1.91,0,0,0-.63-.69,1.66,1.66,0,0,0-.93-.26,1.44,1.44,0,0,0-1.33.74,3.91,3.91,0,0,0-.42,1.93Z"/><path class="cls-8" d="M570.13,266a4.16,4.16,0,0,1-.22,1.38,3.81,3.81,0,0,1-.6,1.17l1.37,1.34-.85.82-1.41-1.35a3.68,3.68,0,0,1-1,.43,4.3,4.3,0,0,1-1.1.14,3.39,3.39,0,0,1-2.63-1.11,4,4,0,0,1-1-2.82v-1.64a4,4,0,0,1,1-2.81,3.37,3.37,0,0,1,2.63-1.13,3.59,3.59,0,0,1,2.73,1.12,4,4,0,0,1,1,2.82Zm-1.25-1.65a3.13,3.13,0,0,0-.69-2.09,2.29,2.29,0,0,0-1.84-.81,2.11,2.11,0,0,0-1.74.81,3.22,3.22,0,0,0-.65,2.09V266a3.21,3.21,0,0,0,.65,2.1,2.11,2.11,0,0,0,1.74.81,2.28,2.28,0,0,0,1.84-.81,3.13,3.13,0,0,0,.69-2.1Z"/><path class="cls-8" d="M576.31,268.8a2.19,2.19,0,0,1-.83.85,2.48,2.48,0,0,1-2.92-.41,3.35,3.35,0,0,1-.63-2.24V263h1.25V267a2.58,2.58,0,0,0,.32,1.51,1.21,1.21,0,0,0,1,.42,2,2,0,0,0,1.1-.27,1.72,1.72,0,0,0,.66-.77V263h1.25v6.87H576.4Z"/><path class="cls-8" d="M582.19,270a2.9,2.9,0,0,1-2.31-.94,3.65,3.65,0,0,1-.83-2.49v-.28a3.61,3.61,0,0,1,.85-2.45,2.71,2.71,0,0,1,2.09-1,2.5,2.5,0,0,1,2.07.86,3.52,3.52,0,0,1,.68,2.28v.66h-4.39l0,0a2.88,2.88,0,0,0,.46,1.68,1.6,1.6,0,0,0,1.4.65,2.93,2.93,0,0,0,1.11-.19,2.49,2.49,0,0,0,.82-.49l.49.81a2.87,2.87,0,0,1-1,.6A3.93,3.93,0,0,1,582.19,270Zm-.2-6.14a1.36,1.36,0,0,0-1.08.5,2.43,2.43,0,0,0-.53,1.29l0,0h3.09v-.11a2,2,0,0,0-.36-1.23A1.34,1.34,0,0,0,582,263.81Z"/><path class="cls-8" d="M589.4,264.06l-.64,0a1.51,1.51,0,0,0-.84.23,1.57,1.57,0,0,0-.52.66v4.91h-1.25V263h1.11l.13,1a2.35,2.35,0,0,1,.72-.83,1.65,1.65,0,0,1,1-.3,1.18,1.18,0,0,1,.27,0l.21,0Z"/><path class="cls-8" d="M592.91,267.27l.23.87h0l1.69-5.19h1.39l-2.89,7.92a3.55,3.55,0,0,1-.74,1.21,1.73,1.73,0,0,1-1.31.51l-.39,0a2.86,2.86,0,0,1-.36-.07l.13-1h.22l.33,0a.78.78,0,0,0,.66-.36,3.43,3.43,0,0,0,.42-.78l.3-.72L590.07,263h1.4Z"/><path id="Shape" class="cls-10" d="M552.76,238c0,3,7.68,5.51,17.12,5.51S587,241,587,238V213.49c-3.52,2.58-10.34,3.78-17.12,3.78s-13.61-1.2-17.12-3.78Z"/><ellipse id="Oval" class="cls-10" cx="569.88" cy="211.51" rx="17.12" ry="5.51"/><path class="cls-8" d="M564.71,386.73h-3.89v4.09h-1.25v-9.24h5.79v1h-4.54v3.19h3.89Z"/><path class="cls-8" d="M567.92,382.19h-1.25v-1.27h1.25Zm0,8.63h-1.25V384h1.25Z"/><path class="cls-8" d="M571.2,390.82h-1.26v-9.9h1.26Z"/><path class="cls-8" d="M576,391a2.89,2.89,0,0,1-2.3-.94,3.6,3.6,0,0,1-.83-2.49v-.28a3.57,3.57,0,0,1,.85-2.45,2.69,2.69,0,0,1,2.09-1,2.5,2.5,0,0,1,2.06.86,3.52,3.52,0,0,1,.69,2.28v.66h-4.39l0,0a2.81,2.81,0,0,0,.46,1.68A1.58,1.58,0,0,0,576,390a3,3,0,0,0,1.12-.18,2.49,2.49,0,0,0,.82-.49l.49.81a3.15,3.15,0,0,1-1,.6A4,4,0,0,1,576,391Zm-.19-6.14a1.39,1.39,0,0,0-1.09.5,2.42,2.42,0,0,0-.52,1.29v0h3.1v-.1a2,2,0,0,0-.37-1.24A1.3,1.3,0,0,0,575.77,384.81Z"/><polygon class="cls-11" points="583 367.05 557 367.05 557 331 576.89 331 583 336.91 583 367.05"/><polyline class="cls-11" points="577.09 331 577.09 336.91 583 336.91"/><rect class="cls-12" x="561.14" y="346.95" width="17.73" height="1.77"/><rect class="cls-12" x="561.14" y="351.09" width="17.73" height="1.77"/><rect class="cls-12" x="561.14" y="355.23" width="17.73" height="1.77"/><path class="cls-8" d="M540.52,528.44h-3.47l-.83,2.38h-1.28l3.34-9.24h1.07l3.26,9.24h-1.27Zm-3.11-1.05h2.76l-1.35-4h0Z"/><path class="cls-8" d="M545.22,527.11v3.71H544v-9.24h3.54a3.26,3.26,0,0,1,2.3.76,2.87,2.87,0,0,1,0,4,3.3,3.3,0,0,1-2.3.75Zm0-1h2.29a1.67,1.67,0,0,0,1.86-1.77,1.83,1.83,0,0,0-.46-1.28,1.79,1.79,0,0,0-1.4-.52h-2.29Z"/><path class="cls-8" d="M553.62,530.82h-1.26v-9.24h1.26Z"/><path id="line5-3" data-name="line5" class="cls-2" d="M664.5,193.5l.5,273"/><path id="line5-4" data-name="line5" class="cls-2" d="M664.5,224.5h-56v1.9l-3.5-1.9,3.5-1.9v1.9h56"/><path id="line5-5" data-name="line5" class="cls-2" d="M664.5,347.5h-56v1.9l-3.5-1.9,3.5-1.9v1.9h56"/><path id="line5-6" data-name="line5" class="cls-2" d="M664.5,466.5h-56v1.9l-3.5-1.9,3.5-1.9v1.9h56"/><path id="line5-7" data-name="line5" class="cls-2" d="M504.5,319l.5,33.62h32"/><path id="line5-8" data-name="line5" class="cls-2" d="M536,226.38H505L504.5,319"/><path id="line5-9" data-name="line5" class="cls-2" d="M504.5,289.5h-363v1.9l-3.5-1.9,3.5-1.9v1.9h363"/><path id="line5-10" data-name="line5" class="cls-2" d="M286.38,290.25v176l209.62.5"/><g id="line5-11" data-name="line5" class="cls-3"><line class="cls-2" x1="480" y1="288.62" x2="479.97" y2="286.62"/><line class="cls-6" x1="479.93" y1="284.3" x2="479.82" y2="276.77"/><line class="cls-7" x1="479.74" y1="271.55" x2="479.22" y2="237.35"/><polyline class="cls-2" points="479.15 232.14 479.12 230.14 477.12 230.14"/><line class="cls-4" x1="474.88" y1="230.14" x2="467.6" y2="230.14"/><line class="cls-5" x1="462.56" y1="230.14" x2="429.54" y2="230.14"/><line class="cls-2" x1="424.5" y1="230.14" x2="422.5" y2="230.14"/></g><path class="cls-8" d="M654.69,165.82v-9.24h2.91a3.79,3.79,0,0,1,4,4v1.26a3.79,3.79,0,0,1-4,4Zm1.25-8.26v7.28h1.66a2.54,2.54,0,0,0,2-.84,3.16,3.16,0,0,0,.74-2.17v-1.27a3.11,3.11,0,0,0-.74-2.15,2.52,2.52,0,0,0-2-.85Z"/><path class="cls-8" d="M667.55,165.82c0-.21-.08-.39-.1-.55a3.88,3.88,0,0,1,0-.48,2.91,2.91,0,0,1-.91.83,2.37,2.37,0,0,1-1.21.33,2.24,2.24,0,0,1-1.64-.55,2,2,0,0,1-.56-1.51,1.78,1.78,0,0,1,.8-1.54,3.71,3.71,0,0,1,2.16-.56h1.36v-.67a1.25,1.25,0,0,0-.37-1,1.47,1.47,0,0,0-1-.35,1.51,1.51,0,0,0-1,.3.93.93,0,0,0-.38.73l-1.19,0v0a1.65,1.65,0,0,1,.7-1.37,2.89,2.89,0,0,1,1.93-.63,2.83,2.83,0,0,1,1.88.6,2.1,2.1,0,0,1,.71,1.71v3.31a5.53,5.53,0,0,0,0,.71,3.07,3.07,0,0,0,.14.67Zm-2.08-.91a2.26,2.26,0,0,0,1.23-.35,1.71,1.71,0,0,0,.71-.8v-1.12H666a1.83,1.83,0,0,0-1.21.38,1.12,1.12,0,0,0-.46.9,1,1,0,0,0,.29.72A1.18,1.18,0,0,0,665.47,164.91Z"/><path class="cls-8" d="M672.21,157.29V159h1.31v.93h-1.31v4.17a1,1,0,0,0,.2.68.73.73,0,0,0,.53.19,1.1,1.1,0,0,0,.25,0l.22-.06.17.85a1,1,0,0,1-.41.19,2.11,2.11,0,0,1-.54.07,1.62,1.62,0,0,1-1.22-.46,2,2,0,0,1-.45-1.44v-4.17h-1.09V159H671v-1.66Z"/><path class="cls-8" d="M679.08,165.82a5,5,0,0,1-.1-.55,2.59,2.59,0,0,1,0-.48,3,3,0,0,1-.92.83,2.31,2.31,0,0,1-1.2.33,2.24,2.24,0,0,1-1.64-.55,2,2,0,0,1-.56-1.51,1.78,1.78,0,0,1,.8-1.54,3.71,3.71,0,0,1,2.16-.56h1.36v-.67a1.29,1.29,0,0,0-.37-1,1.47,1.47,0,0,0-1-.35,1.54,1.54,0,0,0-1,.3.92.92,0,0,0-.37.73l-1.19,0v0a1.63,1.63,0,0,1,.7-1.37,2.89,2.89,0,0,1,1.93-.63,2.83,2.83,0,0,1,1.88.6,2.1,2.1,0,0,1,.71,1.71v3.31c0,.24,0,.48,0,.71a5,5,0,0,0,.14.67Zm-2.08-.91a2.29,2.29,0,0,0,1.23-.35,1.71,1.71,0,0,0,.71-.8v-1.12h-1.41a1.86,1.86,0,0,0-1.21.38,1.14,1.14,0,0,0-.45.9,1,1,0,0,0,.29.72A1.18,1.18,0,0,0,677,164.91Z"/><path class="cls-8" d="M637.72,175.61l.16,1.22h0l.21-1.22,1.64-6H641l1.65,6,.21,1.24h0l.17-1.24,1.32-6h1.36l-2.23,9.24H642.4l-1.85-6.41-.14-.83h0l-.13.83-1.87,6.41h-1.12L635,169.58h1.36Z"/><path class="cls-8" d="M650.9,178.82c0-.21-.08-.39-.1-.55a3.88,3.88,0,0,1,0-.48,2.91,2.91,0,0,1-.91.83,2.37,2.37,0,0,1-1.21.33,2.24,2.24,0,0,1-1.64-.55,2,2,0,0,1-.56-1.51,1.78,1.78,0,0,1,.8-1.54,3.71,3.71,0,0,1,2.16-.56h1.36v-.67a1.25,1.25,0,0,0-.37-1,1.45,1.45,0,0,0-1-.35,1.51,1.51,0,0,0-1,.3.93.93,0,0,0-.38.73l-1.19,0v0a1.65,1.65,0,0,1,.7-1.37,2.89,2.89,0,0,1,1.93-.63,2.83,2.83,0,0,1,1.88.6,2.1,2.1,0,0,1,.71,1.71v3.31a5.53,5.53,0,0,0,0,.71,3.07,3.07,0,0,0,.14.67Zm-2.08-.91a2.26,2.26,0,0,0,1.23-.35,1.71,1.71,0,0,0,.71-.8v-1.12h-1.4a1.83,1.83,0,0,0-1.21.38,1.12,1.12,0,0,0-.46.9,1,1,0,0,0,.29.72A1.18,1.18,0,0,0,648.82,177.91Z"/><path class="cls-8" d="M657.07,173.06l-.64,0a1.47,1.47,0,0,0-.83.23,1.49,1.49,0,0,0-.52.66v4.91h-1.26V172h1.12l.12,1a2.56,2.56,0,0,1,.72-.83,1.7,1.7,0,0,1,1-.3l.27,0,.21,0Z"/><path class="cls-8" d="M661.1,179a2.9,2.9,0,0,1-2.31-.94,3.65,3.65,0,0,1-.83-2.49v-.28a3.57,3.57,0,0,1,.86-2.45,2.69,2.69,0,0,1,2.08-1,2.5,2.5,0,0,1,2.07.86,3.52,3.52,0,0,1,.69,2.28v.66h-4.4v0a2.88,2.88,0,0,0,.45,1.68,1.61,1.61,0,0,0,1.4.65,2.93,2.93,0,0,0,1.11-.19,2.53,2.53,0,0,0,.83-.49l.48.81a2.87,2.87,0,0,1-1,.6A3.89,3.89,0,0,1,661.1,179Zm-.2-6.14a1.38,1.38,0,0,0-1.08.5,2.35,2.35,0,0,0-.52,1.29v0h3.1v-.11a2,2,0,0,0-.37-1.23A1.34,1.34,0,0,0,660.9,172.81Z"/><path class="cls-8" d="M666.31,172.87a2.55,2.55,0,0,1,.87-.77,2.47,2.47,0,0,1,1.15-.28,2.22,2.22,0,0,1,1.71.66,2.91,2.91,0,0,1,.61,2v4.3H669.4V174.5a1.85,1.85,0,0,0-.36-1.25,1.41,1.41,0,0,0-1.09-.41,2,2,0,0,0-1,.22,1.79,1.79,0,0,0-.67.61v5.15h-1.25v-9.9h1.25Z"/><path class="cls-8" d="M672.16,175.32a3.79,3.79,0,0,1,.82-2.51,3.05,3.05,0,0,1,4.5,0,3.76,3.76,0,0,1,.83,2.51v.14a3.79,3.79,0,0,1-.83,2.52,3.07,3.07,0,0,1-4.49,0,3.71,3.71,0,0,1-.83-2.51Zm1.25.14a3.21,3.21,0,0,0,.46,1.8,1.64,1.64,0,0,0,2.72,0,3.21,3.21,0,0,0,.47-1.8v-.14a3.2,3.2,0,0,0-.47-1.79,1.53,1.53,0,0,0-1.37-.72,1.5,1.5,0,0,0-1.35.72,3.2,3.2,0,0,0-.46,1.79Z"/><path class="cls-8" d="M684.2,177.8a2.22,2.22,0,0,1-2,1.15,2.22,2.22,0,0,1-1.75-.71,3.35,3.35,0,0,1-.63-2.24V172h1.25V176a2.49,2.49,0,0,0,.33,1.51,1.18,1.18,0,0,0,1,.42,2.06,2.06,0,0,0,1.1-.27,1.64,1.64,0,0,0,.65-.77v-5h1.25v6.87h-1.12Z"/><path class="cls-8" d="M691.22,177a.83.83,0,0,0-.32-.67,3,3,0,0,0-1.19-.46,4.91,4.91,0,0,1-1.86-.73,1.47,1.47,0,0,1-.65-1.25,1.82,1.82,0,0,1,.72-1.44,2.76,2.76,0,0,1,1.85-.6,2.81,2.81,0,0,1,1.89.64,1.83,1.83,0,0,1,.69,1.48v0h-1.2a1.08,1.08,0,0,0-.39-.81,1.39,1.39,0,0,0-1-.36,1.43,1.43,0,0,0-1,.3.92.92,0,0,0-.33.71.78.78,0,0,0,.28.63,3.29,3.29,0,0,0,1.17.4,5,5,0,0,1,1.92.76,1.52,1.52,0,0,1,.65,1.27,1.84,1.84,0,0,1-.74,1.5,3.08,3.08,0,0,1-1.93.57,3,3,0,0,1-2.07-.66,1.89,1.89,0,0,1-.72-1.56v0h1.2a1.16,1.16,0,0,0,.49,1,2,2,0,0,0,1.09.31,1.69,1.69,0,0,0,1-.29A.87.87,0,0,0,691.22,177Z"/><path class="cls-8" d="M696.87,179a2.9,2.9,0,0,1-2.31-.94,3.65,3.65,0,0,1-.83-2.49v-.28a3.57,3.57,0,0,1,.86-2.45,2.69,2.69,0,0,1,2.08-1,2.5,2.5,0,0,1,2.07.86,3.52,3.52,0,0,1,.69,2.28v.66H695l0,0a2.88,2.88,0,0,0,.46,1.68,1.61,1.61,0,0,0,1.4.65,2.93,2.93,0,0,0,1.11-.19,2.39,2.39,0,0,0,.82-.49l.49.81a2.87,2.87,0,0,1-1,.6A3.89,3.89,0,0,1,696.87,179Zm-.2-6.14a1.37,1.37,0,0,0-1.08.5,2.35,2.35,0,0,0-.52,1.29v0h3.1v-.11a2,2,0,0,0-.37-1.23A1.34,1.34,0,0,0,696.67,172.81Z"/><path id="Fill-64" class="cls-13" d="M105.79,187.1c-.76-1.6-3.5-3.82-6.15-6-1.47-1.2-2.87-2.33-3.75-3.22a.82.82,0,0,0-.85-.19c-.55.2-.89.35-1.16.47a2.6,2.6,0,0,1-1.09.3.82.82,0,0,0-.59.36c-1.15,1.72-2.34,1.57-3.13,1.31-.26-.09-.3-.2-.33-.3-.17-.72.69-2.38,1.8-3.5,2.64-2.65,4-3.31,6.88-2C100.68,175.8,104,177,104,177a.82.82,0,0,0,1-.5.83.83,0,0,0-.5-1s-3.24-1.13-6.44-2.57c-3.72-1.67-5.77-.57-8.69,2.36-1.11,1.12-2.62,3.37-2.23,5a2,2,0,0,0,1.4,1.46,4.05,4.05,0,0,0,4.77-1.64,4.06,4.06,0,0,0,1.22-.38l.57-.25c.93.88,2.18,1.9,3.5,3,2.39,1.93,5.1,4.13,5.71,5.4a1,1,0,0,1-.24,1.23.9.9,0,0,1-1,.19.81.81,0,0,0-1.27.76,1,1,0,0,1-.63.92,1.24,1.24,0,0,1-1.26,0,.82.82,0,0,0-.84-.17.8.8,0,0,0-.52.69,1.57,1.57,0,0,1-1,1.25.87.87,0,0,1-.94-.15.81.81,0,0,0-1.31.33c0,.08-.1.27-.86.27a4.63,4.63,0,0,1-2-.68c-.57-.38-4.15-3.05-7.24-5.65-.43-.36-1.18-1.15-1.84-1.84S82.3,183.8,82,183.57a.8.8,0,0,0-1.14.09.82.82,0,0,0,.09,1.15c.26.22.74.73,1.28,1.29.73.76,1.47,1.55,2,2,3,2.54,6.66,5.29,7.39,5.76a6.1,6.1,0,0,0,2.88.95,2.77,2.77,0,0,0,1.84-.54,2.57,2.57,0,0,0,1.85,0,3.2,3.2,0,0,0,1.69-1.57,3.14,3.14,0,0,0,2-.29,2.75,2.75,0,0,0,1.36-1.42,2.68,2.68,0,0,0,1.86-.67,2.59,2.59,0,0,0,.65-3.17"/><path id="Fill-65" class="cls-13" d="M91.25,173.6H83.94a.82.82,0,0,0-.82.81.82.82,0,0,0,.82.82h7.31a.82.82,0,0,0,.81-.82.81.81,0,0,0-.81-.81"/><path id="Fill-70" class="cls-13" d="M80.09,185H76.62V172a24.7,24.7,0,0,1,6.46,1.16A84.52,84.52,0,0,1,80.09,185Zm4.41-12.81c-1.4-1.32-7-1.75-8.64-1.85a.78.78,0,0,0-.6.22.79.79,0,0,0-.26.59v14.67a.81.81,0,0,0,.81.81h4.88a.8.8,0,0,0,.77-.56c.12-.36,2.92-9,3.29-13.22a.81.81,0,0,0-.25-.66Z"/><path id="Fill-71" class="cls-13" d="M112.37,186.63h-3.45c-.77-2.51-3-9.07-4.31-11.79a26.47,26.47,0,0,1,7.76-1.23Zm.82-14.66c-6.38,0-9.92,1.63-10.07,1.7a.81.81,0,0,0-.43.51.77.77,0,0,0,.09.66c1,1.62,4.14,10.63,4.75,12.83a.81.81,0,0,0,.78.59h4.88a.81.81,0,0,0,.81-.81V172.78a.81.81,0,0,0-.81-.81Z"/><path class="cls-8" d="M71.12,223.11v3.71H69.87v-9.24H73.4a3.27,3.27,0,0,1,2.31.76,2.87,2.87,0,0,1,0,4,3.31,3.31,0,0,1-2.31.75Zm0-1H73.4a1.67,1.67,0,0,0,1.87-1.77,1.84,1.84,0,0,0-.47-1.28,1.76,1.76,0,0,0-1.4-.52H71.12Z"/><path class="cls-8" d="M82.11,226.82c0-.21-.07-.39-.1-.55s0-.32,0-.48a2.81,2.81,0,0,1-.91.83,2.32,2.32,0,0,1-1.21.33,2.22,2.22,0,0,1-1.63-.55,2,2,0,0,1-.56-1.51,1.77,1.77,0,0,1,.79-1.54,3.75,3.75,0,0,1,2.17-.56H82v-.67a1.28,1.28,0,0,0-.36-1,1.5,1.5,0,0,0-1-.35,1.53,1.53,0,0,0-1,.3.92.92,0,0,0-.37.73l-1.19,0v0a1.63,1.63,0,0,1,.7-1.37,2.88,2.88,0,0,1,1.92-.63,2.81,2.81,0,0,1,1.88.6,2.07,2.07,0,0,1,.71,1.71v3.31c0,.24,0,.48,0,.71a3.8,3.8,0,0,0,.14.67ZM80,225.91a2.23,2.23,0,0,0,1.22-.35,1.66,1.66,0,0,0,.71-.8v-1.12h-1.4a1.84,1.84,0,0,0-1.21.38,1.14,1.14,0,0,0-.45.9.94.94,0,0,0,.28.72A1.2,1.2,0,0,0,80,225.91Z"/><path class="cls-8" d="M88.29,221.06l-.64,0a1.51,1.51,0,0,0-.84.23,1.57,1.57,0,0,0-.52.66v4.91H85V220h1.12l.12,1a2.35,2.35,0,0,1,.72-.83,1.65,1.65,0,0,1,1-.3,1.12,1.12,0,0,1,.27,0l.21,0Z"/><path class="cls-8" d="M91.44,218.29V220h1.3v.93h-1.3v4.17a.91.91,0,0,0,.2.68.72.72,0,0,0,.53.19,1.06,1.06,0,0,0,.24,0l.22-.06.17.85a1,1,0,0,1-.41.19,2,2,0,0,1-.54.07,1.6,1.6,0,0,1-1.21-.46,2,2,0,0,1-.45-1.44v-4.17H89.1V220h1.09v-1.66Z"/><path class="cls-8" d="M95.2,220l.08,1a2.55,2.55,0,0,1,.86-.84,2.52,2.52,0,0,1,2.9.34,2.86,2.86,0,0,1,.61,2v4.34H98.4v-4.31a1.84,1.84,0,0,0-.36-1.29,1.44,1.44,0,0,0-1.09-.38,2,2,0,0,0-1,.23,1.74,1.74,0,0,0-.64.65v5.1H94.08V220Z"/><path class="cls-8" d="M104.31,227A2.93,2.93,0,0,1,102,226a3.65,3.65,0,0,1-.82-2.49v-.28a3.57,3.57,0,0,1,.85-2.45,2.69,2.69,0,0,1,2.08-1,2.5,2.5,0,0,1,2.07.86,3.52,3.52,0,0,1,.69,2.28v.66h-4.39l0,0a2.88,2.88,0,0,0,.45,1.68,1.61,1.61,0,0,0,1.4.65,2.9,2.9,0,0,0,1.11-.19,2.53,2.53,0,0,0,.83-.49l.49.81a2.92,2.92,0,0,1-1,.6A3.89,3.89,0,0,1,104.31,227Zm-.2-6.14a1.38,1.38,0,0,0-1.08.5,2.42,2.42,0,0,0-.52,1.29v0h3.1v-.11a2,2,0,0,0-.37-1.23A1.32,1.32,0,0,0,104.11,220.81Z"/><path class="cls-8" d="M111.52,221.06l-.64,0a1.45,1.45,0,0,0-.83.23,1.59,1.59,0,0,0-.53.66v4.91h-1.25V220h1.12l.12,1a2.35,2.35,0,0,1,.72-.83,1.68,1.68,0,0,1,1-.3,1.09,1.09,0,0,1,.26,0l.21,0Z"/><path class="cls-8" d="M116.82,225a.83.83,0,0,0-.32-.67,3,3,0,0,0-1.19-.46,4.77,4.77,0,0,1-1.86-.73,1.45,1.45,0,0,1-.65-1.25,1.84,1.84,0,0,1,.71-1.44,3.13,3.13,0,0,1,3.74,0,1.81,1.81,0,0,1,.7,1.48l0,0h-1.19a1.08,1.08,0,0,0-.39-.81,1.4,1.4,0,0,0-1-.36,1.39,1.39,0,0,0-1,.3.92.92,0,0,0-.33.71.75.75,0,0,0,.28.63,3.29,3.29,0,0,0,1.17.4,4.83,4.83,0,0,1,1.91.76,1.51,1.51,0,0,1,.66,1.27,1.84,1.84,0,0,1-.74,1.5,3.11,3.11,0,0,1-1.94.57,3.06,3.06,0,0,1-2.07-.66,1.91,1.91,0,0,1-.71-1.56v0h1.19a1.16,1.16,0,0,0,.5,1,2,2,0,0,0,1.08.31,1.7,1.7,0,0,0,1-.29A.87.87,0,0,0,116.82,225Z"/><g id="Group"><g id="Group-2"><path id="Shape-2" data-name="Shape" class="cls-14" d="M93,267l-.66,2.24a.32.32,0,0,0,.22.4.31.31,0,0,0,.29-.06l1.69-1.35,1.69,1.35a.32.32,0,0,0,.45-.05.31.31,0,0,0,.06-.29L96.1,267l1.73-1.36a.33.33,0,0,0,0-.46.3.3,0,0,0-.25-.12h-2.1l-.65-2.21a.32.32,0,0,0-.32-.23h0a.32.32,0,0,0-.3.23L93.61,265h-2.1a.32.32,0,0,0-.32.32.3.3,0,0,0,.12.25Zm.82-1.29a.32.32,0,0,0,.31-.23l.41-1.39.4,1.39a.33.33,0,0,0,.32.23h1.4l-1.16.92a.33.33,0,0,0-.11.35l.43,1.45-1.08-.87a.33.33,0,0,0-.4,0l-1.09.87.43-1.45a.31.31,0,0,0-.11-.35l-1.16-.92Z"/><path id="Shape-3" data-name="Shape" class="cls-14" d="M82.3,270.13l-.66,2.23a.33.33,0,0,0,.21.41.32.32,0,0,0,.3-.06l1.68-1.35,1.69,1.35a.33.33,0,0,0,.46,0,.32.32,0,0,0,.06-.3l-.67-2.23,1.73-1.37a.32.32,0,0,0-.2-.57H84.79L84.14,266a.32.32,0,0,0-.31-.23h0a.32.32,0,0,0-.31.23l-.65,2.21H80.78a.32.32,0,0,0-.33.32.31.31,0,0,0,.13.25Zm.82-1.29a.33.33,0,0,0,.31-.23l.4-1.39.41,1.39a.33.33,0,0,0,.31.23H86l-1.16.92a.31.31,0,0,0-.11.35l.43,1.45L84,270.69a.35.35,0,0,0-.41,0l-1.08.87.43-1.45a.33.33,0,0,0-.11-.35l-1.16-.92Z"/><path id="Shape-4" data-name="Shape" class="cls-14" d="M103.76,270.13l-.66,2.23a.33.33,0,0,0,.22.41.31.31,0,0,0,.29-.06l1.69-1.35,1.69,1.35a.33.33,0,0,0,.46,0,.35.35,0,0,0,0-.3l-.66-2.23,1.72-1.37a.32.32,0,0,0,.06-.45.34.34,0,0,0-.26-.12h-2.1l-.65-2.21a.32.32,0,0,0-.31-.23h0a.31.31,0,0,0-.31.23l-.65,2.21h-2.09a.32.32,0,0,0-.33.32.33.33,0,0,0,.12.25Zm.82-1.29a.32.32,0,0,0,.31-.23l.41-1.39.41,1.39a.33.33,0,0,0,.31.23h1.41l-1.17.92a.35.35,0,0,0-.11.35l.44,1.45-1.09-.87a.33.33,0,0,0-.4,0l-1.08.87.43-1.45a.35.35,0,0,0-.11-.35l-1.16-.92Z"/></g><path id="Shape-5" data-name="Shape" class="cls-15" d="M74.29,306.72h8a.29.29,0,0,0,.29-.29v-8H93.88v8a.31.31,0,0,0,.29.3.29.29,0,0,0,.29-.29h0v-8h11.33v8a.29.29,0,0,0,.29.29h8a.29.29,0,0,0,.29-.29v-31.6a.29.29,0,0,0-.29-.29H74.29a.29.29,0,0,0-.29.29v31.6A.29.29,0,0,0,74.29,306.72Zm.29-31.6h39.18v31h-7.39v-8a.29.29,0,0,0-.29-.29H82.26a.29.29,0,0,0-.29.29v8H74.58v-31Z"/><path id="Shape-6" data-name="Shape" class="cls-15" d="M104.29,293.54H110a.29.29,0,0,0,.29-.29v-5A.29.29,0,0,0,110,288h-5.72a.29.29,0,0,0-.29.29v5A.29.29,0,0,0,104.29,293.54Zm.29-5h5.14V293h-5.14Z"/><path id="Shape-7" data-name="Shape" class="cls-15" d="M95.68,293.54h5.72a.29.29,0,0,0,.29-.29v-5a.29.29,0,0,0-.29-.29H95.68a.29.29,0,0,0-.29.29v5A.29.29,0,0,0,95.68,293.54Zm.29-5h5.15V293H96Z"/><path id="Shape-8" data-name="Shape" class="cls-15" d="M87,293.54h5.72a.29.29,0,0,0,.29-.29v-5a.29.29,0,0,0-.29-.29H87a.29.29,0,0,0-.29.29v5A.29.29,0,0,0,87,293.54Zm.29-5h5.14V293H87.33Z"/><path id="Shape-9" data-name="Shape" class="cls-15" d="M84.41,293.25v-5a.29.29,0,0,0-.29-.29H78.4a.29.29,0,0,0-.29.29v5a.29.29,0,0,0,.29.29h5.72A.29.29,0,0,0,84.41,293.25Zm-.58-.29H78.69v-4.42h5.14Z"/><path id="Shape-10" data-name="Shape" class="cls-15" d="M104.29,283.63H110a.29.29,0,0,0,.29-.29v-5a.29.29,0,0,0-.29-.29h-5.72a.29.29,0,0,0-.29.29v5A.29.29,0,0,0,104.29,283.63Zm.29-5h5.14v4.41h-5.14Z"/><path id="Shape-11" data-name="Shape" class="cls-15" d="M95.68,283.63h5.72a.29.29,0,0,0,.29-.29v-5a.29.29,0,0,0-.29-.29H95.68a.29.29,0,0,0-.29.29v5A.29.29,0,0,0,95.68,283.63Zm.29-5h5.15v4.41H96Z"/><path id="Shape-12" data-name="Shape" class="cls-15" d="M87,283.63h5.72a.29.29,0,0,0,.29-.29v-5a.29.29,0,0,0-.29-.29H87a.29.29,0,0,0-.29.29v5A.29.29,0,0,0,87,283.63Zm.29-5h5.14v4.41H87.33Z"/><path id="Shape-13" data-name="Shape" class="cls-15" d="M78.4,283.63h5.72a.29.29,0,0,0,.29-.29v-5a.29.29,0,0,0-.29-.29H78.4a.29.29,0,0,0-.29.29v5A.29.29,0,0,0,78.4,283.63Zm.29-5h5.14v4.41H78.69v-4.41Z"/></g><path class="cls-8" d="M72.1,431.82H70.85v-9.24H72.1Z"/><path class="cls-8" d="M75.34,425l.09,1a2.47,2.47,0,0,1,.86-.84,2.21,2.21,0,0,1,1.18-.31,2.26,2.26,0,0,1,1.72.65,2.91,2.91,0,0,1,.61,2v4.34H78.55v-4.31a1.84,1.84,0,0,0-.36-1.29,1.47,1.47,0,0,0-1.1-.38,2,2,0,0,0-1,.23,1.74,1.74,0,0,0-.64.65v5.1H74.22V425Z"/><path class="cls-8" d="M81.33,428.51a4.6,4.6,0,0,1,.7-2.67,2.3,2.3,0,0,1,2-1,2.44,2.44,0,0,1,1.07.23,2.11,2.11,0,0,1,.79.64v-3.77h1.25v9.9h-.95L86,431a2.31,2.31,0,0,1-.84.75A2.47,2.47,0,0,1,84,432a2.34,2.34,0,0,1-2-.91,3.74,3.74,0,0,1-.71-2.39Zm1.25.14a2.94,2.94,0,0,0,.42,1.66,1.5,1.5,0,0,0,1.32.63,1.65,1.65,0,0,0,.94-.26,1.8,1.8,0,0,0,.62-.71v-3.2a1.94,1.94,0,0,0-.62-.68,1.66,1.66,0,0,0-.93-.25,1.44,1.44,0,0,0-1.33.74,3.91,3.91,0,0,0-.42,1.93Z"/><path class="cls-8" d="M93.36,430.8a2.19,2.19,0,0,1-.83.85,2.5,2.5,0,0,1-2.93-.41A3.35,3.35,0,0,1,89,429V425h1.25V429a2.5,2.5,0,0,0,.32,1.51,1.2,1.2,0,0,0,1,.42,2.06,2.06,0,0,0,1.1-.27,1.72,1.72,0,0,0,.66-.77V425h1.25v6.87H93.44Z"/><path class="cls-8" d="M100.38,430a.82.82,0,0,0-.31-.67,3.09,3.09,0,0,0-1.19-.46,4.89,4.89,0,0,1-1.87-.73,1.47,1.47,0,0,1-.65-1.25,1.82,1.82,0,0,1,.72-1.44,3.13,3.13,0,0,1,3.74,0,1.83,1.83,0,0,1,.69,1.48v0h-1.19a1.08,1.08,0,0,0-.39-.81,1.4,1.4,0,0,0-1-.36,1.43,1.43,0,0,0-1,.3.91.91,0,0,0-.33.71.76.76,0,0,0,.29.63,3.14,3.14,0,0,0,1.16.4,5,5,0,0,1,1.92.76,1.52,1.52,0,0,1,.65,1.27,1.81,1.81,0,0,1-.74,1.5,3.56,3.56,0,0,1-4-.09,2,2,0,0,1-.72-1.56l0,0h1.19a1.18,1.18,0,0,0,.49,1A2,2,0,0,0,99,431a1.69,1.69,0,0,0,1-.28A.85.85,0,0,0,100.38,430Z"/><path class="cls-8" d="M104.93,423.29V425h1.3v.93h-1.3v4.17a.91.91,0,0,0,.2.68.72.72,0,0,0,.53.19,1.06,1.06,0,0,0,.24,0l.22-.06.17.85a1,1,0,0,1-.41.19,2,2,0,0,1-.54.07,1.6,1.6,0,0,1-1.21-.46,2,2,0,0,1-.45-1.44v-4.17h-1.1V425h1.1v-1.66Z"/><path class="cls-8" d="M110.82,426.06l-.64,0a1.51,1.51,0,0,0-.84.23,1.57,1.57,0,0,0-.52.66v4.91h-1.25V425h1.11l.13,1a2.35,2.35,0,0,1,.72-.83,1.65,1.65,0,0,1,1-.3,1.18,1.18,0,0,1,.27,0l.21,0Z"/><path class="cls-8" d="M114.33,429.27l.23.87h0l1.69-5.19h1.39l-2.89,7.92a3.55,3.55,0,0,1-.74,1.21,1.73,1.73,0,0,1-1.31.51l-.39,0a2.86,2.86,0,0,1-.36-.07l.13-1h.22l.33,0a.78.78,0,0,0,.66-.36,3.43,3.43,0,0,0,.42-.78l.3-.72L111.49,425h1.4Z"/><path class="cls-8" d="M71.12,443.71v3.71H69.87v-9.24H73.4a3.27,3.27,0,0,1,2.31.76,2.87,2.87,0,0,1,0,4,3.31,3.31,0,0,1-2.31.75Zm0-1H73.4A1.67,1.67,0,0,0,75.27,441a1.84,1.84,0,0,0-.47-1.28,1.76,1.76,0,0,0-1.4-.52H71.12Z"/><path class="cls-8" d="M82.11,447.42l-.1-.55c0-.16,0-.32,0-.48a2.81,2.81,0,0,1-.91.83,2.32,2.32,0,0,1-1.21.33,2.22,2.22,0,0,1-1.63-.55,2,2,0,0,1-.56-1.51,1.77,1.77,0,0,1,.79-1.54,3.75,3.75,0,0,1,2.17-.56H82v-.67a1.28,1.28,0,0,0-.36-1,1.5,1.5,0,0,0-1-.35,1.53,1.53,0,0,0-1,.3.92.92,0,0,0-.37.73l-1.19,0v0a1.63,1.63,0,0,1,.7-1.37,2.88,2.88,0,0,1,1.92-.63,2.81,2.81,0,0,1,1.88.6,2.07,2.07,0,0,1,.71,1.71V446c0,.24,0,.48,0,.71a4,4,0,0,0,.14.67ZM80,446.51a2.23,2.23,0,0,0,1.22-.35,1.66,1.66,0,0,0,.71-.8v-1.12h-1.4a1.84,1.84,0,0,0-1.21.38,1.14,1.14,0,0,0-.45.9.94.94,0,0,0,.28.72A1.2,1.2,0,0,0,80,446.51Z"/><path class="cls-8" d="M88.29,441.66l-.64,0a1.51,1.51,0,0,0-.84.23,1.57,1.57,0,0,0-.52.66v4.91H85v-6.87h1.12l.12,1a2.35,2.35,0,0,1,.72-.83,1.65,1.65,0,0,1,1-.3,1.12,1.12,0,0,1,.27,0l.21,0Z"/><path class="cls-8" d="M91.44,438.89v1.66h1.3v.93h-1.3v4.17a.91.91,0,0,0,.2.68.72.72,0,0,0,.53.19,1.06,1.06,0,0,0,.24,0l.22-.06.17.85a1,1,0,0,1-.41.19,2,2,0,0,1-.54.07,1.6,1.6,0,0,1-1.21-.46,2,2,0,0,1-.45-1.44v-4.17H89.1v-.93h1.09v-1.66Z"/><path class="cls-8" d="M95.2,440.55l.08,1a2.55,2.55,0,0,1,.86-.84,2.33,2.33,0,0,1,1.18-.31,2.25,2.25,0,0,1,1.72.65,2.86,2.86,0,0,1,.61,2v4.34H98.4v-4.31a1.84,1.84,0,0,0-.36-1.29,1.44,1.44,0,0,0-1.09-.38,2,2,0,0,0-1,.23,1.74,1.74,0,0,0-.64.65v5.1H94.08v-6.87Z"/><path class="cls-8" d="M104.31,447.55a2.93,2.93,0,0,1-2.31-.94,3.65,3.65,0,0,1-.82-2.49v-.28a3.57,3.57,0,0,1,.85-2.45,2.69,2.69,0,0,1,2.08-1,2.5,2.5,0,0,1,2.07.86,3.52,3.52,0,0,1,.69,2.28v.66h-4.39l0,0a2.88,2.88,0,0,0,.45,1.68,1.61,1.61,0,0,0,1.4.65,2.9,2.9,0,0,0,1.11-.19,2.53,2.53,0,0,0,.83-.49l.49.81a2.92,2.92,0,0,1-1,.6A3.89,3.89,0,0,1,104.31,447.55Zm-.2-6.14a1.38,1.38,0,0,0-1.08.5,2.42,2.42,0,0,0-.52,1.3v0h3.1v-.11a1.94,1.94,0,0,0-.37-1.23A1.32,1.32,0,0,0,104.11,441.41Z"/><path class="cls-8" d="M111.52,441.66l-.64,0a1.45,1.45,0,0,0-.83.23,1.59,1.59,0,0,0-.53.66v4.91h-1.25v-6.87h1.12l.12,1a2.35,2.35,0,0,1,.72-.83,1.68,1.68,0,0,1,1-.3,1.09,1.09,0,0,1,.26,0l.21,0Z"/><path class="cls-8" d="M116.82,445.57a.83.83,0,0,0-.32-.67,3,3,0,0,0-1.19-.46,4.77,4.77,0,0,1-1.86-.73,1.45,1.45,0,0,1-.65-1.25,1.84,1.84,0,0,1,.71-1.44,3.13,3.13,0,0,1,3.74,0,1.8,1.8,0,0,1,.7,1.48l0,0h-1.19a1.08,1.08,0,0,0-.39-.81,1.4,1.4,0,0,0-1-.36,1.39,1.39,0,0,0-1,.3.92.92,0,0,0-.33.71.75.75,0,0,0,.28.63,3.29,3.29,0,0,0,1.17.4,4.83,4.83,0,0,1,1.91.76,1.51,1.51,0,0,1,.66,1.27,1.81,1.81,0,0,1-.74,1.49,3.56,3.56,0,0,1-4-.08,1.91,1.91,0,0,1-.71-1.56v0h1.19a1.16,1.16,0,0,0,.5,1,2,2,0,0,0,1.08.31,1.7,1.7,0,0,0,1-.29A.87.87,0,0,0,116.82,445.57Z"/><polygon id="api_polygon" data-name="api polygon" class="cls-16" points="496 466.82 521.66 511.54 572.98 511.54 599 466.82 573.34 421.95 521.91 421.95 496 466.82"/><g id="Group-4"><g id="Group-8"><g id="Group-10"><g id="Page-1"><polygon id="Fill-1" class="cls-17" points="523.88 458.78 524.54 459.16 517.22 471.84 516.57 471.46 523.88 458.78"/><polygon id="Fill-2" class="cls-17" points="515.78 470.52 515.78 471.28 530.42 471.28 530.42 470.52 515.78 470.52"/><polygon id="Fill-3" class="cls-17" points="516.57 470.4 523.89 474.63 524.27 473.97 516.95 469.74 516.57 470.4"/><polygon id="Fill-4" class="cls-17" points="522.83 459.44 530.15 463.67 530.53 463.01 523.21 458.78 522.83 459.44"/><polygon id="Fill-5" class="cls-17" points="516.57 463.01 516.95 463.67 524.27 459.44 523.89 458.78 516.57 463.01"/><polygon id="Fill-6" class="cls-17" points="522.83 459.16 530.15 471.84 530.8 471.46 523.48 458.78 522.83 459.16"/><polygon id="Fill-7" class="cls-17" points="516.57 462.7 516.57 471.15 517.33 471.15 517.33 462.7 516.57 462.7"/><polygon id="Fill-8" class="cls-17" points="529.09 471.15 529.85 471.15 529.85 462.7 529.09 462.7 529.09 471.15"/><polygon id="Fill-9" class="cls-17" points="522.83 474.2 523.16 474.77 529.53 471.09 529.2 470.52 522.83 474.2"/><g id="Group-22"><path id="Fill-10" class="cls-17" d="M530.75,471.43a1.59,1.59,0,1,1-.58-2.17,1.59,1.59,0,0,1,.58,2.17"/><path id="Fill-12" class="cls-17" d="M518,464.08a1.59,1.59,0,1,1-.58-2.18,1.6,1.6,0,0,1,.58,2.18"/><path id="Fill-14" class="cls-17" d="M515.25,471.43a1.59,1.59,0,1,1,2.18.59,1.59,1.59,0,0,1-2.18-.59"/><path id="Fill-16" class="cls-17" d="M528,464.08a1.59,1.59,0,1,1,2.18.58,1.6,1.6,0,0,1-2.18-.58"/><path id="Fill-18" class="cls-17" d="M523,475.91a1.6,1.6,0,1,1,1.59-1.6,1.59,1.59,0,0,1-1.59,1.6"/><path id="Fill-20" class="cls-17" d="M523,461.2a1.6,1.6,0,1,1,1.59-1.59A1.59,1.59,0,0,1,523,461.2"/></g></g><path class="cls-8" d="M541.73,469.58a3,3,0,0,1-1.14.94,4.52,4.52,0,0,1-2.12.43,3.56,3.56,0,0,1-2.65-1.06,3.71,3.71,0,0,1-1-2.74v-1.9a3.85,3.85,0,0,1,1-2.75,3.49,3.49,0,0,1,2.61-1.06,3.43,3.43,0,0,1,2.43.83,2.6,2.6,0,0,1,.87,2.09v0h-1.2a1.94,1.94,0,0,0-.54-1.41,2.32,2.32,0,0,0-3.26.23,3.09,3.09,0,0,0-.65,2v1.92a3,3,0,0,0,.69,2,2.19,2.19,0,0,0,1.75.79,3.29,3.29,0,0,0,1.3-.21,1.82,1.82,0,0,0,.71-.5v-2.08h-2.09v-1h3.34Z"/><path class="cls-8" d="M547,465.06l-.64,0a1.51,1.51,0,0,0-.84.23,1.57,1.57,0,0,0-.52.66v4.91h-1.25V464h1.12l.12,1a2.35,2.35,0,0,1,.72-.83,1.65,1.65,0,0,1,1-.3,1.12,1.12,0,0,1,.27,0l.21,0Z"/><path class="cls-8" d="M552.49,470.82l-.1-.55c0-.16,0-.32,0-.48a2.81,2.81,0,0,1-.91.83,2.34,2.34,0,0,1-1.21.33,2.22,2.22,0,0,1-1.63-.55,2,2,0,0,1-.56-1.51,1.77,1.77,0,0,1,.79-1.54,3.71,3.71,0,0,1,2.16-.56h1.36v-.67a1.25,1.25,0,0,0-.37-1,1.45,1.45,0,0,0-1-.35,1.53,1.53,0,0,0-1,.3.93.93,0,0,0-.38.73l-1.18,0,0,0a1.64,1.64,0,0,1,.71-1.37,2.86,2.86,0,0,1,1.92-.63,2.81,2.81,0,0,1,1.88.6,2.07,2.07,0,0,1,.71,1.71v3.31c0,.24,0,.48,0,.71a3.8,3.8,0,0,0,.14.67Zm-2.07-.91a2.23,2.23,0,0,0,1.22-.35,1.71,1.71,0,0,0,.71-.8v-1.12H551a1.84,1.84,0,0,0-1.21.38,1.14,1.14,0,0,0-.45.9.94.94,0,0,0,.28.72A1.19,1.19,0,0,0,550.42,469.91Z"/><path class="cls-8" d="M561.27,467.65a3.8,3.8,0,0,1-.71,2.39,2.35,2.35,0,0,1-2,.91,2.76,2.76,0,0,1-1.12-.21,2,2,0,0,1-.81-.64v3.36h-1.25V464h1l.19.89a2.43,2.43,0,0,1,.84-.76,2.55,2.55,0,0,1,1.17-.26,2.27,2.27,0,0,1,2,1,4.56,4.56,0,0,1,.71,2.67Zm-1.25-.14a3.59,3.59,0,0,0-.46-1.92,1.5,1.5,0,0,0-1.36-.75,1.7,1.7,0,0,0-.92.24,2,2,0,0,0-.61.67v3.32a1.8,1.8,0,0,0,.61.67,1.75,1.75,0,0,0,.94.23,1.51,1.51,0,0,0,1.34-.65,2.79,2.79,0,0,0,.46-1.67Z"/><path class="cls-8" d="M564.06,464.87a2.38,2.38,0,0,1,.87-.77,2.44,2.44,0,0,1,1.15-.28,2.22,2.22,0,0,1,1.71.66,3,3,0,0,1,.61,2v4.3h-1.25V466.5a1.8,1.8,0,0,0-.37-1.25,1.35,1.35,0,0,0-1.09-.41,2,2,0,0,0-1,.22,1.84,1.84,0,0,0-.66.61v5.15h-1.25v-9.9h1.25Z"/><path class="cls-8" d="M577.42,467a4.43,4.43,0,0,1-.21,1.38,3.81,3.81,0,0,1-.6,1.17l1.37,1.34-.85.82-1.41-1.35a3.68,3.68,0,0,1-1,.43,4.3,4.3,0,0,1-1.1.14,3.39,3.39,0,0,1-2.63-1.11,4,4,0,0,1-1-2.82v-1.64a4,4,0,0,1,1-2.81,3.37,3.37,0,0,1,2.63-1.13,3.57,3.57,0,0,1,2.72,1.12,3.93,3.93,0,0,1,1,2.82Zm-1.25-1.65a3.08,3.08,0,0,0-.68-2.08,2.27,2.27,0,0,0-1.84-.82,2.09,2.09,0,0,0-1.74.82,3.18,3.18,0,0,0-.66,2.08V467a3.22,3.22,0,0,0,.66,2.1,2.11,2.11,0,0,0,1.74.81,2.28,2.28,0,0,0,1.84-.81,3.12,3.12,0,0,0,.68-2.1Z"/><path class="cls-8" d="M580.67,469.84h4.51v1h-5.76v-9.24h1.25Z"/></g></g></g><path id="line5-12" data-name="line5" class="cls-2" d="M197.5,185.5h-56v1.9l-3.5-1.9,3.5-1.9v1.9h56"/><path id="line5-13" data-name="line5" class="cls-2" d="M197.5,400.5h-56v1.9l-3.5-1.9,3.5-1.9v1.9h56"/><line class="cls-2" x1="197.5" y1="185.5" x2="197.5" y2="400.5"/><g id="Page-1-2" data-name="Page-1"><g id="Mask-3" data-name="Mask"><polyline id="path-1-3" data-name="path-1" class="cls-1" points="206.04 289.3 222.53 260.57 255.51 260.57 272 289.3 255.51 318.02 222.53 318.02 206.04 289.3"/></g><g id="Artboard"><g id="insights"><g id="Mask-4" data-name="Mask"><polyline id="path-1-4" data-name="path-1" class="cls-18" points="206.04 289.3 222.53 260.57 255.51 260.57 272 289.3 255.51 318.02 222.53 318.02 206.04 289.3"/></g><g class="cls-19"><g id="noun_718836_cc" data-name="noun 718836 cc"><g id="Group-123"><g id="noun_1054968_cc" data-name="noun 1054968 cc"><g id="Group-2-2" data-name="Group"><path id="Shape-14" data-name="Shape" class="cls-20" d="M252.27,284.16a14.73,14.73,0,0,1-8,13.49,2.42,2.42,0,0,0-1.32,1.87l-.66,5.2A1.43,1.43,0,0,1,240.8,306h-6.13a1.43,1.43,0,0,1-1.45-1.27l-.66-5.2a2.29,2.29,0,0,0-1.32-1.87,14.79,14.79,0,0,1-8-13.16,14.52,14.52,0,0,1,15.16-14.62A14.68,14.68,0,0,1,252.27,284.16ZM240,302.45l-4.42.54Zm0-2.6-4.42.53Zm-4.15-4.54.46-11.09a2.2,2.2,0,0,0-3.1-2.2,2,2,0,0,0-1,1.94c0,2.33,6,3.54,9.49,4.07,1.52.2,2.44-1.94,1.06-2.74a1.92,1.92,0,0,0-.92-.26c-1.45,0-2.38,4.34-2.84,7.27Zm1.71-28.45v0Zm14.83,6.61,2.91-2.93Zm2.44,12.76,4,.33Zm-38.56.33,4-.33Zm6.46-13.09-2.9-2.93Z"/></g></g><g id="Group-120"><polygon id="Path-2" class="cls-21" points="234.76 296.94 234.76 319.95 256.94 319.95 263.33 314.11 263.33 291.1 243.03 291.1 234.76 296.94"/><g id="Group-37"><polygon id="Shape-15" data-name="Shape" class="cls-1" points="243.26 293.9 259.49 293.9 259.49 313.4 261.05 313.4 261.05 292.76 243.26 292.76 243.26 293.9"/><polygon id="Shape-16" data-name="Shape" class="cls-1" points="240.15 296.2 256.38 296.2 256.38 315.69 257.94 315.69 257.94 295.05 240.15 295.05 240.15 296.2"/><path id="Shape-17" data-name="Shape" class="cls-1" d="M237,318h17.79V297.34H237Zm3.81-15.5H250v.72h-9.17Zm0,3.21h7.07v.73h-7.07Zm0,3.22h7.07v.72h-7.07Zm0,3.21H250v.73h-9.17Z"/></g></g></g></g></g></g></g></g><path class="cls-8" d="M212.56,345.82H211.3v-9.24h1.26Z"/><path class="cls-8" d="M215.79,339l.09,1a2.55,2.55,0,0,1,.86-.84,2.52,2.52,0,0,1,2.9.34,2.86,2.86,0,0,1,.61,2v4.34H219v-4.31a1.84,1.84,0,0,0-.36-1.29,1.44,1.44,0,0,0-1.09-.38,2,2,0,0,0-1,.23,1.67,1.67,0,0,0-.64.65v5.1h-1.25V339Z"/><path class="cls-8" d="M226.06,344a.83.83,0,0,0-.32-.67,3,3,0,0,0-1.19-.46,4.91,4.91,0,0,1-1.86-.73,1.47,1.47,0,0,1-.65-1.25,1.82,1.82,0,0,1,.72-1.44,2.76,2.76,0,0,1,1.85-.6,2.81,2.81,0,0,1,1.89.64,1.83,1.83,0,0,1,.69,1.48v0H226a1.08,1.08,0,0,0-.39-.81,1.39,1.39,0,0,0-1-.36,1.43,1.43,0,0,0-1,.3.91.91,0,0,0-.33.71.78.78,0,0,0,.28.63,3.29,3.29,0,0,0,1.17.4,5,5,0,0,1,1.92.76,1.52,1.52,0,0,1,.65,1.27,1.84,1.84,0,0,1-.74,1.5,3.08,3.08,0,0,1-1.93.57,3,3,0,0,1-2.07-.66,1.92,1.92,0,0,1-.72-1.56v0h1.2a1.16,1.16,0,0,0,.49,1,2,2,0,0,0,1.09.3,1.69,1.69,0,0,0,1-.28A.87.87,0,0,0,226.06,344Z"/><path class="cls-8" d="M230.22,337.19H229v-1.27h1.25Zm0,8.63H229V339h1.25Z"/><path class="cls-8" d="M231.92,342.51a4.53,4.53,0,0,1,.71-2.67,2.26,2.26,0,0,1,2-1,2.35,2.35,0,0,1,1.15.27,2.23,2.23,0,0,1,.83.76l.16-.9h1v6.91a2.61,2.61,0,0,1-.77,2,3.15,3.15,0,0,1-2.21.7,4.66,4.66,0,0,1-1.07-.13,4.43,4.43,0,0,1-1-.37l.19-1a3.53,3.53,0,0,0,.87.31,4.42,4.42,0,0,0,1,.12,1.81,1.81,0,0,0,1.33-.42,1.74,1.74,0,0,0,.41-1.26v-.78a2.28,2.28,0,0,1-.8.65,2.53,2.53,0,0,1-1.09.22,2.33,2.33,0,0,1-2-.91,3.74,3.74,0,0,1-.71-2.39Zm1.25.14a2.94,2.94,0,0,0,.42,1.66,1.5,1.5,0,0,0,1.32.63,1.65,1.65,0,0,0,.94-.26,1.81,1.81,0,0,0,.63-.73v-3.16a1.91,1.91,0,0,0-.63-.69,1.64,1.64,0,0,0-.93-.26,1.42,1.42,0,0,0-1.32.74,3.8,3.8,0,0,0-.43,1.93Z"/><path class="cls-8" d="M240.78,339.87a2.55,2.55,0,0,1,.87-.77,2.47,2.47,0,0,1,1.15-.28,2.22,2.22,0,0,1,1.71.66,2.91,2.91,0,0,1,.61,2v4.3h-1.25V341.5a1.85,1.85,0,0,0-.36-1.25,1.38,1.38,0,0,0-1.09-.41,2,2,0,0,0-1,.22,1.79,1.79,0,0,0-.67.61v5.15h-1.25v-9.9h1.25Z"/><path class="cls-8" d="M248.66,337.29V339H250v.93h-1.3v4.17a.91.91,0,0,0,.2.68.72.72,0,0,0,.53.19,1.06,1.06,0,0,0,.24,0l.22-.06.17.85a1,1,0,0,1-.41.19,2,2,0,0,1-.54.07,1.6,1.6,0,0,1-1.21-.46,2,2,0,0,1-.45-1.44v-4.17h-1.1V339h1.1v-1.66Z"/><path class="cls-8" d="M255.29,344a.82.82,0,0,0-.31-.67,3.09,3.09,0,0,0-1.19-.46,4.89,4.89,0,0,1-1.87-.73,1.47,1.47,0,0,1-.65-1.25,1.82,1.82,0,0,1,.72-1.44,3.13,3.13,0,0,1,3.74,0,1.83,1.83,0,0,1,.69,1.48v0h-1.2a1.08,1.08,0,0,0-.39-.81,1.39,1.39,0,0,0-1-.36,1.43,1.43,0,0,0-1,.3.91.91,0,0,0-.33.71.78.78,0,0,0,.28.63,3.29,3.29,0,0,0,1.17.4,5,5,0,0,1,1.92.76,1.52,1.52,0,0,1,.65,1.27,1.84,1.84,0,0,1-.74,1.5,3.08,3.08,0,0,1-1.93.57,3,3,0,0,1-2.07-.66,2,2,0,0,1-.72-1.56v0h1.2a1.16,1.16,0,0,0,.49,1,2,2,0,0,0,1.09.3,1.69,1.69,0,0,0,1-.28A.87.87,0,0,0,255.29,344Z"/><path class="cls-8" d="M261.31,340.18l2.16-3.6H265l-2.93,4.58,3,4.66h-1.5l-2.21-3.67-2.22,3.67h-1.51l3-4.66-2.93-4.58h1.5Z"/><g id="Page-1-3" data-name="Page-1"><g id="Artboard-2" data-name="Artboard"><g id="hotelX"><g id="Mask-5" data-name="Mask"><polyline id="path-1-5" data-name="path-1" class="cls-22" points="723.99 128.01 740.64 99.03 773.92 99.05 790.54 128.04 773.89 157.01 740.62 157 723.99 128.01"/></g><g class="cls-23"><g id="Group-147"><g id="Group-3" data-name="Group"><g id="Group-118"><polygon id="Shape-18" data-name="Shape" class="cls-1" points="761.38 115.92 764.1 113.28 760.34 112.73 758.66 109.35 756.98 112.73 753.23 113.28 755.94 115.92 755.3 119.64 758.66 117.88 762.02 119.64 761.38 115.92"/></g><g id="Group-118-2" data-name="Group-118"><polygon id="Shape-19" data-name="Shape" class="cls-1" points="775 115.75 777.72 113.11 773.96 112.57 772.28 109.18 770.6 112.57 766.85 113.11 769.57 115.75 768.92 119.47 772.28 117.72 775.64 119.47 775 115.75"/></g></g><path id="Shape-20" data-name="Shape" class="cls-1" d="M817.28,124.76H751.64a2.75,2.75,0,0,0-2.73,2.78v33.33a2.75,2.75,0,0,0,2.73,2.78l65.64,0a2.75,2.75,0,0,0,2.73-2.77l0-33.34A2.76,2.76,0,0,0,817.28,124.76Zm-52,30.53a2.76,2.76,0,0,1-2.74,2.78H757.1a2.76,2.76,0,0,1-2.73-2.78v-5.56a2.75,2.75,0,0,1,2.74-2.77h5.47a2.75,2.75,0,0,1,2.73,2.78Zm0-16.66a2.75,2.75,0,0,1-2.73,2.77h-5.47a2.76,2.76,0,0,1-2.74-2.78v-5.55a2.75,2.75,0,0,1,2.73-2.78h5.47a2.76,2.76,0,0,1,2.74,2.78Zm16.41,16.67a2.75,2.75,0,0,1-2.74,2.77h-5.47a2.75,2.75,0,0,1-2.73-2.78v-5.55a2.75,2.75,0,0,1,2.74-2.78H779a2.76,2.76,0,0,1,2.74,2.78Zm0-16.67a2.75,2.75,0,0,1-2.73,2.78h-5.47a2.76,2.76,0,0,1-2.74-2.78v-5.56a2.76,2.76,0,0,1,2.73-2.78H779a2.74,2.74,0,0,1,2.73,2.78Zm16.41,16.67a2.76,2.76,0,0,1-2.74,2.78h-5.47a2.75,2.75,0,0,1-2.73-2.78v-5.56a2.75,2.75,0,0,1,2.73-2.77h5.47a2.75,2.75,0,0,1,2.74,2.78Zm0-16.66a2.75,2.75,0,0,1-2.73,2.77h-5.47a2.75,2.75,0,0,1-2.74-2.78v-5.55a2.77,2.77,0,0,1,2.74-2.78h5.47a2.76,2.76,0,0,1,2.73,2.78Zm16.41,16.67a2.76,2.76,0,0,1-2.74,2.78h-5.47a2.75,2.75,0,0,1-2.73-2.77v-5.56a2.75,2.75,0,0,1,2.73-2.78h5.47a2.75,2.75,0,0,1,2.74,2.77Zm0-16.67a2.75,2.75,0,0,1-2.73,2.78h-5.47a2.75,2.75,0,0,1-2.74-2.78v-5.56a2.76,2.76,0,0,1,2.74-2.77h5.47a2.75,2.75,0,0,1,2.73,2.78Z"/></g></g></g></g></g><path class="cls-8" d="M745.21,187.82H744v-4.08h-4.49v4.08h-1.25v-9.24h1.25v4.17H744v-4.17h1.25Z"/><path class="cls-8" d="M746.91,184.32a3.79,3.79,0,0,1,.82-2.51,2.77,2.77,0,0,1,2.24-1,2.81,2.81,0,0,1,2.26,1,3.76,3.76,0,0,1,.83,2.51v.14a3.79,3.79,0,0,1-.83,2.52,3.08,3.08,0,0,1-4.5,0,3.76,3.76,0,0,1-.82-2.51Zm1.25.14a3.21,3.21,0,0,0,.46,1.8,1.64,1.64,0,0,0,2.72,0,3.21,3.21,0,0,0,.47-1.8v-.14a3.2,3.2,0,0,0-.47-1.79,1.53,1.53,0,0,0-1.37-.72,1.49,1.49,0,0,0-1.35.72,3.2,3.2,0,0,0-.46,1.79Z"/><path class="cls-8" d="M756.33,179.29V181h1.3v.93h-1.3v4.17a1,1,0,0,0,.19.68.73.73,0,0,0,.53.19,1.1,1.1,0,0,0,.25,0l.22-.06.17.85a1,1,0,0,1-.41.19,2.05,2.05,0,0,1-.54.07,1.6,1.6,0,0,1-1.21-.46,2,2,0,0,1-.46-1.44v-4.17H754V181h1.09v-1.66Z"/><path class="cls-8" d="M761.81,188a2.9,2.9,0,0,1-2.31-.94,3.65,3.65,0,0,1-.83-2.49v-.28a3.57,3.57,0,0,1,.86-2.45,2.69,2.69,0,0,1,2.08-1,2.5,2.5,0,0,1,2.07.86,3.52,3.52,0,0,1,.69,2.28v.66H760v0a2.88,2.88,0,0,0,.45,1.68,1.61,1.61,0,0,0,1.4.65,2.93,2.93,0,0,0,1.11-.19,2.53,2.53,0,0,0,.83-.49l.48.81a2.77,2.77,0,0,1-1,.6A3.89,3.89,0,0,1,761.81,188Zm-.2-6.14a1.38,1.38,0,0,0-1.08.5,2.35,2.35,0,0,0-.52,1.29v0h3.1v-.11a2,2,0,0,0-.37-1.23A1.32,1.32,0,0,0,761.61,181.81Z"/><path class="cls-8" d="M767.12,187.82h-1.25v-9.9h1.25Z"/><path class="cls-8" d="M772.26,182.18l2.16-3.6h1.51L773,183.16l3,4.66h-1.5l-2.21-3.67-2.22,3.67h-1.51l3-4.66-2.93-4.58h1.5Z"/><path id="Shape-21" data-name="Shape" class="cls-24" d="M645.76,126.8c0,3.48,8.8,6.32,19.62,6.32s19.6-2.83,19.62-6.31v-5c-4,3-11.85,4.34-19.62,4.34s-15.59-1.38-19.62-4.34Z"/><path id="Shape-22" data-name="Shape" class="cls-24" d="M685,129.06c-4,3-11.85,4.34-19.62,4.34s-15.59-1.37-19.62-4.34v5.74h0c1.08,3.16,9.52,5.62,19.62,5.62S683.91,138,685,134.8h0Z"/><path id="Shape-23" data-name="Shape" class="cls-24" d="M685,136.64c-4,3-11.85,4.34-19.62,4.34s-15.59-1.37-19.62-4.34v5.74h0c1.08,3.16,9.52,5.62,19.62,5.62s18.53-2.46,19.62-5.62h0Z"/><path id="Shape-24" data-name="Shape" class="cls-24" d="M645.76,119.5c0,3.48,8.8,6.32,19.62,6.32S685,123,685,119.51v-5.05c-4,3-11.85,4.34-19.62,4.34s-15.59-1.38-19.62-4.34Z"/><ellipse id="Oval-2" data-name="Oval" class="cls-24" cx="665.38" cy="112.2" rx="19.62" ry="6.32"/><path id="line5-14" data-name="line5" class="cls-2" d="M723.5,129.5h-23v1.9l-3.5-1.9,3.5-1.9v1.9h23"/><polygon id="api_polygon-2" data-name="api polygon" class="cls-25" points="341 218.82 366.66 263.54 417.98 263.54 444 218.82 418.34 173.95 366.92 173.95 341 218.82"/><path class="cls-8" d="M360.87,241.82v-9.24h2.9a3.79,3.79,0,0,1,4,4v1.26a3.79,3.79,0,0,1-4,4Zm1.25-8.26v7.28h1.65a2.54,2.54,0,0,0,2-.84,3.16,3.16,0,0,0,.74-2.17v-1.27a3.11,3.11,0,0,0-.74-2.15,2.52,2.52,0,0,0-2-.85Z"/><path class="cls-8" d="M373.72,241.82c0-.21-.08-.39-.1-.55a3.88,3.88,0,0,1,0-.48,2.91,2.91,0,0,1-.91.83,2.37,2.37,0,0,1-1.21.33,2.2,2.2,0,0,1-1.63-.55,2,2,0,0,1-.57-1.51,1.78,1.78,0,0,1,.8-1.54,3.71,3.71,0,0,1,2.16-.56h1.36v-.67a1.25,1.25,0,0,0-.37-1,1.45,1.45,0,0,0-1-.35,1.51,1.51,0,0,0-1,.3.93.93,0,0,0-.38.73l-1.18,0,0,0a1.65,1.65,0,0,1,.7-1.37,2.89,2.89,0,0,1,1.93-.63,2.81,2.81,0,0,1,1.88.6,2.1,2.1,0,0,1,.71,1.71v3.31a5.53,5.53,0,0,0,0,.71,3.07,3.07,0,0,0,.14.67Zm-2.08-.91a2.24,2.24,0,0,0,1.23-.35,1.71,1.71,0,0,0,.71-.8v-1.12h-1.4A1.83,1.83,0,0,0,371,239a1.15,1.15,0,0,0-.46.9,1,1,0,0,0,.29.72A1.18,1.18,0,0,0,371.64,240.91Z"/><path class="cls-8" d="M378.39,233.29V235h1.3v.93h-1.3v4.17a1,1,0,0,0,.19.68.76.76,0,0,0,.54.19,1.06,1.06,0,0,0,.24,0l.22-.06.17.85a1,1,0,0,1-.41.19,2,2,0,0,1-.54.07,1.6,1.6,0,0,1-1.21-.46,2,2,0,0,1-.46-1.44v-4.17H376V235h1.09v-1.66Z"/><path class="cls-8" d="M385.25,241.82a5,5,0,0,1-.1-.55,3.88,3.88,0,0,1,0-.48,3,3,0,0,1-.91.83A2.37,2.37,0,0,1,383,242a2.24,2.24,0,0,1-1.64-.55,2,2,0,0,1-.56-1.51,1.78,1.78,0,0,1,.8-1.54,3.71,3.71,0,0,1,2.16-.56h1.36v-.67a1.29,1.29,0,0,0-.37-1,1.47,1.47,0,0,0-1-.35,1.54,1.54,0,0,0-1,.3.92.92,0,0,0-.37.73l-1.19,0v0a1.63,1.63,0,0,1,.7-1.37,2.89,2.89,0,0,1,1.93-.63,2.83,2.83,0,0,1,1.88.6,2.1,2.1,0,0,1,.71,1.71v3.31a5.53,5.53,0,0,0,0,.71,3.07,3.07,0,0,0,.14.67Zm-2.08-.91a2.29,2.29,0,0,0,1.23-.35,1.71,1.71,0,0,0,.71-.8v-1.12H383.7a1.82,1.82,0,0,0-1.2.38,1.12,1.12,0,0,0-.46.9,1,1,0,0,0,.29.72A1.18,1.18,0,0,0,383.17,240.91Z"/><path class="cls-8" d="M393.27,239.49a1.38,1.38,0,0,0-.45-1.05,3.68,3.68,0,0,0-1.59-.73,5.18,5.18,0,0,1-2.2-1,2.17,2.17,0,0,1-.79-1.7,2.29,2.29,0,0,1,.85-1.81,3.33,3.33,0,0,1,2.21-.73,3.24,3.24,0,0,1,2.33.83,2.5,2.5,0,0,1,.84,1.94l0,0h-1.19a1.73,1.73,0,0,0-.55-1.3,2,2,0,0,0-1.41-.51,1.94,1.94,0,0,0-1.34.42,1.44,1.44,0,0,0-.47,1.11,1.23,1.23,0,0,0,.51,1,4.76,4.76,0,0,0,1.66.71,4.68,4.68,0,0,1,2.13,1.07,2.31,2.31,0,0,1,.73,1.74,2.14,2.14,0,0,1-.88,1.79,3.59,3.59,0,0,1-2.29.68,3.91,3.91,0,0,1-2.37-.75,2.28,2.28,0,0,1-1-2v0h1.2a1.54,1.54,0,0,0,.66,1.34,2.46,2.46,0,0,0,1.49.48,2.26,2.26,0,0,0,1.4-.4A1.3,1.3,0,0,0,393.27,239.49Z"/><path class="cls-8" d="M397.86,233.29V235h1.3v.93h-1.3v4.17a1,1,0,0,0,.2.68.72.72,0,0,0,.53.19,1.06,1.06,0,0,0,.24,0l.22-.06.17.85a1,1,0,0,1-.41.19,2,2,0,0,1-.54.07,1.6,1.6,0,0,1-1.21-.46,2,2,0,0,1-.45-1.44v-4.17h-1.09V235h1.09v-1.66Z"/><path class="cls-8" d="M404.86,240.8a2.19,2.19,0,0,1-.83.85,2.5,2.5,0,0,1-2.93-.41,3.35,3.35,0,0,1-.62-2.24V235h1.25V239a2.5,2.5,0,0,0,.32,1.51,1.2,1.2,0,0,0,1,.42,2.06,2.06,0,0,0,1.1-.27,1.72,1.72,0,0,0,.66-.77v-5h1.25v6.87h-1.13Z"/><path class="cls-8" d="M407.6,238.51a4.61,4.61,0,0,1,.71-2.67,2.27,2.27,0,0,1,2-1,2.41,2.41,0,0,1,1.07.23,2.07,2.07,0,0,1,.8.64v-3.77h1.25v9.9h-1l-.19-.87a2.2,2.2,0,0,1-.83.75,2.47,2.47,0,0,1-1.15.25,2.36,2.36,0,0,1-2-.91,3.8,3.8,0,0,1-.71-2.39Zm1.25.14a2.91,2.91,0,0,0,.43,1.66,1.47,1.47,0,0,0,1.32.63,1.65,1.65,0,0,0,.94-.26,1.88,1.88,0,0,0,.62-.71v-3.2a1.94,1.94,0,0,0-.62-.68,1.66,1.66,0,0,0-.93-.25,1.44,1.44,0,0,0-1.33.74,3.91,3.91,0,0,0-.43,1.93Z"/><path class="cls-8" d="M416.63,233.19h-1.25v-1.27h1.25Zm0,8.63h-1.25V235h1.25Z"/><path class="cls-8" d="M418.26,238.32a3.8,3.8,0,0,1,.83-2.51,3,3,0,0,1,4.49,0,3.71,3.71,0,0,1,.83,2.51v.14a3.78,3.78,0,0,1-.82,2.52,3.08,3.08,0,0,1-4.5,0,3.76,3.76,0,0,1-.83-2.51Zm1.25.14a3.29,3.29,0,0,0,.46,1.8,1.65,1.65,0,0,0,2.73,0,3.21,3.21,0,0,0,.46-1.8v-.14a3.2,3.2,0,0,0-.46-1.79,1.54,1.54,0,0,0-1.37-.72,1.51,1.51,0,0,0-1.36.72,3.28,3.28,0,0,0-.46,1.79Z"/><path class="cls-12" d="M406.82,212.17a.92.92,0,0,1,1,1v1.92a.92.92,0,0,1-1,1H379a1.95,1.95,0,0,1-1.92-1.92V193.91a.92.92,0,0,1,1-1h1.92a.92.92,0,0,1,1,1v18.26Zm-21.31-3.85a.82.82,0,0,1-.78-.78v-4.2a.82.82,0,0,1,.78-.78h2.28a.82.82,0,0,1,.78.78v4.2a.82.82,0,0,1-.78.78Zm5.76,0a.82.82,0,0,1-.78-.78V195.65a.82.82,0,0,1,.78-.78h2.28a.82.82,0,0,1,.78.78v11.89a.82.82,0,0,1-.78.78Zm5.76,0a.82.82,0,0,1-.78-.78v-8a.82.82,0,0,1,.78-.78h2.29a.82.82,0,0,1,.78.78v8a.82.82,0,0,1-.78.78Zm5.77,0a.82.82,0,0,1-.78-.78V193.73a.82.82,0,0,1,.78-.78h2.28a.82.82,0,0,1,.78.78v13.81a.82.82,0,0,1-.78.78Z"/><path class="cls-13" d="M104.07,392.7a5.69,5.69,0,0,0-2.09-2.1,5.75,5.75,0,0,0-2.86-.76,5.15,5.15,0,0,0-1.46.29c-.39.12-.72.21-1,.27a7.71,7.71,0,0,1-2.82,0c-.26-.06-.59-.15-1-.27a5.15,5.15,0,0,0-1.46-.29,5.75,5.75,0,0,0-2.86.76,5.69,5.69,0,0,0-2.09,2.1,5.57,5.57,0,0,0-.77,2.87v1.11a2,2,0,0,0,2,2.05h15a2,2,0,0,0,2-2.05v-1.11A5.57,5.57,0,0,0,104.07,392.7Zm-1.28,4h-15v-1.11a3.7,3.7,0,0,1,3.67-3.68,3.89,3.89,0,0,1,.86.17,9.83,9.83,0,0,0,3,.52,9.44,9.44,0,0,0,3-.52,3.29,3.29,0,0,1,.86-.17,3.7,3.7,0,0,1,3.67,3.68Zm-2.2-16.75a6.27,6.27,0,0,0-2.24-2.25,6.07,6.07,0,0,0-6.16,0A6.27,6.27,0,0,0,90,379.93a5.85,5.85,0,0,0-.83,3.07,5.93,5.93,0,0,0,.83,3.08,6.25,6.25,0,0,0,2.24,2.24,6.07,6.07,0,0,0,6.16,0,6.25,6.25,0,0,0,2.24-2.24,5.93,5.93,0,0,0,.83-3.08A5.85,5.85,0,0,0,100.59,379.93Zm-2.41,6a4.13,4.13,0,0,1-5.82,0,4.15,4.15,0,0,1,0-5.82,4.13,4.13,0,0,1,5.82,0,4.15,4.15,0,0,1,0,5.82Z"/><path class="cls-1" d="M99.37,383a4,4,0,0,1-1.19,2.91,4.13,4.13,0,0,1-5.82,0,4.15,4.15,0,0,1,0-5.82,4.13,4.13,0,0,1,5.82,0A4,4,0,0,1,99.37,383Z"/><path class="cls-1" d="M102.79,395.57v1.11h-15v-1.11a3.7,3.7,0,0,1,3.67-3.68,3.89,3.89,0,0,1,.86.17,9.83,9.83,0,0,0,3,.52,9.44,9.44,0,0,0,3-.52,3.29,3.29,0,0,1,.86-.17,3.7,3.7,0,0,1,3.67,3.68Z"/><path class="cls-13" d="M90.92,397.09a5.74,5.74,0,0,0-5-2.87,5,5,0,0,0-1.46.3c-.39.12-.72.21-1,.26a7.77,7.77,0,0,1-2.83,0c-.25,0-.58-.14-1-.26a4.83,4.83,0,0,0-1.46-.3,5.76,5.76,0,0,0-2.86.77,5.69,5.69,0,0,0-2.09,2.1,5.54,5.54,0,0,0-.77,2.87v1.11a2,2,0,0,0,2,2.05h15a2,2,0,0,0,1.46-.6,2,2,0,0,0,.59-1.45V400A5.63,5.63,0,0,0,90.92,397.09Zm-1.29,4h-15V400a3.74,3.74,0,0,1,3.67-3.69,4,4,0,0,1,.86.18,9.8,9.8,0,0,0,3,.51,9.52,9.52,0,0,0,3-.51,3.37,3.37,0,0,1,.85-.18A3.72,3.72,0,0,1,89.63,400Zm-2.2-16.76a6.27,6.27,0,0,0-2.24-2.25,6.13,6.13,0,0,0-6.16,0,6.35,6.35,0,0,0-2.24,2.25,6.11,6.11,0,0,0,0,6.15A6.27,6.27,0,0,0,79,392.71a6.13,6.13,0,0,0,6.16,0,6.2,6.2,0,0,0,2.24-2.25,6.11,6.11,0,0,0,0-6.15Zm-2.41,6a4.11,4.11,0,0,1-7-2.92,4.1,4.1,0,0,1,4.1-4.1,4,4,0,0,1,2.91,1.2,3.93,3.93,0,0,1,1.19,2.9A4,4,0,0,1,85,390.3Z"/><path class="cls-1" d="M86.21,387.38a4.08,4.08,0,1,1-1.19-2.9A3.93,3.93,0,0,1,86.21,387.38Z"/><path class="cls-1" d="M89.63,400v1.11h-15V400a3.74,3.74,0,0,1,3.67-3.69,4,4,0,0,1,.86.18,9.8,9.8,0,0,0,3,.51,9.52,9.52,0,0,0,3-.51,3.37,3.37,0,0,1,.85-.18A3.72,3.72,0,0,1,89.63,400Z"/><path class="cls-13" d="M117.23,397.09a5.69,5.69,0,0,0-2.09-2.1,5.76,5.76,0,0,0-2.86-.77,4.83,4.83,0,0,0-1.46.3c-.4.12-.73.21-1,.26a7.77,7.77,0,0,1-2.83,0c-.25,0-.58-.14-1-.26a5,5,0,0,0-1.46-.3,5.74,5.74,0,0,0-5,2.87,5.63,5.63,0,0,0-.76,2.87v1.11a2,2,0,0,0,.59,1.45,2,2,0,0,0,1.46.6h15a2,2,0,0,0,2-2.05V400A5.54,5.54,0,0,0,117.23,397.09Zm-1.28,4h-15V400a3.72,3.72,0,0,1,3.67-3.69,4,4,0,0,1,.85.18,9.91,9.91,0,0,0,3,.51,9.46,9.46,0,0,0,3-.51,3.42,3.42,0,0,1,.86-.18A3.74,3.74,0,0,1,116,400Zm-2.2-16.76a6.35,6.35,0,0,0-2.24-2.25,6.13,6.13,0,0,0-6.16,0,6.27,6.27,0,0,0-2.24,2.25,6.11,6.11,0,0,0,0,6.15,6.2,6.2,0,0,0,2.24,2.25,6.13,6.13,0,0,0,6.16,0,6.27,6.27,0,0,0,2.24-2.25,6.11,6.11,0,0,0,0-6.15Zm-2.42,6a4.13,4.13,0,1,1,1.2-2.92A4,4,0,0,1,111.33,390.3Z"/><path class="cls-1" d="M112.53,387.38a4.1,4.1,0,1,1-8.2,0,3.93,3.93,0,0,1,1.19-2.9,4.12,4.12,0,0,1,5.81,0A3.94,3.94,0,0,1,112.53,387.38Z"/><path class="cls-1" d="M116,400v1.11h-15V400a3.72,3.72,0,0,1,3.67-3.69,4,4,0,0,1,.85.18,9.91,9.91,0,0,0,3,.51,9.46,9.46,0,0,0,3-.51,3.42,3.42,0,0,1,.86-.18A3.74,3.74,0,0,1,116,400Z"/><polygon id="api_polygon-3" data-name="api polygon" class="cls-26" points="515.94 128.36 537.88 166.59 581.75 166.59 604 128.36 582.06 90 538.1 90 515.94 128.36"/><path class="cls-8" d="M555.86,138.82h-1.25v-4.08h-4.49v4.08h-1.25v-9.24h1.25v4.17h4.49v-4.17h1.25Z"/><path class="cls-8" d="M562.21,137.8a2.28,2.28,0,0,1-.84.85,2.48,2.48,0,0,1-2.92-.41,3.35,3.35,0,0,1-.63-2.24V132h1.25V136a2.58,2.58,0,0,0,.32,1.51,1.21,1.21,0,0,0,1,.42,2,2,0,0,0,1.1-.27,1.72,1.72,0,0,0,.66-.77v-5h1.25v6.87h-1.12Z"/><path class="cls-8" d="M571.1,135.65a3.74,3.74,0,0,1-.72,2.39,2.34,2.34,0,0,1-2,.91,2.49,2.49,0,0,1-1.19-.27,2.19,2.19,0,0,1-.84-.79l-.2.93h-1v-9.9h1.25v3.84a2.23,2.23,0,0,1,.81-.69,2.34,2.34,0,0,1,1.12-.25,2.29,2.29,0,0,1,2,1,4.61,4.61,0,0,1,.71,2.67Zm-1.25-.14a3.76,3.76,0,0,0-.44-1.92,1.43,1.43,0,0,0-1.32-.75,1.59,1.59,0,0,0-1,.28,2,2,0,0,0-.64.76v3a2,2,0,0,0,.64.79,1.61,1.61,0,0,0,1,.29,1.5,1.5,0,0,0,1.32-.63,2.94,2.94,0,0,0,.43-1.66Z"/><path class="cls-8" d="M541.17,153.44h4.5v1h-5.75v-9.24h1.25Z"/><path class="cls-8" d="M549.73,154.55a2.89,2.89,0,0,1-2.3-.94,3.65,3.65,0,0,1-.83-2.49v-.28a3.57,3.57,0,0,1,.85-2.45,2.71,2.71,0,0,1,2.09-1,2.47,2.47,0,0,1,2.06.86,3.52,3.52,0,0,1,.69,2.28v.66H547.9l0,0a2.81,2.81,0,0,0,.46,1.68,1.59,1.59,0,0,0,1.39.65,3,3,0,0,0,1.12-.19,2.49,2.49,0,0,0,.82-.49l.49.81a3,3,0,0,1-1,.6A4,4,0,0,1,549.73,154.55Zm-.19-6.14a1.36,1.36,0,0,0-1.08.5,2.43,2.43,0,0,0-.53,1.29v0H551v-.11a2,2,0,0,0-.37-1.23A1.3,1.3,0,0,0,549.54,148.41Z"/><path class="cls-8" d="M553.47,151.11a4.61,4.61,0,0,1,.71-2.67,2.27,2.27,0,0,1,2-1,2.38,2.38,0,0,1,1.15.27,2.23,2.23,0,0,1,.83.76l.15-.9h1v6.91a2.65,2.65,0,0,1-.77,2,3.16,3.16,0,0,1-2.22.7,4.57,4.57,0,0,1-1.06-.13,4.34,4.34,0,0,1-1-.37l.19-1a3.61,3.61,0,0,0,.88.31,4.34,4.34,0,0,0,1,.12,1.81,1.81,0,0,0,1.33-.42,1.7,1.7,0,0,0,.42-1.26v-.78a2.4,2.4,0,0,1-.81.65,2.45,2.45,0,0,1-1.08.22,2.35,2.35,0,0,1-2-.91,3.8,3.8,0,0,1-.71-2.39Zm1.25.14a2.94,2.94,0,0,0,.43,1.66,1.47,1.47,0,0,0,1.31.63,1.66,1.66,0,0,0,.95-.26,2,2,0,0,0,.63-.73v-3.16a1.91,1.91,0,0,0-.63-.69,1.66,1.66,0,0,0-.93-.26,1.44,1.44,0,0,0-1.33.74,3.91,3.91,0,0,0-.43,1.93Z"/><path class="cls-8" d="M565.31,154.42a5,5,0,0,1-.1-.55,2.59,2.59,0,0,1,0-.48,3,3,0,0,1-.92.83,2.31,2.31,0,0,1-1.2.33,2.24,2.24,0,0,1-1.64-.55,2,2,0,0,1-.56-1.51,1.78,1.78,0,0,1,.8-1.54,3.72,3.72,0,0,1,2.16-.55h1.36v-.68a1.29,1.29,0,0,0-.37-1,1.47,1.47,0,0,0-1-.35,1.54,1.54,0,0,0-1,.3.92.92,0,0,0-.37.73l-1.19,0v0a1.63,1.63,0,0,1,.7-1.37,2.89,2.89,0,0,1,1.93-.63,2.83,2.83,0,0,1,1.88.6,2.1,2.1,0,0,1,.71,1.71V153c0,.24,0,.48,0,.71a5,5,0,0,0,.14.67Zm-2.08-.91a2.29,2.29,0,0,0,1.23-.35,1.71,1.71,0,0,0,.71-.8v-1.12h-1.41a1.86,1.86,0,0,0-1.21.38,1.14,1.14,0,0,0-.45.9,1,1,0,0,0,.29.72A1.18,1.18,0,0,0,563.23,153.51Z"/><path class="cls-8" d="M571,153.58a1.45,1.45,0,0,0,1-.39,1.19,1.19,0,0,0,.43-.94h1.13l0,0a2,2,0,0,1-.76,1.57,2.91,2.91,0,0,1-4.06-.29,3.77,3.77,0,0,1-.79-2.45v-.27a3.76,3.76,0,0,1,.79-2.44,2.69,2.69,0,0,1,2.23-1,2.56,2.56,0,0,1,1.88.72,2.22,2.22,0,0,1,.71,1.74v0H572.4a1.48,1.48,0,0,0-.41-1.07,1.34,1.34,0,0,0-1-.44,1.45,1.45,0,0,0-1.34.71,3.36,3.36,0,0,0-.42,1.73v.27a3.45,3.45,0,0,0,.41,1.74A1.45,1.45,0,0,0,571,153.58Z"/><path class="cls-8" d="M577.14,151.87l.22.87h0l1.69-5.19h1.39l-2.89,7.92a3.43,3.43,0,0,1-.75,1.21,1.72,1.72,0,0,1-1.31.51l-.39,0-.36-.07.13-1h.22l.34,0a.77.77,0,0,0,.65-.36,3.9,3.9,0,0,0,.43-.78l.3-.72-2.56-6.73h1.4Z"/><circle class="cls-13" cx="555.85" cy="106.34" r="3.72"/><line class="cls-27" x1="557.34" y1="107.83" x2="566.28" y2="115.28"/><circle class="cls-13" cx="556.97" cy="115.65" r="2.61"/><circle class="cls-13" cx="566.28" cy="115.28" r="3.72"/><line class="cls-27" x1="558.09" y1="114.53" x2="565.53" y2="105.6"/><circle class="cls-13" cx="565.16" cy="105.97" r="2.61"/></svg>