<?xml version="1.0" encoding="UTF-8" standalone="no"?>
<svg width="52px" height="45px" viewBox="0 0 52 45" version="1.1" xmlns="http://www.w3.org/2000/svg" xmlns:xlink="http://www.w3.org/1999/xlink">
    <!-- Generator: Sketch 41.2 (35397) - http://www.bohemiancoding.com/sketch -->
    <title>Polygon 2</title>
    <desc>Created with Sketch.</desc>
    <defs>
        <polyline id="path-1" points="0.554465116 22.5182432 13.286 0.339932432 38.7502791 0.339932432 51.4824186 22.5182432 38.7502791 44.6965541 13.2866047 44.6965541 0.554465116 22.5182432"></polyline>
    </defs>
    <g id="Page-1" stroke="none" stroke-width="1" fill="none" fill-rule="evenodd">
        <g id="Polygon-2">
            <mask id="mask-2" fill="white">
                <use xlink:href="#path-1"></use>
            </mask>
            <use id="Mask" fill="#008E81" xlink:href="#path-1"></use>
            <g id="Group-82" mask="url(#mask-2)">
                <g transform="translate(24.000000, 23.000000) scale(1, -1) translate(-24.000000, -23.000000) translate(3.000000, 2.000000)">
                    <g id="noun_962630_cc" stroke="none" fill-rule="evenodd">
                        <g id="Group" fill="#FFFFFF">
                            <path d="M36.834,30.7213667 C36.0145333,30.7213667 35.2417333,30.9183 34.5529333,31.2594333 L28.1498,21.7763 C29.3482,20.7291 30.1102667,19.1947 30.1102667,17.4820333 C30.1102667,16.0811 29.6011333,14.7982333 28.7602,13.8042333 L32.2662667,10.0125667 C32.9555333,10.4703667 33.7810667,10.7387 34.6686667,10.7387 C37.0696667,10.7387 39.0226667,8.78523333 39.0226667,6.3847 C39.0226667,3.98416667 37.0692,2.0307 34.6686667,2.0307 C32.2681333,2.0307 30.3146667,3.98416667 30.3146667,6.3847 C30.3146667,7.39316667 30.6623333,8.32043333 31.2405333,9.05916667 L27.7312,12.8545667 C26.7932,12.1779 25.6456667,11.7742333 24.4029333,11.7742333 C22.6086,11.7742333 21.007,12.6086333 19.9598,13.9073667 L9.884,7.6671 C10.1696,7.0259 10.332,6.31843333 10.332,5.57223333 C10.332,2.7237 8.01453333,0.4067 5.166,0.4067 C2.31746667,0.4067 0,2.72416667 0,5.5727 C0,8.42123333 2.31746667,10.7387 5.166,10.7387 C6.76713333,10.7387 8.20073333,10.0065 9.149,8.85896667 C9.149,8.85896667 9.6941441,9.19659795 9.96671616,9.36541359 C12.3781903,10.8589437 16.674221,13.519661 18.4364903,14.6111105 C18.9292167,14.9162772 19.2238667,15.0987667 19.2238667,15.0987667 C18.8883333,15.8253667 18.6956,16.6308333 18.6956,17.4820333 C18.6956,19.2343667 19.4912667,20.8037667 20.7386667,21.8514333 L17.4995333,26.8457 C16.8756,26.5568333 16.1830667,26.3907 15.4513333,26.3907 C12.7521333,26.3907 10.556,28.5868333 10.556,31.2860333 C10.556,33.9852333 12.7521333,36.1813667 15.4513333,36.1813667 C18.1505333,36.1813667 20.3466667,33.9852333 20.3466667,31.2860333 C20.3466667,29.8207 19.6961333,28.5070333 18.6727333,27.6091667 L21.9151333,22.6102333 C22.6683333,22.9770333 23.5106667,23.1889 24.4034,23.1889 C25.3353333,23.1889 26.2136,22.9597667 26.9915333,22.5617 L33.3942,32.0443667 C32.3381333,32.9907667 31.6684667,34.3609 31.6684667,35.8873667 C31.6684667,38.7359 33.9859333,41.0529 36.8344667,41.0529 C39.683,41.0529 42,38.7359 42,35.8873667 C42,33.0388333 39.6825333,30.7213667 36.834,30.7213667 Z" id="Shape"></path>
                        </g>
                    </g>
                    <path d="M7.35,7.35 L24.15,17.85" id="Line" stroke="#FFFFFF" stroke-linecap="square"></path>
                    <path d="M24.3805407,17.2579552 L35.1690198,33.8741737" id="Line" stroke="#FFFFFF" stroke-linecap="square"></path>
                    <path d="M33.1914025,8.19281067 L23.807666,17.9477537" id="Line" stroke="#FFFFFF" stroke-linecap="square"></path>
                    <path d="M23.7107182,19.587884 L17.85,28.35" id="Line" stroke="#FFFFFF" stroke-linecap="square"></path>
                </g>
            </g>
        </g>
    </g>
</svg>