<?xml version="1.0" encoding="UTF-8" standalone="no"?>
<svg width="51px" height="45px" viewBox="0 0 51 45" version="1.1" xmlns="http://www.w3.org/2000/svg" xmlns:xlink="http://www.w3.org/1999/xlink">
    <!-- Generator: Sketch 41.2 (35397) - http://www.bohemiancoding.com/sketch -->
    <title>Group 142</title>
    <desc>Created with Sketch.</desc>
    <defs>
        <polygon id="path-1" points="25.7308156 -2.91582972 47.7926456 9.73918113 47.7926456 35.0492028 25.7308156 47.7042137 3.66898557 35.0492028 3.66898557 9.73918113"></polygon>
    </defs>
    <g id="Page-1" stroke="none" stroke-width="1" fill="none" fill-rule="evenodd">
        <g id="Group-142">
            <mask id="mask-2" fill="white">
                <use xlink:href="#path-1"></use>
            </mask>
            <use id="Polygon-Copy" fill-opacity="0.920000017" fill="#FFBF00" transform="translate(25.730816, 22.394192) rotate(-270.000000) translate(-25.730816, -22.394192) " xlink:href="#path-1"></use>
            <g id="noun_718836_cc" mask="url(#mask-2)">
                <g transform="translate(0.485203, 2.173006)" id="Capa_1">
                    <g transform="translate(0.514797, 0.426168)">
                        <path d="M4.04255248,24.2026162 C3.38190266,24.565669 2.81782324,25.0921859 2.409881,25.7252705 L3.92793154,26.7024424 C4.17251638,26.3213273 4.51186656,26.0052366 4.909881,25.7866824 L4.04255248,24.2026162 Z" id="Shape" fill="#FFFFFF"></path>
                        <rect id="Rectangle-path" fill="#FFFFFF" x="6.81193709" y="23.417541" width="2" height="2.00130591"></rect>
                        <path d="M19.1237374,34.1002176 L18.4314297,35.9538448 C18.8942869,36.1270347 19.3106605,36.4170041 19.6370341,36.7940634 L21.1314298,35.4966233 C20.5884627,34.8721499 19.894177,34.3882077 19.1237374,34.1002176 Z" id="Shape" fill="#FFFFFF"></path>
                        <path d="M23.0236447,38.7579879 L20.8493217,39.2276367 C20.8993701,39.4591224 20.9249503,39.6983985 20.9249503,39.9387874 L20.9249503,41.2119586 L23.1493217,41.2119586 L23.1493217,39.9387874 C23.1493217,39.5414779 23.1070586,39.1441683 23.0236447,38.7579879 Z" id="Shape" fill="#FFFFFF"></path>
                        <rect id="Rectangle-path" fill="#FFFFFF" x="13.783119" y="33.6967583" width="2" height="2"></rect>
                        <rect id="Rectangle-path" fill="#FFFFFF" x="8.64686415" y="33.6967583" width="2" height="2"></rect>
                        <path d="M2.95974592,29.8420518 C2.95974592,29.7495389 2.96231404,29.6570259 2.97001843,29.5670828 L0.408311299,29.380772 C0.396754725,29.5349602 0.39161847,29.6865787 0.39161847,29.8420518 C0.39161847,30.7736059 0.586796156,31.6717525 0.972015273,32.5120785 L3.30644312,31.4430399 C3.07659572,30.9393583 2.95974592,30.4009843 2.95974592,29.8420518 Z" id="Shape" fill="#FFFFFF"></path>
                        <path d="M4.50575864,32.9296717 L2.96488217,34.9855152 C3.82520487,35.6305361 4.84089927,36.051984 5.90281997,36.2010326 L6.26107375,33.6569263 C5.62803033,33.5682681 5.02066819,33.3151424 4.50575864,32.9296717 Z" id="Shape" fill="#FFFFFF"></path>
                        <g id="noun_1093889_cc" transform="translate(25.781568, 19.251806) rotate(-25.000000) translate(-25.781568, -19.251806) translate(6.281568, 7.751806)" stroke="#FFFFFF" stroke-width="0.8" fill="#FFFFFF">
                            <g id="Group" transform="translate(0.000000, -0.000000)">
                                <path d="M35.2895308,7.88451266 L26.0988331,7.70776847 L16.5988331,0.90311731 C16.510461,0.858931264 16.4220889,0.814745217 16.3337168,0.814745217 L12.7546471,0.814745217 C12.5779029,0.814745217 12.4453447,0.90311731 12.3569726,1.0798615 C12.2686005,1.25660568 12.3127866,1.43334987 12.4011587,1.56590801 L17.6151122,7.75195452 L8.91046101,7.88451266 L5.2872052,3.20079173 C5.1988331,3.11241964 5.06627496,3.02404754 4.93371682,3.02404754 L1.31046101,3.02404754 C1.17790287,3.02404754 1.00115868,3.11241964 0.956972638,3.24497778 C0.868600545,3.37753591 0.868600545,3.5542801 0.956972638,3.68683824 L5.33139124,12.5240475 C5.41976334,12.6566057 5.55232148,12.7449778 5.68487962,12.7891638 L17.8802285,14.0705592 L10.1918564,22.1566057 C10.0592982,22.2891638 10.0592982,22.465908 10.1034843,22.6426522 C10.1918564,22.8193964 10.3244145,22.9077685 10.5011587,22.9077685 L15.0523215,22.9077685 C15.1406936,22.9077685 15.2290657,22.8635824 15.3174378,22.8193964 L26.0988331,14.821722 L35.2453447,14.9542801 C37.1895308,14.9542801 38.7802285,13.3635824 38.7802285,11.4193964 C38.7802285,9.47521033 37.2337168,7.88451266 35.2895308,7.88451266 Z M13.682554,1.69846615 L16.2011587,1.69846615 L24.5523215,7.66358243 L22.8732517,7.61939638 C22.8732517,7.61939638 22.8732517,7.61939638 22.8290657,7.61939638 L18.8081354,7.70776847 L13.682554,1.69846615 Z M35.2895308,14.0705592 L26.010461,13.938001 L26.010461,13.938001 L25.966275,13.938001 L25.8779029,13.938001 C25.8337168,13.938001 25.8337168,13.9821871 25.7895308,13.9821871 L25.7453447,13.9821871 L14.9197633,22.0240475 L11.5174378,22.0240475 L19.0732517,13.9821871 C19.0732517,13.9821871 19.0732517,13.938001 19.1174378,13.938001 C19.1174378,13.893815 19.1616238,13.893815 19.1616238,13.8496289 C19.1616238,13.8054429 19.1616238,13.8054429 19.2058098,13.7612568 L19.2058098,13.7170708 C19.2058098,13.7170708 19.2058098,13.7170708 19.2058098,13.6728848 L19.2058098,13.5845127 L19.2058098,13.4961406 C19.2058098,13.4519545 19.1616238,13.4519545 19.1616238,13.4077685 C19.1616238,13.3635824 19.1174378,13.3635824 19.1174378,13.3193964 C19.1174378,13.3193964 19.1174378,13.3193964 19.1174378,13.2752103 C19.1174378,13.2752103 19.0732517,13.2752103 19.0732517,13.2310243 C19.0290657,13.2310243 19.0290657,13.1868382 18.9848796,13.1868382 C18.9406936,13.1868382 18.9406936,13.1868382 18.8965075,13.1426522 L18.8523215,13.1426522 L5.99418194,11.7728848 L2.01743775,3.90776847 L4.71278659,3.90776847 L8.33604241,8.5914894 C8.4244145,8.6798615 8.55697264,8.76823359 8.68953078,8.76823359 L22.8290657,8.50311731 L22.8732517,8.50311731 L35.2453447,8.76823359 C36.7034843,8.76823359 37.8965075,9.96125685 37.8965075,11.4193964 C37.8965075,12.8775359 36.7034843,14.0705592 35.2895308,14.0705592 Z" id="Shape"></path>
                            </g>
                        </g>
                    </g>
                </g>
            </g>
        </g>
    </g>
</svg>