<?xml version="1.0" encoding="UTF-8" standalone="no"?>
<svg width="51px" height="45px" viewBox="0 0 51 45" version="1.1" xmlns="http://www.w3.org/2000/svg" xmlns:xlink="http://www.w3.org/1999/xlink">
    <!-- Generator: Sketch 41.2 (35397) - http://www.bohemiancoding.com/sketch -->
    <title>Polygon 2</title>
    <desc>Created with Sketch.</desc>
    <defs>
        <polyline id="path-1" points="0 22.1783108 12.7315349 0 38.195814 0 50.9279535 22.1783108 38.195814 44.3566216 12.7321395 44.3566216 0 22.1783108"></polyline>
    </defs>
    <g id="Page-1" stroke="none" stroke-width="1" fill="none" fill-rule="evenodd">
        <g id="Artboard" transform="translate(-96.000000, -104.000000)">
            <g id="Polygon-2" transform="translate(96.000000, 104.000000)">
                <mask id="mask-2" fill="white">
                    <use xlink:href="#path-1"></use>
                </mask>
                <use id="Mask" fill-opacity="0.9" fill="#33006A" xlink:href="#path-1"></use>
                <path d="M24.7531486,4 C14.4013597,4 6,12.2616808 6,22.441389 L6,27.7103573 C6.00756207,27.94747 6.20526378,28.1358096 6.44650354,28.1357167 L12.278956,28.1357167 C12.3524335,28.6302994 12.580708,29.0752014 12.9208048,29.411795 C13.0038634,29.4939909 13.0287118,29.4938591 13.1021969,29.5490077 C13.175682,29.6041562 13.2751813,29.6676692 13.3952148,29.7548268 C13.6352819,29.9291857 13.9560023,30.164489 14.3440349,30.4408903 C15.1201,30.993649 16.1425051,31.7214033 17.1486352,32.4304747 C19.1608954,33.8486175 21.1392606,35.2296141 21.1392606,35.2296141 C21.9024477,35.7818907 22.9486876,35.7084786 23.6368898,35.1198439 C24.2355671,35.5254004 24.7302465,35.6138097 25.1996521,35.6138097 C26.4085917,35.6138097 28.4053864,35.0064513 30.4739752,34.2279613 C32.5378364,33.4512275 34.5953671,32.4950635 35.7901579,31.689526 C35.7961232,31.6851352 35.7981861,31.6793174 35.8041112,31.6758048 C36.4206236,31.2788319 36.8087441,30.7433072 36.8087441,30.0978585 C36.8087441,29.7512482 36.7249591,29.4416085 36.5715391,29.1648121 C36.4181192,28.8880156 36.2107794,28.6417572 35.9575968,28.3552571 L35.7762047,28.149438 L41.5667975,28.149438 C39.1492558,35.0317644 32.5770725,40.0046166 24.7531486,40.0046166 C19.4842399,40.0046166 14.6998602,37.843951 11.4278086,34.2965676 L14.0370637,34.2965676 C14.1980881,34.298806 14.3478645,34.2156106 14.429041,34.0788385 C14.5102175,33.9420664 14.5102175,33.7729075 14.429041,33.6361354 C14.3478645,33.4993633 14.1980881,33.416168 14.0370637,33.4184063 L10.4650354,33.4184063 C10.4371905,33.4158281 10.4091609,33.4158281 10.381316,33.4184063 C10.1678507,33.4584599 10.0147024,33.6438165 10.0185318,33.857487 L10.0185318,37.3701325 C10.0162557,37.52848 10.1008575,37.6757664 10.2399418,37.7555934 C10.379026,37.8354204 10.5510447,37.8354204 10.690129,37.7555934 C10.8292133,37.6757664 10.9138151,37.52848 10.9115389,37.3701325 L10.9115389,35.023795 C14.3484137,38.6708028 19.3065895,40.882778 24.7531486,40.882778 C33.1515989,40.882778 40.1854584,35.404478 42.5714304,27.9161764 C42.5944583,27.8687345 42.6086365,27.8176121 42.6132901,27.7652424 C43.1382354,26.0670978 43.5062972,24.3075698 43.5062972,22.441389 L43.5062972,16.2942593 C43.5062726,16.0517718 43.3063806,15.8552029 43.0597937,15.8551786 L33.8646114,15.8551786 L26.2880045,12.3836969 C26.2060173,12.3435666 26.1134652,12.329196 26.022893,12.3425331 C25.9791862,12.3500431 25.9368616,12.3639168 25.8973139,12.3836969 L18.6555847,15.8551786 L18.6416314,15.8551786 C18.6323315,15.8548927 18.6230248,15.8548927 18.613725,15.8551786 L8.19065798,15.8551786 C10.8414093,9.41950886 17.2558068,4.87816138 24.7531486,4.87816138 C30.0214849,4.87816138 34.7929601,7.03929634 38.0645353,10.5862104 L35.4692335,10.5862104 C35.3082091,10.583972 35.1584327,10.6671674 35.0772562,10.8039395 C34.9960797,10.9407116 34.9960797,11.1098705 35.0772562,11.2466426 C35.1584327,11.3834147 35.3082091,11.46661 35.4692335,11.4643717 L39.0412618,11.4643717 C39.2878487,11.4643475 39.4877407,11.2677786 39.4877654,11.025291 L39.4877654,7.51264552 C39.4928939,7.38366866 39.4400588,7.25900478 39.3433018,7.17178534 C39.2465448,7.0845659 39.1156661,7.04362507 38.9854489,7.05984356 C38.7554479,7.08818416 38.5857399,7.28487206 38.5947583,7.51264552 L38.5947583,9.85898296 C35.1581072,6.21323145 30.1997756,4 24.7531486,4 Z M26.078706,13.2618583 L33.5715935,16.6921762 C33.6284453,16.7182765 33.6902522,16.7323025 33.7529855,16.73334 L42.6132901,16.73334 L42.6132901,22.441389 C42.6132901,24.1291274 42.2970424,25.7268542 41.8458622,27.2712766 L35.02273,27.2712766 C35.0087844,27.2706331 34.9948158,27.2706331 34.9808703,27.2712766 L34.966917,27.2712766 L25.5345298,16.8705527 C25.4099085,16.7391591 25.2164611,16.6956776 25.0461665,16.7607826 L19.3671997,18.8875797 C19.3628239,18.8888969 19.3576311,18.8862624 19.3532464,18.8875797 L19.32534,18.9013009 C19.2486958,18.9189959 19.1707064,18.9287435 19.088135,18.9287435 C18.572226,18.9287435 18.0555955,18.3141798 18.0555955,17.7487141 C18.0555955,17.3748325 18.2556099,17.0476647 18.557912,16.8705527 C18.5636139,16.8670401 18.566092,16.8600368 18.5718652,16.8568315 L26.078706,13.2618583 Z M14.5533334,26.3931152 C14.8759416,26.3931152 15.1671677,26.4900203 15.4044808,26.6675406 C15.4498585,26.7013499 16.003818,27.1496073 16.7300381,27.7377998 C17.4562583,28.3259923 18.3897043,29.0740102 19.3113867,29.8234331 C21.1547516,31.322235 22.9531812,32.7872278 22.9531812,32.7872278 C22.9575058,32.7965323 22.9621597,32.8056854 22.9671344,32.8146703 C23.4576418,33.1695792 23.5574644,33.8034581 23.1903862,34.2828464 C22.8204911,34.765879 22.1580607,34.8834209 21.6694835,34.5298293 C21.6649358,34.525155 21.6602836,34.5205801 21.6555303,34.516108 C21.6555303,34.516108 19.6759055,33.1342332 17.6649049,31.7169686 C16.6594049,31.0083363 15.6479609,30.2921957 14.8742578,29.7411055 C14.4874063,29.4655384 14.1613296,29.2263712 13.9254378,29.0550419 C13.8074921,28.9693773 13.7132035,28.8993658 13.6463731,28.8492228 C13.6129577,28.8241294 13.5821918,28.8086794 13.5626537,28.7943377 C13.5487299,28.7805506 13.5486835,28.7819767 13.5487004,28.7806165 C13.298303,28.5259541 13.1440566,28.177861 13.1440566,27.7926849 C13.1440566,27.0087063 13.7685168,26.3931152 14.5533334,26.3931152 Z" id="Shape" stroke="#FFFFFF" stroke-width="0.5" fill="#FFFFFF" mask="url(#mask-2)"></path>
            </g>
        </g>
    </g>
</svg>