<?xml version="1.0" encoding="UTF-8" standalone="no"?>
<svg width="52px" height="45px" viewBox="0 0 52 45" version="1.1" xmlns="http://www.w3.org/2000/svg" xmlns:xlink="http://www.w3.org/1999/xlink">
    <!-- Generator: Sketch 41.2 (35397) - http://www.bohemiancoding.com/sketch -->
    <title>Polygon 2</title>
    <desc>Created with Sketch.</desc>
    <defs>
        <polyline id="path-1" points="0.554465116 22.5182432 13.286 0.339932432 38.7502791 0.339932432 51.4824186 22.5182432 38.7502791 44.6965541 13.2866047 44.6965541 0.554465116 22.5182432"></polyline>
    </defs>
    <g id="Page-1" stroke="none" stroke-width="1" fill="none" fill-rule="evenodd">
        <g id="Artboard" transform="translate(-33.000000, -104.000000)">
            <g id="Polygon-2" transform="translate(33.000000, 104.000000)">
                <mask id="mask-2" fill="white">
                    <use xlink:href="#path-1"></use>
                </mask>
                <use id="Mask" fill-opacity="0.9" fill="#51A4FD" xlink:href="#path-1"></use>
                <g id="Group-145" mask="url(#mask-2)">
                    <g transform="translate(7.000000, 3.000000)">
                        <g id="Group-138" stroke-width="1" fill="none" transform="translate(8.371205, 13.580247)">
                            <g id="Group" transform="translate(0.405058, 0.559759)" fill="#FFFFFF">
                                <g id="Group-118" transform="translate(0.000000, 6.692774)">
                                    <polygon id="Shape" points="4.08684923 2.86754272 5.22494545 1.76206117 3.65224191 1.53456115 2.94959856 0.11563514 2.2469552 1.53456115 0.675097205 1.76206117 1.81319342 2.86754272 1.54431185 4.42633911 2.94959856 3.68991314 4.35573081 4.42633911"></polygon>
                                </g>
                                <g id="Group-118" transform="translate(5.400778, 2.677110)">
                                    <polygon id="Shape" points="4.08684923 2.86754272 5.22494545 1.76206117 3.65224191 1.53456115 2.94959856 0.11563514 2.2469552 1.53456115 0.675097205 1.76206117 1.81319342 2.86754272 1.54431185 4.42633911 2.94959856 3.68991314 4.35573081 4.42633911"></polygon>
                                </g>
                                <g id="Group-118" transform="translate(11.476652, 0.000000)">
                                    <polygon id="Shape" points="4.08684923 2.86754272 5.22494545 1.76206117 3.65224191 1.53456115 2.94959856 0.11563514 2.2469552 1.53456115 0.675097205 1.76206117 1.81319342 2.86754272 1.54431185 4.42633911 2.94959856 3.68991314 4.35573081 4.42633911"></polygon>
                                </g>
                                <g id="Group-118" transform="translate(18.227625, 2.677110)">
                                    <polygon id="Shape" points="4.08684923 2.86754272 5.22494545 1.76206117 3.65224191 1.53456115 2.94959856 0.11563514 2.2469552 1.53456115 0.675097205 1.76206117 1.81319342 2.86754272 1.54431185 4.42633911 2.94959856 3.68991314 4.35573081 4.42633911"></polygon>
                                </g>
                                <g id="Group-118" transform="translate(22.953305, 6.692774)">
                                    <polygon id="Shape" points="4.08684923 2.86754272 5.22494545 1.76206117 3.65224191 1.53456115 2.94959856 0.11563514 2.2469552 1.53456115 0.675097205 1.76206117 1.81319342 2.86754272 1.54431185 4.42633911 2.94959856 3.68991314 4.35573081 4.42633911"></polygon>
                                </g>
                            </g>
                            <path d="M26.2692272,14.6256731 L20.3504504,14.6256731 L20.3504504,11.2553025 C20.3504504,10.3250802 19.592847,9.57011723 18.6593713,9.57011723 L13.5861341,9.57011723 C12.6526585,9.57011723 11.8950551,10.3250802 11.8950551,11.2553025 L11.8950551,14.6256731 L5.9762783,14.6256731 C5.50869493,14.6256731 5.13073876,15.002312 5.13073876,15.4682657 L5.13073876,25.5793775 C5.13073876,26.0453312 5.50869493,26.4219701 5.9762783,26.4219701 L26.2692272,26.4219701 C26.7368105,26.4219701 27.1147667,26.0453312 27.1147667,25.5793775 L27.1147667,15.4682657 C27.1147667,15.002312 26.7368105,14.6256731 26.2692272,14.6256731 Z M10.203976,23.8941922 C10.203976,24.3601459 9.8260198,24.7367848 9.35843644,24.7367848 L7.66735737,24.7367848 C7.199774,24.7367848 6.82181783,24.3601459 6.82181783,23.8941922 L6.82181783,22.2090069 C6.82181783,21.7430532 7.199774,21.3664143 7.66735737,21.3664143 L9.35843644,21.3664143 C9.8260198,21.3664143 10.203976,21.7430532 10.203976,22.2090069 L10.203976,23.8941922 Z M10.203976,18.8386363 C10.203976,19.3045901 9.8260198,19.681229 9.35843644,19.681229 L7.66735737,19.681229 C7.199774,19.681229 6.82181783,19.3045901 6.82181783,18.8386363 L6.82181783,17.153451 C6.82181783,16.6874973 7.199774,16.3108584 7.66735737,16.3108584 L9.35843644,16.3108584 C9.8260198,16.3108584 10.203976,16.6874973 10.203976,17.153451 L10.203976,18.8386363 Z M15.2772132,23.8941922 C15.2772132,24.3601459 14.899257,24.7367848 14.4316737,24.7367848 L12.7405946,24.7367848 C12.2730112,24.7367848 11.8950551,24.3601459 11.8950551,23.8941922 L11.8950551,22.2090069 C11.8950551,21.7430532 12.2730112,21.3664143 12.7405946,21.3664143 L14.4316737,21.3664143 C14.899257,21.3664143 15.2772132,21.7430532 15.2772132,22.2090069 L15.2772132,23.8941922 Z M15.2772132,18.8386363 C15.2772132,19.3045901 14.899257,19.681229 14.4316737,19.681229 L12.7405946,19.681229 C12.2730112,19.681229 11.8950551,19.3045901 11.8950551,18.8386363 L11.8950551,17.153451 C11.8950551,16.6874973 12.2730112,16.3108584 12.7405946,16.3108584 L14.4316737,16.3108584 C14.899257,16.3108584 15.2772132,16.6874973 15.2772132,17.153451 L15.2772132,18.8386363 Z M20.3504504,23.8941922 C20.3504504,24.3601459 19.9724942,24.7367848 19.5049109,24.7367848 L17.8138318,24.7367848 C17.3462484,24.7367848 16.9682923,24.3601459 16.9682923,23.8941922 L16.9682923,22.2090069 C16.9682923,21.7430532 17.3462484,21.3664143 17.8138318,21.3664143 L19.5049109,21.3664143 C19.9724942,21.3664143 20.3504504,21.7430532 20.3504504,22.2090069 L20.3504504,23.8941922 Z M20.3504504,18.8386363 C20.3504504,19.3045901 19.9724942,19.681229 19.5049109,19.681229 L17.8138318,19.681229 C17.3462484,19.681229 16.9682923,19.3045901 16.9682923,18.8386363 L16.9682923,17.153451 C16.9682923,16.6874973 17.3462484,16.3108584 17.8138318,16.3108584 L19.5049109,16.3108584 C19.9724942,16.3108584 20.3504504,16.6874973 20.3504504,17.153451 L20.3504504,18.8386363 Z M25.4236876,23.8941922 C25.4236876,24.3601459 25.0457315,24.7367848 24.5781481,24.7367848 L22.887069,24.7367848 C22.4194857,24.7367848 22.0415295,24.3601459 22.0415295,23.8941922 L22.0415295,22.2090069 C22.0415295,21.7430532 22.4194857,21.3664143 22.887069,21.3664143 L24.5781481,21.3664143 C25.0457315,21.3664143 25.4236876,21.7430532 25.4236876,22.2090069 L25.4236876,23.8941922 Z M25.4236876,18.8386363 C25.4236876,19.3045901 25.0457315,19.681229 24.5781481,19.681229 L22.887069,19.681229 C22.4194857,19.681229 22.0415295,19.3045901 22.0415295,18.8386363 L22.0415295,17.153451 C22.0415295,16.6874973 22.4194857,16.3108584 22.887069,16.3108584 L24.5781481,16.3108584 C25.0457315,16.3108584 25.4236876,16.6874973 25.4236876,17.153451 L25.4236876,18.8386363 Z" id="Shape" fill="#FFFFFF"></path>
                        </g>
                        <path d="M31.2424386,8.70060622 C30.0017833,6.58066156 26.403883,6.1500478 21.8360159,7.24314427 C20.5164098,2.82659288 18.3509024,0 15.8470345,0 C13.3431665,0 11.1776592,2.82659288 9.86933177,7.24314427 C5.29018593,6.13900642 1.7035643,6.58066156 0.451630342,8.70060622 C0.145917612,9.22867004 -0.00985430429,9.82721073 0.000482968474,10.4341026 C0.000482968474,12.4105094 1.41031851,14.850654 3.8690717,17.4012124 C0.620810607,20.713626 -0.80030362,24.0260395 0.485466395,26.1018187 C1.29753167,27.4709496 3.07956379,28.1334323 5.48192356,28.1334323 C6.97036129,28.1095524 8.45066732,27.9131189 9.89188914,27.5482392 C11.2114952,31.9647906 13.3770026,34.8024249 15.8808705,34.8024249 C18.3847384,34.8024249 20.5615245,31.9647906 21.8811306,27.5482392 C23.3186714,27.9123577 24.7951518,28.1087859 26.2798175,28.1334323 C28.6821773,28.1334323 30.4754881,27.4709496 31.2762747,26.1018187 C32.5282086,23.981874 31.1183731,20.7246674 27.8926693,17.4012124 C31.084537,14.0887989 32.4943726,10.7763854 31.2424386,8.70060622 Z M21.7683438,12.5430059 C21.046508,12.079268 20.2908361,11.6265715 19.5126069,11.1849164 C18.7343777,10.7432612 17.9561484,10.3347302 17.1891979,9.95932337 C18.4436626,9.41629616 19.7320136,8.95162737 21.046508,8.56810968 C21.3739954,9.87653952 21.6151059,11.2042502 21.7683438,12.5430059 L21.7683438,12.5430059 Z M23.0992285,14.7512816 C24.2050156,15.5677302 25.2560966,16.4528623 26.2459814,17.4012124 C25.2512141,18.3237393 24.2003791,19.186541 23.0992285,19.984895 C23.1556219,19.1457502 23.1781793,18.2845227 23.1781793,17.4012124 C23.1781793,16.5179022 23.1556219,15.6456333 23.0992285,14.8064885 L23.0992285,14.7512816 Z M22.0503109,17.4012124 C22.0503109,18.5936813 22.0503109,19.7309433 21.9149666,20.8240398 C20.9901145,21.442357 20.008869,22.0606742 18.9486727,22.6569086 C17.8884763,23.253143 16.8508374,23.7610464 15.8470345,24.2468671 C14.8432316,23.7831292 13.8055926,23.253143 12.7453963,22.6569086 C11.6851999,22.0606742 10.7039544,21.4533983 9.79038098,20.8240398 C9.7001515,19.7199019 9.65503677,18.6157641 9.65503677,17.4012124 C9.65503677,16.1866608 9.65503677,15.0604402 9.80165966,13.9673437 C10.7189927,13.3490266 11.7002382,12.7417507 12.7453963,12.1455163 C13.8055926,11.5492819 14.8432316,11.0413785 15.8470345,10.5555578 C16.8508374,11.0192957 17.8884763,11.5492819 18.9486727,12.1455163 C20.008869,12.7417507 20.9901145,13.3490266 21.903688,13.9673437 C22.0051961,15.0604402 22.0503109,16.2087436 22.0503109,17.4012124 Z M21.0577866,26.2343152 C19.7348899,25.8671876 18.4386822,25.4134695 17.1779192,24.8762257 C17.9448698,24.5008188 18.7343777,24.0922878 19.5126069,23.6506326 C20.2908361,23.2089775 21.046508,22.756281 21.7683438,22.2925431 C21.6111935,23.6190481 21.3739257,24.9352768 21.0577866,26.2343152 Z M9.93700387,22.259419 C10.6588397,22.7231569 11.4032328,23.1758534 12.1927407,23.6175085 C12.9822486,24.0591637 13.7604779,24.4676947 14.5274284,24.8431015 C13.2683759,25.393675 11.9720061,25.8585176 10.647561,26.2343152 C10.3299711,24.9244028 10.0926951,23.5970675 9.93700387,22.259419 L9.93700387,22.259419 Z M8.60611912,19.984895 C7.49963354,19.1931862 6.44837799,18.3300391 5.45936619,17.4012124 C6.45097804,16.4718119 7.50202108,15.6051514 8.60611912,14.8064885 C8.60611912,15.6456333 8.52716833,16.5179022 8.52716833,17.4012124 C8.52716833,18.2845227 8.5497257,19.1457502 8.60611912,19.984895 L8.60611912,19.984895 Z M10.6588397,8.56810968 C11.9690844,8.94455898 13.253665,9.40185089 14.504871,9.93724061 C13.7379205,10.3126475 12.9596913,10.7211785 12.1814621,11.1628336 C11.4032328,11.6044888 10.6588397,12.0571853 9.92572519,12.5209232 C10.0835082,11.1893282 10.3283825,9.86901283 10.6588397,8.56810968 L10.6588397,8.56810968 Z M15.8470345,1.10413785 C17.651624,1.10413785 19.5464429,3.48907559 20.7532622,7.51917873 C19.0744863,8.00353362 17.4346037,8.60877997 15.8470345,9.32996479 C14.2648863,8.59004994 12.6287256,7.96633263 10.9520855,7.46397183 C12.1589047,3.48907559 14.042445,1.10413785 15.8470345,1.10413785 Z M1.43287588,9.25267514 C2.33517063,7.71792354 5.39169408,7.30939254 9.57608598,8.31415798 C9.15792742,9.97198373 8.87134648,11.6589825 8.71890597,13.3600679 C7.28182108,14.3620675 5.92448176,15.4693847 4.6585796,16.6724815 C1.7035643,13.5808955 0.530581133,10.7763854 1.43287588,9.25267514 Z M1.43287588,25.5497497 C0.530581133,24.0149981 1.7035643,21.2215294 4.6585796,18.1741089 C5.92451077,19.3771741 7.28184757,20.4844893 8.71890597,21.4865225 C8.87134648,23.1876079 9.15792742,24.8746067 9.57608598,26.5324324 C5.39169408,27.481991 2.31261326,27.0845013 1.43287588,25.5497497 Z M15.8470345,33.698287 C14.042445,33.698287 12.1589047,31.3133493 10.9520855,27.2722048 C12.6246976,26.7850253 14.2603581,26.1836358 15.8470345,25.4724601 C17.4375412,26.1837161 19.0769576,26.785101 20.7532622,27.2722048 C19.5464429,31.3133493 17.6629026,33.698287 15.8470345,33.698287 Z M30.2724717,25.5497497 C29.370177,27.0845013 26.3136535,27.481991 22.1292616,26.4882669 C22.5474202,24.8304412 22.8340011,23.1434424 22.9864417,21.442357 C24.4173729,20.4370436 25.7707171,19.3299103 27.0354893,18.1299434 C30.013062,21.2215294 31.1747665,24.0260395 30.2724717,25.5497497 L30.2724717,25.5497497 Z M22.9864417,13.4042334 C22.8340011,11.703148 22.5474202,10.0161492 22.1292616,8.35832349 C23.473971,8.01359537 24.8561112,7.82824472 26.2459814,7.80625457 C28.2761446,7.80625457 29.6972588,8.32519935 30.2724717,9.29684066 C31.1747665,10.8315923 30.013062,13.6140196 27.0354893,16.6614401 C25.7703215,15.4652782 24.4169874,14.3618436 22.9864417,13.3600679 L22.9864417,13.4042334 Z" id="Shape" fill="#FFFFFF"></path>
                    </g>
                </g>
            </g>
        </g>
    </g>
</svg>