    <svg class="travelgatex_platform" width="815px" height="321px" viewBox="308 362 815 321" version="1.1" xmlns="http://www.w3.org/2000/svg" xmlns:xlink="http://www.w3.org/1999/xlink">
        <defs></defs>
        <g id="Group-8" stroke="none" stroke-width="1" fill="none" fill-rule="evenodd" transform="translate(308.000000, 363.000000)">
            <g class="buyer fade-in" transform="translate(0.000000, 142.000000)" fill="#F6F8F9">
                <g id="Group-4">
                    <ellipse id="Oval" cx="21.9883081" cy="6.23676839" rx="1.25277197" ry="1.24735368"></ellipse>
                    <path  d="M38.1424111,0 L5.81692544,0 C2.60432623,0 2.95226723e-15,2.80558029 0,6.26643897 L0,72.5116509 C0,75.9725096 2.60432623,78.7780899 5.81692544,78.7780899 L38.1424111,78.7780899 C41.3550103,78.7780899 43.9593365,75.9725096 43.9593365,72.5116509 L43.9593365,6.26643897 C43.9593365,2.80558029 41.3550103,0 38.1424111,0 L38.1424111,0 Z M1.6619787,12.2911724 L42.2973578,12.2911724 L42.2973578,62.2884033 L1.6619787,62.2884033 L1.6619787,12.2911724 Z M38.1424111,76.9876788 L5.81692544,76.9876788 C3.52221172,76.9876788 1.6619787,74.9836928 1.6619787,72.5116509 L1.6619787,64.0788145 L42.2973578,64.0788145 L42.2973578,72.5116509 C42.2973578,74.9836928 40.4371248,76.9876788 38.1424111,76.9876788 L38.1424111,76.9876788 Z M42.2973578,10.5007613 L1.6619787,10.5007613 L1.6619787,6.26643897 C1.6619787,3.79439706 3.52221172,1.79041113 5.81692544,1.79041113 L38.1424111,1.79041113 C40.4371248,1.79041113 42.2973578,3.79439706 42.2973578,6.26643897 L42.2973578,10.5007613 Z" id="Shape"></path>
                    <rect id="Rectangle-path" x="13.2707431" y="70.6833751" width="16.5884289" height="1.66313824"></rect>
                </g>
            </g>
            <g id="Group-6" transform="translate(19.000000, 0.000000)">
                <g id="Group-3" transform="translate(427.000000, 155.000000)"></g>
                <g id="graphql" class="fade-in" transform="translate(210.000000, 182.000000)" fill="#E535AB">
                    <g id="Group-21" transform="translate(0.000000, 41.369172)">
                        <path d="M0.0211024387,3.80258701 C0.0398601621,3.28426401 0.131302692,2.79422052 0.295432771,2.33244185 C0.45956285,1.87066317 0.708098956,1.4654349 1.04104854,1.11674488 C1.37399813,0.768054864 1.78900654,0.494761381 2.2860862,0.296856235 C2.78316587,0.0989510888 3.36933593,0 4.04461397,0 C4.68237657,0 5.24275514,0.0942391322 5.72576652,0.282720224 C6.2087779,0.471201315 6.6120629,0.704443167 6.93563362,0.982452777 C7.25920435,1.26046239 7.5030511,1.55731565 7.66718118,1.87302148 C7.83131126,2.18872731 7.91806442,2.47380068 7.92744329,2.72825016 C7.93682215,2.81306665 7.90868598,2.88610198 7.84303395,2.94735833 C7.77738192,3.00861469 7.70235215,3.0392424 7.6179424,3.0392424 L7.04114529,3.0392424 C6.81605261,3.0392424 6.68006116,2.98741088 6.63316685,2.88374628 C6.52062051,2.65756897 6.3916631,2.44553092 6.24629074,2.24762578 C6.10091838,2.04972063 5.92975673,1.88009019 5.73280063,1.73872938 C5.53584454,1.59736856 5.29903183,1.4842816 5.02235541,1.39946511 C4.74567899,1.31464862 4.41976844,1.27224101 4.04461397,1.27224101 C3.66008065,1.27224101 3.30603393,1.32642851 2.9824632,1.43480514 C2.65889247,1.54318176 2.37987552,1.70574427 2.14540398,1.92249752 C1.91093244,2.13925078 1.72335802,2.41018828 1.5826751,2.73531816 C1.44199217,3.06044805 1.3669624,3.43976055 1.35758354,3.87326706 C1.33882582,4.29734952 1.3294471,4.68844192 1.3294471,5.04655599 C1.3294471,5.40467007 1.33882582,5.79576246 1.35758354,6.21984492 C1.3669624,6.67219954 1.44199217,7.0680039 1.5826751,7.40726986 C1.72335802,7.74653582 1.91093244,8.02689724 2.14540398,8.24836253 C2.37987552,8.46982781 2.65889247,8.63474629 2.9824632,8.74312292 C3.30603393,8.85149954 3.66008065,8.90568705 4.04461397,8.90568705 C4.41976844,8.90568705 4.77147048,8.85856748 5.09973063,8.76432693 C5.42799079,8.67008639 5.71404178,8.5169478 5.95789219,8.30490657 C6.20174259,8.09286534 6.39166169,7.81721588 6.52765518,7.47794992 C6.66364868,7.13868395 6.7316444,6.72403177 6.7316444,6.23398093 L6.7316444,5.83817262 L4.70582041,5.83817262 C4.60265294,5.83817262 4.51355509,5.80047697 4.43852419,5.72508453 C4.3634933,5.64969209 4.32597842,5.56016492 4.32597842,5.45650032 L4.32597842,4.94760391 C4.32597842,4.84393931 4.3634933,4.75441214 4.43852419,4.6790197 C4.51355509,4.60362726 4.60265294,4.56593161 4.70582041,4.56593161 L7.68828351,4.56593161 C7.79145099,4.56593161 7.88054884,4.60362726 7.95557973,4.6790197 C8.03061062,4.75441214 8.06812551,4.84393931 8.06812551,4.94760391 L8.06812551,6.29052498 C8.06812551,6.85596825 7.97902766,7.37663946 7.80082929,7.85255421 C7.62263092,8.32846897 7.36237141,8.73840919 7.02004296,9.08238719 C6.67771451,9.42636518 6.25567206,9.6949467 5.75390296,9.88813982 C5.25213387,10.0813329 4.68237657,10.1779281 4.04461397,10.1779281 C3.36933593,10.1779281 2.78316587,10.076621 2.2860862,9.87400381 C1.78900654,9.67138664 1.37634281,9.39573718 1.04808266,9.04704716 C0.719822497,8.69835714 0.471286392,8.28841691 0.302466882,7.81721418 C0.133647372,7.34601146 0.0398601621,6.83712014 0.0211024387,6.29052498 C-0.00703414624,5.46120817 -0.00703414624,4.63190381 0.0211024387,3.80258701 Z M13.135932,2.68584212 C13.2390995,2.68584212 13.3281973,2.72353778 13.4032282,2.79893021 C13.4782591,2.87432265 13.515774,2.96384983 13.515774,3.06751443 L13.515774,3.51986678 C13.515774,3.62353138 13.4782591,3.71305856 13.4032282,3.788451 C13.3281973,3.86384343 13.2390995,3.90153909 13.135932,3.90153909 L12.3199751,3.90153909 C11.241406,3.90153909 10.7021296,4.4434141 10.7021296,5.52718037 L10.7021296,9.65489564 C10.7021296,9.75856024 10.6646147,9.84808741 10.5895838,9.92347985 C10.5145529,9.99887229 10.425455,10.0365679 10.3222876,10.0365679 L9.80176334,10.0365679 C9.69859586,10.0365679 9.60949801,9.99887229 9.53446712,9.92347985 C9.45943622,9.84808741 9.42192134,9.75856024 9.42192134,9.65489564 L9.42192134,3.06751443 C9.42192134,2.96384983 9.45943622,2.87432265 9.53446712,2.79893021 C9.60949801,2.72353778 9.69859586,2.68584212 9.80176334,2.68584212 L10.3222876,2.68584212 C10.425455,2.68584212 10.5145529,2.72353778 10.5895838,2.79893021 C10.6646147,2.87432265 10.7021296,2.96384983 10.7021296,3.06751443 L10.7021296,3.50573077 C10.8897068,3.22300914 11.1147961,3.01568305 11.3774042,2.88374628 C11.6400123,2.75180952 11.9823357,2.68584212 12.4043844,2.68584212 L13.135932,2.68584212 Z M13.6737709,8.18475047 C13.6737709,7.80778829 13.7488007,7.47795133 13.8988625,7.19522969 C14.0489243,6.91250805 14.2552561,6.67219827 14.5178643,6.47429312 C14.7804724,6.27638798 15.0876255,6.11618145 15.4393328,5.99366874 C15.7910401,5.87115603 16.1638443,5.7769169 16.5577565,5.71094852 L18.5413758,5.38582026 L18.5413758,5.20205212 C18.5413758,4.72142533 18.3842822,4.36096065 18.0700904,4.12064726 C17.7558985,3.88033387 17.3643369,3.76017897 16.8953938,3.76017897 C16.4827239,3.76017897 16.1708814,3.83557028 15.959857,3.98635515 C15.7488326,4.13714003 15.5682923,4.31619438 15.4182305,4.52352358 C15.3619573,4.59891602 15.3009956,4.65074754 15.2353436,4.6790197 C15.1696916,4.70729187 15.0805937,4.72142774 14.9680474,4.72142774 L14.5460007,4.72142774 C14.4428332,4.72142774 14.3513907,4.68373208 14.2716704,4.60833965 C14.1919501,4.53294721 14.1567798,4.44342003 14.1661587,4.33975543 C14.1849164,4.13242623 14.2669802,3.92038819 14.4123526,3.70363493 C14.557725,3.48688167 14.7546781,3.29369145 15.0032179,3.12405847 C15.2517578,2.95442549 15.5378088,2.81542277 15.8613795,2.70704614 C16.1849502,2.59866951 16.5296182,2.54448201 16.8953938,2.54448201 C17.3174426,2.54448201 17.7090042,2.60573745 18.0700904,2.72825016 C18.4311765,2.85076287 18.7406743,3.02981722 18.998593,3.26541858 C19.2565117,3.50101995 19.4581542,3.79316126 19.6035266,4.14185128 C19.7488989,4.4905413 19.821584,4.89105761 19.821584,5.34341223 L19.821584,9.65489564 C19.821584,9.75856024 19.7840691,9.84808741 19.7090382,9.92347985 C19.6340073,9.99887229 19.5449095,10.0365679 19.441742,10.0365679 L18.9212178,10.0365679 C18.8180503,10.0365679 18.7289525,9.99887229 18.6539216,9.92347985 C18.5788907,9.84808741 18.5413758,9.75856024 18.5413758,9.65489564 L18.5413758,9.07531918 C18.456966,9.25437622 18.325664,9.41222676 18.1474656,9.54887555 C17.9692672,9.68552435 17.76528,9.80096728 17.5354979,9.89520783 C17.3057158,9.98944837 17.0665584,10.0601277 16.8180186,10.107248 C16.5694788,10.1543683 16.3373554,10.1779281 16.1216416,10.1779281 C15.755866,10.1779281 15.4205767,10.1260965 15.1157637,10.0224319 C14.8109507,9.91876733 14.5530359,9.77976461 14.3420115,9.6054196 C14.1309871,9.43107459 13.9668595,9.22139252 13.8496237,8.9763671 C13.7323879,8.73134168 13.6737709,8.46747211 13.6737709,8.18475047 Z M16.2623238,8.96223109 C16.5999628,8.96223109 16.9094606,8.91039957 17.1908265,8.80673497 C17.4721923,8.70307037 17.7136944,8.55935569 17.9153399,8.37558663 C18.1169854,8.19181756 18.2717343,7.97271158 18.3795912,7.71826211 C18.4874482,7.46381263 18.5413758,7.18109524 18.5413758,6.87010143 L18.5413758,6.51670116 L16.8813256,6.78528537 C16.2904573,6.87952591 15.8215213,7.03030853 15.4745034,7.23763773 C15.1274855,7.44496693 14.9539792,7.71354845 14.9539792,8.04339036 C14.9539792,8.14705496 14.977426,8.25071801 15.0243203,8.35438261 C15.0712146,8.45804721 15.1462443,8.5569983 15.2494118,8.65123884 C15.3525793,8.74547939 15.4862261,8.8208707 15.6503561,8.87741502 C15.8144862,8.93395935 16.0184734,8.96223109 16.2623238,8.96223109 Z M24.9034587,10.1779281 C24.3219693,10.1779281 23.8577226,10.076621 23.5107047,9.87400381 C23.1636868,9.67138664 22.9010827,9.45228066 22.7228843,9.21667929 L22.7228843,12.3407378 C22.7228843,12.4444024 22.6853694,12.5339295 22.6103385,12.609322 C22.5353076,12.6847144 22.4462098,12.7224101 22.3430423,12.7224101 L21.8225181,12.7224101 C21.7193506,12.7224101 21.6302527,12.6847144 21.5552218,12.609322 C21.480191,12.5339295 21.4426761,12.4444024 21.4426761,12.3407378 L21.4426761,3.06751443 C21.4426761,2.96384983 21.480191,2.87432265 21.5552218,2.79893021 C21.6302527,2.72353778 21.7193506,2.68584212 21.8225181,2.68584212 L22.3430423,2.68584212 C22.4462098,2.68584212 22.5353076,2.72353778 22.6103385,2.79893021 C22.6853694,2.87432265 22.7228843,2.96384983 22.7228843,3.06751443 L22.7228843,3.50573077 C22.9104615,3.2512813 23.1777551,3.02746336 23.5247729,2.83427024 C23.8717908,2.64107712 24.3313482,2.54448201 24.9034587,2.54448201 C25.3442652,2.54448201 25.7545843,2.6222293 26.1344282,2.7777262 C26.5142721,2.9332231 26.844872,3.15704104 27.1262378,3.44918673 C27.4076037,3.74133242 27.632693,4.09472917 27.8015125,4.50938757 C27.970332,4.92404597 28.0688086,5.39052967 28.0969451,5.90885267 C28.106324,6.05021349 28.1110134,6.20335208 28.1110134,6.36827304 C28.1110134,6.53319399 28.106324,6.68633258 28.0969451,6.8276934 C28.0688086,7.3460164 27.970332,7.81250011 27.8015125,8.22715851 C27.632693,8.64181691 27.4076037,8.99285768 27.1262378,9.28029134 C26.844872,9.56772501 26.5142721,9.78918697 26.1344282,9.94468387 C25.7545843,10.1001808 25.3442652,10.1779281 24.9034587,10.1779281 Z M22.7228843,5.75335655 C22.7135054,5.89471737 22.7088161,6.08083966 22.7088161,6.31172899 C22.7088161,6.54261833 22.7135054,6.72874062 22.7228843,6.87010143 C22.7510209,7.53920931 22.9503187,8.05516856 23.3207837,8.41799466 C23.6912488,8.78082076 24.1719082,8.96223109 24.7627765,8.96223109 C25.3817814,8.96223109 25.8694749,8.76432891 26.2258716,8.36851862 C26.5822683,7.97270833 26.7792215,7.43554527 26.8167369,6.75701335 C26.8261158,6.49313982 26.8261158,6.22927025 26.8167369,5.96539672 C26.7792215,5.28686479 26.5822683,4.74970174 26.2258716,4.35389144 C25.8694749,3.95808115 25.3817814,3.76017897 24.7627765,3.76017897 C24.1812871,3.76017897 23.7029723,3.93923333 23.3278178,4.2973474 C22.9526634,4.65546147 22.7510209,5.140793 22.7228843,5.75335655 Z M35.9221232,9.65489564 C35.9221232,9.75856024 35.8846083,9.84808741 35.8095774,9.92347985 C35.7345465,9.99887229 35.6454486,10.0365679 35.5422812,10.0365679 L35.0217569,10.0365679 C34.9185895,10.0365679 34.8294916,9.99887229 34.7544607,9.92347985 C34.6794298,9.84808741 34.6419149,9.75856024 34.6419149,9.65489564 L34.6419149,5.92298869 C34.6419149,5.19733648 34.4684086,4.65546147 34.1213907,4.2973474 C33.7743728,3.93923333 33.2913687,3.76017897 32.6723638,3.76017897 C32.0814956,3.76017897 31.6055255,3.93923333 31.2444393,4.2973474 C30.8833531,4.65546147 30.7028127,5.19733648 30.7028127,5.92298869 L30.7028127,9.65489564 C30.7028127,9.75856024 30.6652979,9.84808741 30.590267,9.92347985 C30.5152361,9.99887229 30.4261382,10.0365679 30.3229707,10.0365679 L29.8024465,10.0365679 C29.6992791,10.0365679 29.6101812,9.99887229 29.5351503,9.92347985 C29.4601194,9.84808741 29.4226045,9.75856024 29.4226045,9.65489564 L29.4226045,0.381672302 C29.4226045,0.278007702 29.4601194,0.188480526 29.5351503,0.113088089 C29.6101812,0.0376956529 29.6992791,0 29.8024465,0 L30.3229707,0 C30.4261382,0 30.5152361,0.0376956529 30.590267,0.113088089 C30.6652979,0.188480526 30.7028127,0.278007702 30.7028127,0.381672302 L30.7028127,3.50573077 C30.8810111,3.27012941 31.14596,3.05102343 31.4976673,2.84840625 C31.8493746,2.64578908 32.3112766,2.54448201 32.8833872,2.54448201 C33.3241937,2.54448201 33.732168,2.61751734 34.1073225,2.76359019 C34.482477,2.90966303 34.8036982,3.11698912 35.0709957,3.38557468 C35.3382933,3.65416023 35.5469698,3.98635317 35.6970316,4.38216347 C35.8470934,4.77797376 35.9221232,5.22089768 35.9221232,5.71094852 L35.9221232,9.65489564 Z M37.3181237,3.83085903 C37.3275025,3.30311197 37.4189451,2.80600055 37.592454,2.33950985 C37.7659629,1.87301915 38.0168437,1.46779088 38.3451039,1.12381289 C38.673364,0.779834897 39.076649,0.506541414 39.554971,0.30392424 C40.0332929,0.101307067 40.5819481,0 41.200953,0 C41.8199578,0 42.368613,0.101307067 42.846935,0.30392424 C43.3252569,0.506541414 43.7285419,0.779834897 44.0568021,1.12381289 C44.3850622,1.46779088 44.635943,1.87301915 44.809452,2.33950985 C44.9829609,2.80600055 45.0744034,3.30311197 45.0837823,3.83085903 C45.1119189,4.66959989 45.1119189,5.50832816 45.0837823,6.34706902 C45.0650246,6.88424013 44.9642033,7.38841949 44.7813155,7.85962222 C44.5984277,8.33082495 44.3381682,8.74076517 44.0005292,9.08945519 L45.0415776,10.5171923 C45.0509565,10.5360404 45.0603352,10.5572442 45.0697141,10.5808044 C45.0790929,10.6043645 45.0837823,10.6302803 45.0837823,10.6585524 C45.0837823,10.7433689 45.0579908,10.8140483 45.0064071,10.8705926 C44.9548233,10.9271369 44.8868276,10.9554087 44.8024178,10.9554087 L44.1412114,10.9554087 C43.963013,10.9554087 43.8317109,10.915357 43.7473012,10.8352526 C43.6628914,10.7551481 43.5972404,10.6868247 43.5503461,10.6302804 L42.9594807,9.82452777 C42.4436434,10.0601291 41.8574733,10.1779281 41.200953,10.1779281 C40.5819481,10.1779281 40.0356376,10.078977 39.5620051,9.88107182 C39.0883726,9.68316667 38.6874323,9.40987319 38.3591721,9.06118317 C38.0309119,8.71249315 37.7800312,8.3049089 37.6065222,7.8384182 C37.4330133,7.3719275 37.3368814,6.87481608 37.3181237,6.34706902 C37.2899871,5.50832816 37.2899871,4.66959989 37.3181237,3.83085903 Z M43.7473012,3.90153909 C43.7285435,3.45860852 43.6558584,3.07222808 43.5292437,2.74238617 C43.4026291,2.41254426 43.2267781,2.13925078 43.0016854,1.92249752 C42.7765927,1.70574427 42.5116439,1.54318176 42.2068309,1.43480514 C41.9020179,1.32642851 41.5667286,1.27224101 41.200953,1.27224101 C40.8351774,1.27224101 40.4998881,1.32642851 40.1950751,1.43480514 C39.8902621,1.54318176 39.6253132,1.70574427 39.4002205,1.92249752 C39.1751279,2.13925078 38.9969322,2.41254426 38.8656281,2.74238617 C38.734324,3.07222808 38.6639836,3.45860852 38.6546048,3.90153909 C38.635847,4.32562154 38.6264683,4.7214259 38.6264683,5.08896403 C38.6264683,5.45650215 38.635847,5.85230651 38.6546048,6.27638897 C38.6639836,6.71931953 38.734324,7.10569997 38.8656281,7.43554188 C38.9969322,7.76538379 39.1751279,8.03867728 39.4002205,8.25543053 C39.6253132,8.47218379 39.8902621,8.63474629 40.1950751,8.74312292 C40.4998881,8.85149954 40.8351774,8.90568705 41.200953,8.90568705 C41.5667286,8.90568705 41.9020179,8.85149954 42.2068309,8.74312292 C42.5116439,8.63474629 42.7765927,8.47218379 43.0016854,8.25543053 C43.2267781,8.03867728 43.4026291,7.76538379 43.5292437,7.43554188 C43.6558584,7.10569997 43.7285435,6.71931953 43.7473012,6.27638897 C43.7660589,5.85230651 43.7754376,5.45650215 43.7754376,5.08896403 C43.7754376,4.7214259 43.7660589,4.32562154 43.7473012,3.90153909 Z M52.8104828,8.76432693 C52.9136502,8.76432693 53.0027481,8.80202259 53.077779,8.87741502 C53.1528099,8.95280746 53.1903248,9.04233464 53.1903248,9.14599924 L53.1903248,9.65489564 C53.1903248,9.75856024 53.1528099,9.84808741 53.077779,9.92347985 C53.0027481,9.99887229 52.9136502,10.0365679 52.8104828,10.0365679 L47.0847163,10.0365679 C46.9815489,10.0365679 46.892451,9.99887229 46.8174201,9.92347985 C46.7423892,9.84808741 46.7048743,9.75856024 46.7048743,9.65489564 L46.7048743,0.523032414 C46.7048743,0.419367813 46.7423892,0.329840638 46.8174201,0.254448201 C46.892451,0.179055765 46.9815489,0.141360112 47.0847163,0.141360112 L47.6615134,0.141360112 C47.7646809,0.141360112 47.8537788,0.179055765 47.9288097,0.254448201 C48.0038406,0.329840638 48.0413554,0.419367813 48.0413554,0.523032414 L48.0413554,8.76432693 L52.8104828,8.76432693 Z" id="GraphQL"></path>
                    </g>
                    <g id="GraphQL_Logo" transform="translate(10.190986, 0.000000)">
                        <g id="Group">
                            <g>
                                <rect id="Rectangle-path" transform="translate(9.170826, 13.281674) rotate(210.000728) translate(-9.170826, -13.281674) " x="8.44835169" y="-0.368768368" width="1.44494954" height="27.3008845"></rect>
                                <rect id="Rectangle-path" x="1.28829661" y="22.8606254" width="27.881176" height="1.41493804"></rect>
                                <rect id="Rectangle-path" transform="translate(9.174143, 26.985076) rotate(210.000728) translate(-9.174143, -26.985076) " x="1.12246629" y="26.2776226" width="16.1033533" height="1.41490691"></rect>
                                <rect id="Rectangle-path" transform="translate(21.288866, 6.436170) rotate(210.000728) translate(-21.288866, -6.436170) " x="13.2371898" y="5.72871611" width="16.1033533" height="1.41490691"></rect>
                                <rect id="Rectangle-path" transform="translate(9.178008, 6.430783) rotate(239.999272) translate(-9.178008, -6.430783) " x="8.45553307" y="-1.45348785" width="1.44494954" height="15.7685408"></rect>
                                <rect id="Rectangle-path" transform="translate(21.298781, 13.281930) rotate(239.999272) translate(-21.298781, -13.281930) " x="7.35849983" y="12.5744761" width="27.8805626" height="1.41490691"></rect>
                                <rect id="Rectangle-path" x="2.39379438" y="8.82205343" width="1.44498133" height="15.7688878"></rect>
                                <rect id="Rectangle-path" x="26.6276982" y="8.82205343" width="1.44498133" height="15.7688878"></rect>
                                <rect id="Rectangle-path" transform="translate(21.263608, 26.935274) rotate(239.999272) translate(-21.263608, -26.935274) " x="20.5836159" y="20.0789425" width="1.26215472" height="13.7143688"></rect>
                                <path d="M29.987715,25.0512222 C29.1520631,26.474684 27.2892559,26.9605362 25.8355698,26.1422588 C24.3818838,25.3239814 23.8857155,23.4999046 24.7213674,22.0764429 C25.5570192,20.6529811 27.4198265,20.1671289 28.8735125,20.9854063 C30.3359033,21.8122075 30.8320716,23.6277605 29.987715,25.0512222" id="Shape"></path>
                                <path d="M5.7364018,11.3365517 C4.90074994,12.7600135 3.03794268,13.2458657 1.58425664,12.4275883 C0.130570602,11.6093109 -0.365597687,9.78523414 0.470054168,8.36177238 C1.30570602,6.93831062 3.16851328,6.4524584 4.62219932,7.27073582 C6.07588536,8.09753696 6.57205365,9.91308998 5.7364018,11.3365517" id="Shape"></path>
                                <path d="M0.478758875,25.0512222 C-0.35689298,23.6277605 0.139275309,21.8122075 1.59296135,20.9854063 C3.04664739,20.1671289 4.90074994,20.6529811 5.7451065,22.0764429 C6.58075836,23.4999046 6.08459007,25.3154577 4.63090403,26.1422588 C3.16851328,26.9605362 1.31441073,26.474684 0.478758875,25.0512222" id="Shape"></path>
                                <path d="M24.7300721,11.3365517 C23.8944202,9.91308998 24.3905885,8.09753696 25.8442746,7.27073582 C27.2979606,6.4524584 29.1520631,6.93831062 29.9964197,8.36177238 C30.8320716,9.78523414 30.3359033,11.6007872 28.8822172,12.4275883 C27.4285312,13.2458657 25.5657239,12.7600135 24.7300721,11.3365517" id="Shape"></path>
                                <path d="M15.2332369,33.3959472 C13.5532285,33.3959472 12.1952943,32.0662464 12.1952943,30.4211678 C12.1952943,28.7760892 13.5532285,27.4463884 15.2332369,27.4463884 C16.9132454,27.4463884 18.2711796,28.7760892 18.2711796,30.4211678 C18.2711796,32.0577226 16.9132454,33.3959472 15.2332369,33.3959472" id="Shape"></path>
                                <path d="M15.2332369,5.96660618 C13.5532285,5.96660618 12.1952943,4.63690538 12.1952943,2.99182681 C12.1952943,1.34674825 13.5532285,0.0170474462 15.2332369,0.0170474462 C16.9132454,0.0170474462 18.2711796,1.34674825 18.2711796,2.99182681 C18.2711796,4.63690538 16.9132454,5.96660618 15.2332369,5.96660618" id="Shape"></path>
                            </g>
                        </g>
                    </g>
                </g>
                <path class="cloud fade-in" d="M431.517355,0 C496.621434,0 549.388873,44.5347377 549.388873,99.517596 C549.388873,102.668822 549.242473,105.824352 548.842313,108.911003 C592.713512,115.760183 626.019511,148.068855 625.999991,187.063118 C625.999991,231.072651 583.792872,266.678917 531.698873,266.678917 L232.301118,266.678917 C180.207119,266.678917 138,231.072651 138,187.063118 C138,147.573785 172.228319,115.011121 216.968159,108.78616 C216.211759,105.617714 215.796959,102.367475 215.796959,99.0225264 C215.796959,70.6959364 242.973678,47.7677573 276.509038,47.7677573 C294.291757,47.7677573 310.132237,54.3457253 321.243997,64.6302578 C338.011676,26.8758209 380.989836,0 431.517355,0 Z" id="Shape" stroke="#F6F8F9" stroke-width="1.5" stroke-dasharray="7,6"></path>
                <polyline id="line1" stroke="#D5DEF4" stroke-width="2" stroke-linecap="square" points="44 179 165 179 173.65321 209.725465 192.073846 209.328065 193.266048 209.328065 193.266048 207.738462 196.445252 209.328065 193.266048 210.917667 193.266048 209.725465"></polyline>
                <polyline id="line2" stroke="#D5DEF4" stroke-width="2" stroke-linecap="square" transform="translate(316.222626, 183.458833) scale(1, -1) translate(-316.222626, -183.458833) " points="275 157 326 157 326 208.328065 353.073846 208.328065 354.266048 208.328065 354.266048 206.738462 357.445252 208.328065 354.266048 209.917667 354.266048 208.725465"></polyline>
                <polyline id="line4" stroke="#FFFFFF" stroke-width="2" stroke-linecap="square" transform="translate(379.867188, 280.722626) scale(1, -1) rotate(90.000000) translate(-379.867188, -280.722626) " points="417.589814 -98.6445615 342.144561 -98.6445615 342.144561 657.000211 407.80661 657.000211 410.410609 657.000211 410.410609 660.089814 415.589814 657.000211 410.410609 654.089814 410.410609 656.089814 413.089814 657.000211 411.589814 658.589814"></polyline>
                <polyline id="line3" stroke="#D5DEF4" stroke-width="2" stroke-linecap="square" points="537 147 678 147 686.65321 177.725465 705.073846 177.328065 706.266048 177.328065 706.266048 175.738462 709.445252 177.328065 706.266048 178.917667 706.266048 177.725465"></polyline>
                <g id="Group-2" transform="translate(721.000000, 148.000000)" fill="#F6F8F9">
                    <g id="Group-4">
                        <g id="Group-5">
                            <g id="Group-7" transform="translate(15.000000, 27.000000)">
                                <path d="M13.2385869,35.7234243 C13.6177181,35.7234243 13.9727775,35.7909735 14.2929328,35.9201466 L17.5787366,37.2604657 C18.6102142,37.6823522 19.3913448,38.8306892 19.3913448,39.9339935 L19.393752,40.3594351 C19.393752,40.5727485 19.5730871,40.7493246 19.7849191,40.7493246 L24.9447143,40.7528798 C25.1565463,40.7528798 25.3358814,40.5751187 25.3358814,40.3641754 L25.3358814,39.9339935 C25.3358814,38.8306892 26.1170121,37.6823522 27.1521004,37.2569105 L30.4282755,35.9177765 C31.4296633,35.5041855 32.8607332,35.7874183 33.6274207,36.5399405 L33.9451688,36.8528001 C34.1425577,37.0435971 34.3062461,37.0459673 34.5036351,36.8492449 L38.1505162,33.2608398 C38.3033723,33.1138906 38.3033723,32.8590996 38.1505162,32.7121504 L37.8387861,32.4052161 C37.0456196,31.6242521 36.7724044,30.2708972 37.2008828,29.2517333 L38.5621444,26.0235908 C38.9906228,25.006797 40.1569026,24.2376837 41.2762424,24.2376837 L41.7179603,24.2376837 C41.9321996,24.2376837 42.1115346,24.0611076 42.1115346,23.8501644 L42.1115346,18.7697507 C42.1115346,18.5588074 41.9321996,18.3822314 41.7179603,18.3822314 L41.2762424,18.3822314 C40.1569026,18.3822314 38.9906228,17.611933 38.5621444,16.5963243 L37.2008828,13.3669967 C36.7687936,12.3466477 37.0456196,10.9944779 37.8363789,10.2170691 L38.1505162,9.90776471 C38.3033723,9.75963041 38.3033723,9.50483943 38.1505162,9.35789021 L34.5036351,5.77067016 C34.3062461,5.57276274 34.1425577,5.57276274 33.9451688,5.76711494 L33.6310315,6.07641934 C32.8607332,6.83249677 31.4416992,7.11809969 30.4282755,6.7021386 L27.1521004,5.36181951 C26.1146049,4.93637782 25.3358814,3.78804077 25.3358814,2.68592163 L25.3358814,2.25455457 C25.3358814,2.04361133 25.1565463,1.86703526 24.9447143,1.86703526 L19.7849191,1.86703526 C19.5766978,1.86940541 19.393752,2.04598148 19.393752,2.25810979 L19.3913448,2.68829178 C19.3913448,3.791596 18.6102142,4.93993304 17.5751258,5.36181951 L14.2929328,6.69858337 C13.279509,7.11572954 11.8568643,6.82894155 11.0925839,6.07049397 L10.7820574,5.76711494 C10.5786505,5.56802244 10.4173693,5.57276274 10.2259983,5.76711494 L6.57911718,9.35789021 C6.42626111,9.50483943 6.42626111,9.75963041 6.57911718,9.90776471 L6.89084728,10.214699 C7.68401384,10.9944779 7.95722903,12.3466477 7.52875058,13.3646266 L6.1686926,16.5963243 C5.73660339,17.611933 4.56911999,18.3822314 3.453391,18.3822314 L3.01287665,18.3822314 C2.79743384,18.3822314 2.61809876,18.5588074 2.61809876,18.7697507 L2.61809876,23.8501644 C2.61809876,24.0611076 2.79743384,24.2376837 3.01287665,24.2376837 L3.453391,24.2376837 C4.56911999,24.2376837 5.73660339,25.006797 6.16508183,26.0235908 L7.52875058,29.2541034 C7.95722903,30.2732674 7.68401384,31.6266223 6.89445806,32.402846 L6.57671,32.7145205 C6.42626111,32.8590996 6.42626111,33.1138906 6.57911718,33.264395 L10.2235911,36.8528001 C10.4173693,37.0459673 10.5786505,37.0495225 10.7784466,36.8551703 L11.0925839,36.5458659 C11.6125353,36.0339138 12.4153306,35.7234243 13.2385869,35.7234243 Z M24.9447143,42.603966 L24.9447143,42.603966 L19.7849191,42.6004107 C18.5331843,42.6004107 17.5137426,41.5966528 17.5137426,40.3618053 L17.5101319,39.9363636 C17.5101319,39.5832114 17.1875694,39.1056265 16.8577855,38.970528 L13.5731853,37.631394 C13.2734911,37.5081463 12.6596596,37.6242835 12.4237557,37.855373 L12.1072113,38.1658625 C11.2574759,39.0048952 9.74456186,39.0048952 8.89241934,38.1599372 L5.24794538,34.5727171 C4.36450949,33.6981322 4.36450949,32.2772281 5.2455382,31.4050134 L5.56569344,31.0921537 C5.8160404,30.8456583 5.92677078,30.2851181 5.79196858,29.9627779 L4.42829982,26.7310801 C4.28988684,26.4075548 3.80845039,26.0899549 3.453391,26.0899549 L3.01287665,26.0899549 C1.75993828,26.0899549 0.738089404,25.086197 0.738089404,23.8501644 L0.738089404,18.7697507 C0.738089404,17.5337181 1.75993828,16.5299602 3.01287665,16.5299602 L3.453391,16.5299602 C3.80845039,16.5299602 4.28988684,16.2123602 4.42829982,15.8852797 L5.79196858,12.6571372 C5.92677078,12.334797 5.8160404,11.7730717 5.56328626,11.5242061 L5.25155616,11.2184569 C4.36450949,10.3415019 4.36450949,8.92059777 5.24794538,8.04719798 L8.89482652,4.45642271 C9.74696905,3.61739007 11.2550687,3.6114647 12.1096184,4.45642271 L12.4213485,4.76335696 C12.6620668,4.99800168 13.2734911,5.11058375 13.5731853,4.98852109 L16.8577855,3.64938708 C17.1875694,3.51310353 17.5101319,3.03907379 17.5101319,2.68592163 L17.5137426,2.25455457 C17.5137426,1.02563247 18.5331843,0.0183192743 19.7849191,0.0159491256 L24.9447143,0.0159491256 C26.1964491,0.0159491256 27.2158908,1.02207725 27.2158908,2.25455457 L27.2158908,2.68592163 C27.2158908,3.03907379 27.542064,3.51665875 27.8718479,3.65175722 L31.148023,4.99207631 C31.4561423,5.1129539 32.0651595,4.99800168 32.3022669,4.76572711 L32.6176078,4.45642271 C33.4757683,3.61501992 34.9742392,3.61501992 35.8348069,4.45997793 L39.481688,8.04719798 C40.3663275,8.92059777 40.3663275,10.3415019 39.481688,11.2149017 L39.1675507,11.5265763 C38.9147966,11.7730717 38.8028626,12.334797 38.9376648,12.6583223 L40.3013336,15.8852797 C40.4361358,16.2123602 40.921183,16.5299602 41.2762424,16.5299602 L41.7179603,16.5299602 C42.9696951,16.5299602 43.991544,17.5337181 43.991544,18.7697507 L43.991544,23.8501644 C43.991544,25.086197 42.9696951,26.0899549 41.7179603,26.0899549 L41.2762424,26.0899549 C40.921183,26.0899549 40.4361358,26.4075548 40.3013336,26.7310801 L38.9376648,29.9627779 C38.8028626,30.2851181 38.9147966,30.8456583 39.1675507,31.0945239 L39.4780772,31.4014582 C40.3663275,32.2772281 40.3663275,33.6981322 39.4840952,34.5691619 L35.8348069,38.1599372 C34.9766464,39.0048952 33.4781754,39.0048952 32.6176078,38.1658625 L32.2998597,37.8530029 C32.0651595,37.6195433 31.4561423,37.4998507 31.148023,37.631394 L27.8718479,38.970528 C27.5480819,39.1008862 27.2158908,39.5891368 27.2158908,39.9339935 L27.2158908,40.3641754 C27.2158908,41.5966528 26.1964491,42.603966 24.9447143,42.603966 L24.9447143,42.603966 Z" id="Fill-104"></path>
                                <path d="M22.3654185,10.199293 C16.1416487,10.199293 11.0817516,15.1683097 11.0817516,21.2749978 C11.0817516,27.4207934 16.1416487,32.419437 22.3654185,32.419437 C28.5891883,32.419437 33.6490854,27.4207934 33.6490854,21.2749978 C33.6490854,15.1683097 28.5891883,10.199293 22.3654185,10.199293 Z M22.3654185,34.2717082 C15.1065604,34.2717082 9.20053867,28.4387723 9.20053867,21.2749978 C9.20053867,14.1455906 15.1065604,8.34820686 22.3654185,8.34820686 C29.623073,8.34820686 35.5290947,14.1455906 35.5290947,21.2749978 C35.5290947,28.4387723 29.623073,34.2717082 22.3654185,34.2717082 L22.3654185,34.2717082 Z" id="Fill-105"></path>
                            </g>
                            <polygon id="Fill-106" points="0.339019608 13.1665882 74.0645098 13.1665882 74.0645098 11.9116863 0.339019608 11.9116863"></polygon>
                            <path d="M10.2954902,7.01003922 C10.2954902,8.09427451 9.40205882,8.97019608 8.30470588,8.97019608 C7.20607843,8.97019608 6.31264706,8.09427451 6.31264706,7.01003922 C6.31264706,5.92454902 7.20607843,5.04862745 8.30470588,5.04862745 C9.40205882,5.04862745 10.2954902,5.92454902 10.2954902,7.01003922" id="Fill-107"></path>
                            <path d="M17.2657843,7.01003922 C17.2657843,8.09427451 16.3723529,8.97019608 15.2737255,8.97019608 C14.1763725,8.97019608 13.2829412,8.09427451 13.2829412,7.01003922 C13.2829412,5.92454902 14.1763725,5.04862745 15.2737255,5.04862745 C16.3723529,5.04862745 17.2657843,5.92454902 17.2657843,7.01003922" id="Fill-108"></path>
                            <path d="M24.2360784,7.01003922 C24.2360784,8.09427451 23.3426471,8.97019608 22.2440196,8.97019608 C21.1453922,8.97019608 20.2532353,8.09427451 20.2532353,7.01003922 C20.2532353,5.92454902 21.1453922,5.04862745 22.2440196,5.04862745 C23.3426471,5.04862745 24.2360784,5.92454902 24.2360784,7.01003922" id="Fill-109"></path>
                            <path d="M59.085,0.146980392 L5.3172549,0.146980392 C2.57323529,0.146980392 0.339019608,2.34682353 0.339019608,5.04862745 L0.339019608,47.2058039 C0.339019608,49.9076078 2.57323529,52.107451 5.3172549,52.107451 L10.4267647,52.107451 C10.5070588,51.4272941 10.7288235,50.763451 11.0729412,50.1472941 L5.3172549,50.1472941 C3.67058824,50.1472941 2.32980392,48.8271373 2.32980392,47.2058039 L2.32980392,5.04862745 C2.32980392,3.42854902 3.67058824,2.10839216 5.3172549,2.10839216 L69.085,2.10839216 C70.7316667,2.10839216 72.072451,3.42854902 72.072451,5.04862745 L72.072451,47.2058039 C72.072451,48.8271373 70.7316667,50.1472941 69.085,50.1472941 L63.3293137,50.1472941 C63.6747059,50.763451 63.8951961,51.4272941 63.9767647,52.107451 L69.085,52.107451 C71.8302941,52.107451 74.0645098,49.9076078 74.0645098,47.2058039 L74.0645098,5.04862745 C74.0645098,2.34682353 71.8302941,0.146980392 69.085,0.146980392" id="Fill-110"></path>
                        </g>
                    </g>
                </g>
            </g>
            <g id="Group-3" transform="translate(402.000000, 132.000000)" fill="#FFFFFF">
                <g>
                    <path class="platform fade-in" d="M35.5766667,35.2230108 C36.1311497,35.2230108 36.6203921,35.1382087 37.0444086,34.9686022 C37.4684251,34.7989956 37.8239412,34.5625284 38.1109677,34.2591935 C38.3979943,33.9558587 38.6165225,33.5938193 38.7665591,33.1730645 C38.9165957,32.7523097 38.9916129,32.2940527 38.9916129,31.7982796 C38.9916129,31.4199264 38.9361654,31.0807183 38.8252688,30.7806452 C38.7143722,30.480572 38.5480298,30.2245351 38.3262366,30.0125269 C38.1044433,29.8005187 37.8239443,29.6374378 37.4847312,29.5232796 C37.145518,29.4091213 36.7508625,29.352043 36.3007527,29.352043 L34.2654839,29.352043 L33.5413978,35.2230108 L35.5766667,35.2230108 Z M36.4768817,27.9136559 C37.2205414,27.9136559 37.8663413,28.0017195 38.4143011,28.1778495 C38.9622608,28.3539794 39.4139946,28.6051238 39.7695161,28.9312903 C40.1250376,29.2574568 40.3908593,29.6488508 40.5669892,30.1054839 C40.7431192,30.562117 40.8311828,31.0709291 40.8311828,31.6319355 C40.8311828,32.3690718 40.710503,33.0458571 40.4691398,33.6623118 C40.2277766,34.2787665 39.8771528,34.8087791 39.4172581,35.2523656 C38.9573633,35.695952 38.3898421,36.0433142 37.7146774,36.2944624 C37.0395128,36.5456106 36.2681405,36.6711828 35.4005376,36.6711828 L33.3652688,36.6711828 L32.7194624,41.9354839 L30.8994624,41.9354839 L32.611828,27.9136559 L36.4768817,27.9136559 Z M41.5650538,41.9354839 L43.3165591,27.5222581 L45.0289247,27.5222581 L43.2774194,41.9354839 L41.5650538,41.9354839 Z M52.7101075,33.2366667 C52.5665943,33.20405 52.424714,33.1828495 52.2844624,33.1730645 C52.1442108,33.1632795 52.0055921,33.1583871 51.8686022,33.1583871 C51.4772023,33.1583871 51.0988549,33.2219886 50.7335484,33.3491935 C50.3682419,33.4763985 50.0257722,33.6541566 49.706129,33.8824731 C49.3864859,34.1107897 49.096202,34.3831346 48.8352688,34.6995161 C48.5743356,35.0158976 48.3509149,35.3632598 48.165,35.7416129 C47.9790851,36.119966 47.8339432,36.5227756 47.7295699,36.9500538 C47.6251966,37.3773319 47.5730108,37.8160193 47.5730108,38.266129 C47.5730108,39.8382516 48.0752996,40.6243011 49.0798925,40.6243011 C49.3995356,40.6243011 49.7126508,40.5248218 50.0192473,40.3258602 C50.3258438,40.1268986 50.6177585,39.8496613 50.895,39.4941398 C51.1722415,39.1386183 51.4282784,38.7178698 51.6631183,38.2318817 C51.8979582,37.7458936 52.1067016,37.2126194 52.2893548,36.632043 L52.7101075,33.2366667 Z M52.0447312,39.3229032 C51.8098913,39.7403964 51.557116,40.1187438 51.2863978,40.457957 C51.0156797,40.7971702 50.7286574,41.0858232 50.4253226,41.3239247 C50.1219877,41.5620263 49.8023494,41.7463076 49.4663978,41.8767742 C49.1304463,42.0072408 48.7830842,42.0724731 48.4243011,42.0724731 C48.0329013,42.0724731 47.6773851,41.9958251 47.3577419,41.8425269 C47.0380988,41.6892286 46.7657538,41.4641771 46.5406989,41.1673656 C46.315644,40.8705541 46.1411476,40.5052531 46.0172043,40.0714516 C45.893261,39.6376502 45.8312903,39.1402537 45.8312903,38.5792473 C45.8312903,37.9921476 45.9046767,37.419734 46.0514516,36.8619892 C46.1982265,36.3042445 46.40697,35.7774935 46.6776882,35.2817204 C46.9484064,34.7859473 47.2729372,34.3309519 47.6512903,33.9167204 C48.0296435,33.502489 48.4520228,33.1437112 48.9184409,32.8403763 C49.384859,32.5370415 49.885517,32.3022051 50.4204301,32.1358602 C50.9553432,31.9695153 51.5163412,31.8863441 52.1034409,31.8863441 C52.5274573,31.8863441 52.9400518,31.9205911 53.3412366,31.989086 C53.7424214,32.057581 54.1387077,32.17663 54.5301075,32.3462366 L53.346129,41.9354839 L52.445914,41.9354839 C52.2175974,41.9354839 52.0626707,41.8767748 51.981129,41.7593548 C51.8995874,41.6419349 51.8588172,41.4984238 51.8588172,41.3288172 L52.0447312,39.3229032 Z M65.362043,32.2288172 L67.9746237,32.2288172 L67.8278495,33.4617204 L65.2739785,33.4617204 L64.2856989,41.6223656 L63.8258065,43.6478495 C63.7540498,43.8826893 63.6480473,44.063709 63.5077957,44.190914 C63.3675441,44.3181189 63.1734779,44.3817204 62.9255914,44.3817204 L62.2406452,44.3817204 L63.5713978,33.4617204 L59.177957,33.4617204 L58.5712903,38.3541935 C58.5386737,38.6216501 58.5125807,38.8369167 58.4930108,39 C58.4734408,39.1630833 58.4587635,39.2935479 58.4489785,39.3913978 C58.4391935,39.4892478 58.4343011,39.5577417 58.4343011,39.5968817 L58.4343011,39.6849462 C58.4343011,40.0176361 58.5109491,40.2638881 58.6642473,40.4237097 C58.8175456,40.5835313 59.0279198,40.6634409 59.2953763,40.6634409 C59.4649829,40.6634409 59.6150173,40.6389787 59.7454839,40.5900538 C59.8759505,40.5411288 59.9884762,40.4873121 60.0830645,40.4286022 C60.1776528,40.3698922 60.2575624,40.3160755 60.3227957,40.2671505 C60.388029,40.2182256 60.4467381,40.1937634 60.4989247,40.1937634 C60.5511114,40.1937634 60.5918816,40.2068099 60.6212366,40.2329032 C60.6505915,40.2589965 60.6815769,40.3013976 60.7141935,40.3601075 L61.0762366,41.191828 C60.7631167,41.4723312 60.4027081,41.6924902 59.995,41.8523118 C59.5872919,42.0121334 59.177959,42.092043 58.7669892,42.092043 C58.1342262,42.092043 57.635199,41.9191774 57.2698925,41.5734409 C56.904586,41.2277044 56.7154123,40.7254155 56.7023656,40.0665591 C56.7023656,40.0274192 56.7039964,39.9768641 56.7072581,39.9148925 C56.7105197,39.8529208 56.717043,39.7632264 56.726828,39.6458065 C56.736613,39.5283865 56.7512902,39.3750906 56.7708602,39.185914 C56.7904302,38.9967374 56.8197848,38.7488546 56.8589247,38.4422581 L57.4753763,33.4617204 L56.3990323,33.4617204 C56.3011823,33.4617204 56.2229035,33.4291043 56.1641935,33.363871 C56.1054836,33.2986377 56.0826523,33.2040508 56.0956989,33.0801075 L56.1739785,32.4147312 L57.6808602,32.2190323 L58.4245161,29.1367742 C58.4571328,29.0389242 58.5076878,28.9590146 58.5761828,28.897043 C58.6446778,28.8350714 58.7311106,28.804086 58.8354839,28.804086 L59.7552688,28.804086 L59.3247312,32.2288172 L63.718172,32.2288172 L63.8355914,31.2698925 C63.907348,30.7023628 64.0492283,30.1984431 64.2612366,29.7581183 C64.4732448,29.3177935 64.7406973,28.9459693 65.0636022,28.6426344 C65.386507,28.3392996 65.7550696,28.1093556 66.1693011,27.9527957 C66.5835325,27.7962358 67.0320048,27.717957 67.5147312,27.717957 C67.9126543,27.717957 68.2812169,27.7831893 68.6204301,27.9136559 L68.454086,28.813871 C68.4410394,28.8791043 68.410054,28.9263977 68.361129,28.9557527 C68.3122041,28.9851077 68.2518642,29.0030466 68.1801075,29.0095699 C68.1083509,29.0160932 68.0251797,29.017724 67.9305914,29.0144624 C67.8360031,29.0112007 67.7332622,29.0095699 67.6223656,29.0095699 C67.3418624,29.0095699 67.0825639,29.0503401 66.8444624,29.1318817 C66.6063608,29.2134233 66.3943558,29.3455188 66.2084409,29.528172 C66.022526,29.7108253 65.8675992,29.9489233 65.7436559,30.2424731 C65.6197126,30.536023 65.531649,30.8948007 65.4794624,31.3188172 L65.362043,32.2288172 Z M72.2408602,40.7123656 C72.7170633,40.7123656 73.1492274,40.5819009 73.5373656,40.3209677 C73.9255037,40.0600345 74.2581886,39.7126724 74.5354301,39.278871 C74.8126716,38.8450695 75.0263075,38.3444114 75.1763441,37.7768817 C75.3263807,37.209352 75.4013978,36.6157379 75.4013978,35.9960215 C75.4013978,35.0827553 75.2203782,34.3961851 74.8583333,33.9362903 C74.4962885,33.4763955 73.9760607,33.2464516 73.2976344,33.2464516 C72.814908,33.2464516 72.3794822,33.3752854 71.9913441,33.632957 C71.6032059,33.8906285 71.2721519,34.234729 70.998172,34.6652688 C70.7241922,35.0958086 70.5121871,35.5948359 70.3621505,36.1623656 C70.2121139,36.7298953 70.1370968,37.3235094 70.1370968,37.9432258 C70.1370968,38.856492 70.3164857,39.5463238 70.6752688,40.0127419 C71.034052,40.47916 71.5559106,40.7123656 72.2408602,40.7123656 Z M72.0745161,42.0724731 C71.5330797,42.0724731 71.0373141,41.9795171 70.5872043,41.7936022 C70.1370945,41.6076872 69.7489622,41.3386039 69.4227957,40.9863441 C69.0966292,40.6340843 68.8422231,40.2035509 68.6595699,39.6947312 C68.4769166,39.1859114 68.3855914,38.6053438 68.3855914,37.9530108 C68.3855914,37.1180245 68.516056,36.331975 68.7769892,35.5948387 C69.0379225,34.8577024 69.3967002,34.2135332 69.8533333,33.6623118 C70.3099664,33.1110904 70.8465023,32.6756647 71.462957,32.3560215 C72.0794117,32.0363783 72.7431506,31.8765591 73.4541935,31.8765591 C73.9956299,31.8765591 74.4913956,31.9695152 74.9415054,32.1554301 C75.3916152,32.341345 75.7797475,32.6104283 76.105914,32.9626882 C76.4320805,33.314948 76.6864865,33.7454813 76.8691398,34.2543011 C77.051793,34.7631208 77.1431183,35.3404269 77.1431183,35.9862366 C77.1431183,36.8146995 77.0126536,37.5974874 76.7517204,38.3346237 C76.4907872,39.07176 76.1336403,39.71756 75.6802688,40.272043 C75.2268974,40.8265261 74.6903615,41.2652134 74.0706452,41.5881183 C73.4509288,41.9110231 72.7855591,42.0724731 72.0745161,42.0724731 Z M81.0277419,34.7826882 C81.2886751,34.2282051 81.5708049,33.7471167 81.8741398,33.3394086 C82.1774746,32.9317005 82.4954822,32.6120621 82.828172,32.3804839 C83.1608619,32.1489057 83.5033316,32.0086562 83.8555914,31.9597312 C84.2078512,31.9108062 84.566629,31.9646229 84.9319355,32.1211828 L84.6188172,33.7944086 C83.7707843,33.4551954 83.0222434,33.5791368 82.373172,34.1662366 C81.7241007,34.7533363 81.1973497,35.8133615 80.7929032,37.3463441 L80.2449462,41.9354839 L78.5423656,41.9354839 L79.736129,32.0135484 L80.5972043,32.0135484 C80.9951274,32.0135484 81.194086,32.2092454 81.194086,32.6006452 L81.0277419,34.7826882 Z M85.2352688,41.9354839 L86.4290323,32.0135484 L87.2901075,32.0135484 C87.6880307,32.0135484 87.8869892,32.2092454 87.8869892,32.6006452 L87.75,34.3619355 C88.2392498,33.5465192 88.7757856,32.928443 89.3596237,32.5076882 C89.9434617,32.0869334 90.5550147,31.8765591 91.1943011,31.8765591 C91.8662041,31.8765591 92.3619697,32.1065031 92.6816129,32.5663978 C93.0012561,33.0262926 93.1610753,33.6835083 93.1610753,34.5380645 C93.650325,33.6313216 94.203169,32.9610595 94.8196237,32.5272581 C95.4360784,32.0934566 96.0867708,31.8765591 96.7717204,31.8765591 C97.6197533,31.8765591 98.2198907,32.2027208 98.5721505,32.8550538 C98.9244104,33.5073868 99.0287821,34.4304241 98.8852688,35.6241935 L98.1416129,41.9354839 L96.4194624,41.9354839 L97.1729032,35.6241935 C97.2642298,34.8479173 97.2397677,34.2706112 97.0995161,33.8922581 C96.9592645,33.5139049 96.6445186,33.3247312 96.1552688,33.3247312 C95.8747656,33.3247312 95.5958974,33.3948559 95.3186559,33.5351075 C95.0414144,33.6753591 94.7723311,33.8808409 94.5113978,34.1515591 C94.2504646,34.4222773 94.0074742,34.7582238 93.7824194,35.1594086 C93.5573645,35.5605934 93.3567751,36.0221121 93.1806452,36.5439785 L93.1806452,36.5537634 L92.5446237,41.9354839 L90.8224731,41.9354839 L91.566129,35.6241935 C91.663979,34.8479173 91.6509325,34.2706112 91.5269892,33.8922581 C91.403046,33.5139049 91.0964541,33.3247312 90.6072043,33.3247312 C90.2940845,33.3247312 89.992385,33.40301 89.7020968,33.5595699 C89.4118086,33.7161298 89.1378328,33.9428121 88.8801613,34.2396237 C88.6224898,34.5364352 88.382761,34.8984746 88.1609677,35.3257527 C87.9391745,35.7530308 87.7369543,36.2341192 87.5543011,36.7690323 L86.9378495,41.9354839 L85.2352688,41.9354839 Z" id="TravelgateX-Platform"></path>
                    <path class="travelgatex fade-in" d="M14.2412903,2.95645161 L8.59258065,2.95645161 L8.59258065,18.6193548 L5.66129032,18.6193548 L5.66129032,2.95645161 L0,2.95645161 L0,0.503225806 L14.2412903,0.503225806 L14.2412903,2.95645161 Z M16.166129,8.16483871 C16.5687117,7.35128625 17.0551584,6.71177652 17.6254839,6.24629032 C18.1958093,5.78080412 18.8793509,5.54806452 19.676129,5.54806452 C19.9529046,5.54806452 20.212902,5.57951581 20.456129,5.64241935 C20.6993561,5.7053229 20.9174184,5.79967679 21.1103226,5.92548387 L20.9216129,7.96354839 C20.8880643,8.10612975 20.8356455,8.20467715 20.7643548,8.25919355 C20.6930642,8.31370995 20.5987103,8.34096774 20.4812903,8.34096774 C20.3554832,8.34096774 20.1751625,8.31790346 19.9403226,8.27177419 C19.7054827,8.22564493 19.4580658,8.20258065 19.1980645,8.20258065 C18.8206433,8.20258065 18.4872595,8.25709623 18.1979032,8.36612903 C17.9085469,8.47516184 17.6485495,8.63451508 17.4179032,8.84419355 C17.1872569,9.05387202 16.9838718,9.30967591 16.8077419,9.6116129 C16.631612,9.9135499 16.4680653,10.2574174 16.3170968,10.6432258 L16.3170968,18.6193548 L13.6122581,18.6193548 L13.6122581,5.78709677 L15.1848387,5.78709677 C15.4700014,5.78709677 15.6670962,5.8395156 15.776129,5.94435484 C15.8851618,6.04919407 15.960645,6.2316116 16.0025806,6.4916129 L16.166129,8.16483871 Z M29.5645161,13.0083871 C28.5999952,13.0419357 27.7864549,13.1195155 27.123871,13.241129 C26.461287,13.3627425 25.9245182,13.5179023 25.5135484,13.7066129 C25.1025786,13.8953235 24.8069364,14.1196761 24.6266129,14.3796774 C24.4462894,14.6396787 24.356129,14.9248372 24.356129,15.2351613 C24.356129,15.5370983 24.4043544,15.7949989 24.5008065,16.008871 C24.5972585,16.222743 24.7314508,16.3988703 24.9033871,16.5372581 C25.0753234,16.6756459 25.2766117,16.77629 25.5072581,16.8391935 C25.7379044,16.9020971 25.9916115,16.9335484 26.2683871,16.9335484 C26.9729067,16.9335484 27.5788684,16.8014529 28.0862903,16.5372581 C28.5937122,16.2730632 29.0864492,15.8893574 29.5645161,15.386129 L29.5645161,13.0083871 Z M22.3935484,7.57354839 C23.8445234,6.22321905 25.572248,5.54806452 27.5767742,5.54806452 C28.3148424,5.54806452 28.9711262,5.66757945 29.5456452,5.9066129 C30.1201642,6.14564636 30.6024174,6.48322363 30.9924194,6.91935484 C31.3824213,7.35548605 31.6801603,7.8733841 31.8856452,8.47306452 C32.0911301,9.07274493 32.193871,9.73741571 32.193871,10.4670968 L32.193871,18.6193548 L30.986129,18.6193548 C30.7261277,18.6193548 30.5290329,18.5795165 30.3948387,18.4998387 C30.2606445,18.4201609 30.1474198,18.2587109 30.0551613,18.0154839 L29.7909677,16.9712903 C29.4638693,17.2648402 29.1409693,17.5269343 28.8222581,17.7575806 C28.5035468,17.988227 28.1743565,18.183225 27.8346774,18.3425806 C27.4949983,18.5019363 27.1301632,18.6214512 26.7401613,18.701129 C26.3501593,18.7808069 25.9203249,18.8206452 25.4506452,18.8206452 C24.9306426,18.8206452 24.4462926,18.7493556 23.9975806,18.6067742 C23.5488687,18.4641928 23.1609694,18.2482273 22.833871,17.958871 C22.5067726,17.6695147 22.2488719,17.3109699 22.0601613,16.8832258 C21.8714507,16.4554817 21.7770968,15.952261 21.7770968,15.3735484 C21.7770968,14.8787072 21.9091922,14.396454 22.1733871,13.9267742 C22.437582,13.4570944 22.8737066,13.035647 23.4817742,12.6624194 C24.0898417,12.2891917 24.8908015,11.980969 25.8846774,11.7377419 C26.8785534,11.4945149 28.105154,11.3561292 29.5645161,11.3225806 L29.5645161,10.4670968 C29.5645161,9.54451152 29.3674213,8.85677646 28.9732258,8.40387097 C28.5790303,7.95096548 28.0003264,7.72451613 27.2370968,7.72451613 C26.7170942,7.72451613 26.2809695,7.78951548 25.9287097,7.91951613 C25.5764499,8.04951678 25.2703239,8.18999925 25.0103226,8.34096774 C24.7503213,8.49193624 24.5196784,8.6324187 24.3183871,8.76241935 C24.1170958,8.89242 23.9032269,8.95741935 23.6767742,8.95741935 C23.4922571,8.95741935 23.3350006,8.90919403 23.205,8.81274194 C23.0749993,8.71628984 22.9680649,8.59677491 22.8841935,8.45419355 L22.3935484,7.57354839 Z M46.3596774,5.78709677 L41.2016129,18.6193548 L38.7609677,18.6193548 L33.6029032,5.78709677 L35.8296774,5.78709677 C36.0393559,5.78709677 36.2133864,5.8395156 36.3517742,5.94435484 C36.490162,6.04919407 36.5803224,6.17290251 36.6222581,6.31548387 L39.4654839,13.7883871 C39.5829038,14.1406469 39.6877415,14.488708 39.78,14.8325806 C39.8722585,15.1764533 39.9519351,15.5245144 40.0190323,15.8767742 C40.0861294,15.5245144 40.1679027,15.1785501 40.2643548,14.838871 C40.3608069,14.4991919 40.4677413,14.1490341 40.5851613,13.7883871 L43.4787097,6.31548387 C43.5290325,6.16451537 43.6212897,6.03871018 43.7554839,5.93806452 C43.8896781,5.83741885 44.0532248,5.78709677 44.246129,5.78709677 L46.3596774,5.78709677 Z M56.2480645,10.7564516 C56.2480645,10.3035461 56.1830652,9.88209872 56.0530645,9.49209677 C55.9230639,9.10209482 55.7322593,8.7624208 55.4806452,8.47306452 C55.229031,8.18370823 54.9166148,7.95725888 54.5433871,7.79370968 C54.1701594,7.63016047 53.740325,7.5483871 53.253871,7.5483871 C52.2725757,7.5483871 51.5009706,7.82935203 50.9390323,8.39129032 C50.377094,8.95322862 50.0206459,9.74160783 49.8696774,10.7564516 L56.2480645,10.7564516 Z M49.7941935,12.4170968 C49.8277421,13.1467778 49.9409668,13.7779006 50.133871,14.3104839 C50.3267752,14.8430672 50.5846758,15.2854821 50.9075806,15.6377419 C51.2304855,15.9900018 51.6162881,16.2520959 52.065,16.4240323 C52.5137119,16.5959686 53.0148359,16.6819355 53.5683871,16.6819355 C54.0967768,16.6819355 54.553869,16.6211296 54.9396774,16.4995161 C55.3254858,16.3779026 55.6609663,16.2437104 55.946129,16.0969355 C56.2312917,15.9501606 56.4745151,15.8159684 56.6758065,15.6943548 C56.8770978,15.5727413 57.0616121,15.5119355 57.2293548,15.5119355 C57.4474204,15.5119355 57.6151607,15.5958056 57.7325806,15.7635484 L58.5,16.7574194 C58.1812887,17.1348406 57.8206472,17.4535471 57.4180645,17.7135484 C57.0154819,17.9735497 56.5877442,18.1853218 56.1348387,18.348871 C55.6819332,18.5124202 55.216454,18.6298384 54.7383871,18.701129 C54.2603202,18.7724197 53.794841,18.8080645 53.3419355,18.8080645 C52.4528988,18.8080645 51.6288748,18.659195 50.8698387,18.3614516 C50.1108027,18.0637082 49.4524221,17.6254868 48.8946774,17.0467742 C48.3369327,16.4680616 47.900808,15.750972 47.5862903,14.8954839 C47.2717726,14.0399957 47.1145161,13.0545217 47.1145161,11.9390323 C47.1145161,11.0499956 47.2549986,10.2196813 47.5359677,9.44806452 C47.8169369,8.67644775 48.2195135,8.00548672 48.7437097,7.43516129 C49.2679058,6.86483586 49.9053188,6.41403391 50.6559677,6.08274194 C51.4066167,5.75144996 52.2558017,5.58580645 53.2035484,5.58580645 C53.9919394,5.58580645 54.7216095,5.7137084 55.3925806,5.96951613 C56.0635517,6.22532386 56.6422556,6.60064269 57.1287097,7.09548387 C57.6151637,7.59032505 57.9946761,8.19628674 58.2672581,8.9133871 C58.5398401,9.63048746 58.676129,10.4461245 58.676129,11.3603226 C58.676129,11.7796795 58.6300005,12.0606444 58.5377419,12.2032258 C58.4454834,12.3458072 58.2777432,12.4170968 58.0345161,12.4170968 L49.7941935,12.4170968 Z M63.9474194,0 L63.9474194,18.6193548 L61.2425806,18.6193548 L61.2425806,0 L63.9474194,0 Z M71.8732258,12.09 C72.7119397,12.09 73.3409656,11.8761312 73.7603226,11.4483871 C74.1796795,11.020643 74.3893548,10.4629067 74.3893548,9.77516129 C74.3893548,9.07064164 74.1796795,8.51290528 73.7603226,8.10193548 C73.3409656,7.69096569 72.7119397,7.48548387 71.8732258,7.48548387 C71.0428991,7.48548387 70.4159699,7.69096569 69.9924194,8.10193548 C69.5688689,8.51290528 69.3570968,9.07064164 69.3570968,9.77516129 C69.3570968,10.1106468 69.4116124,10.4209663 69.5206452,10.706129 C69.629678,10.9912917 69.7890312,11.2366119 69.9987097,11.4420968 C70.2083881,11.6475817 70.4704823,11.8069349 70.785,11.9201613 C71.0995177,12.0333877 71.462256,12.09 71.8732258,12.09 Z M75.6348387,19.2483871 C75.6348387,18.9632244 75.5530653,18.7346783 75.3895161,18.5627419 C75.2259669,18.3908056 75.0058078,18.2566134 74.7290323,18.1601613 C74.4522567,18.0637092 74.1293567,17.9924196 73.7603226,17.9462903 C73.3912885,17.9001611 72.9991956,17.866613 72.5840323,17.8456452 C72.1688689,17.8246773 71.7453247,17.8037098 71.3133871,17.7827419 C70.8814495,17.7617741 70.4641956,17.7219358 70.0616129,17.6632258 C69.6590302,17.8729043 69.32984,18.1245147 69.0740323,18.4180645 C68.8182245,18.7116144 68.6903226,19.0512884 68.6903226,19.4370968 C68.6903226,19.6887109 68.7553219,19.9235473 68.8853226,20.1416129 C69.0153232,20.3596785 69.2166115,20.5483863 69.4891935,20.7077419 C69.7617756,20.8670976 70.1098366,20.9929028 70.5333871,21.0851613 C70.9569376,21.1774198 71.4664486,21.2235484 72.0619355,21.2235484 C73.2529092,21.2235484 74.1461261,21.0390341 74.7416129,20.67 C75.3370998,20.3009659 75.6348387,19.8270997 75.6348387,19.2483871 Z M78.3522581,6.25258065 L78.3522581,7.25903226 C78.3522581,7.59451781 78.1509698,7.79999962 77.7483871,7.87548387 L76.4651613,8.08935484 C76.6832269,8.57580888 76.7922581,9.11677122 76.7922581,9.71225806 C76.7922581,10.3412935 76.6685496,10.9116103 76.421129,11.4232258 C76.1737084,11.9348413 75.8319377,12.3709659 75.3958065,12.7316129 C74.9596752,13.0922599 74.4396804,13.3690313 73.8358065,13.5619355 C73.2319325,13.7548397 72.5777455,13.8512903 71.8732258,13.8512903 C71.6048374,13.8512903 71.3427432,13.8366131 71.0869355,13.8072581 C70.8311278,13.7779031 70.5816141,13.7380648 70.3383871,13.6877419 C70.0951601,13.8303233 69.9148393,13.9812895 69.7974194,14.1406452 C69.6799994,14.3000008 69.6212903,14.4635475 69.6212903,14.6312903 C69.6212903,14.9080659 69.742902,15.1135477 69.986129,15.2477419 C70.2293561,15.3819362 70.5501593,15.4783868 70.9485484,15.5370968 C71.3469375,15.5958067 71.8019329,15.6335483 72.3135484,15.6503226 C72.8251638,15.6670969 73.3451586,15.6964514 73.8735484,15.7383871 C74.4019381,15.7803228 74.9219329,15.8495156 75.4335484,15.9459677 C75.9451638,16.0424198 76.4001593,16.2017731 76.7985484,16.4240323 C77.1969375,16.6462914 77.5177407,16.9461271 77.7609677,17.3235484 C78.0041948,17.7009696 78.1258065,18.1916099 78.1258065,18.7954839 C78.1258065,19.349035 77.9874207,19.8899974 77.7106452,20.4183871 C77.4338696,20.9467768 77.0333897,21.4164496 76.5091935,21.8274194 C75.9849974,22.2383892 75.3454876,22.5675794 74.5906452,22.815 C73.8358027,23.0624206 72.9761339,23.186129 72.0116129,23.186129 C71.0554791,23.186129 70.2230681,23.0938719 69.5143548,22.9093548 C68.8056416,22.7248378 68.2143572,22.4753242 67.7404839,22.1608065 C67.2666105,21.8462888 66.914356,21.4835504 66.6837097,21.0725806 C66.4530634,20.6616108 66.3377419,20.2338732 66.3377419,19.7893548 C66.3377419,19.1854809 66.5285465,18.6696796 66.9101613,18.2419355 C67.2917761,17.8141914 67.8096741,17.4787109 68.463871,17.2354839 C68.1116111,17.0677411 67.8285495,16.8370982 67.6146774,16.5435484 C67.4008054,16.2499985 67.293871,15.8641959 67.293871,15.386129 C67.293871,15.0087078 67.4322567,14.6145182 67.7090323,14.2035484 C67.9858078,13.7925786 68.400965,13.4445176 68.9545161,13.1593548 C68.3170936,12.807095 67.8138728,12.339519 67.4448387,11.7566129 C67.0758046,11.1737068 66.8912903,10.492262 66.8912903,9.71225806 C66.8912903,9.07483552 67.0149988,8.50032514 67.2624194,7.98870968 C67.5098399,7.47709422 67.8558042,7.04096955 68.3003226,6.68032258 C68.7448409,6.31967562 69.271126,6.04290419 69.8791935,5.85 C70.4872611,5.65709581 71.1519319,5.56064516 71.8732258,5.56064516 C72.9803281,5.56064516 73.9448346,5.79128802 74.7667742,6.25258065 L78.3522581,6.25258065 Z M87.3474194,13.0083871 C86.3828984,13.0419357 85.5693582,13.1195155 84.9067742,13.241129 C84.2441902,13.3627425 83.7074214,13.5179023 83.2964516,13.7066129 C82.8854818,13.8953235 82.5898396,14.1196761 82.4095161,14.3796774 C82.2291926,14.6396787 82.1390323,14.9248372 82.1390323,15.2351613 C82.1390323,15.5370983 82.1872576,15.7949989 82.2837097,16.008871 C82.3801618,16.222743 82.514354,16.3988703 82.6862903,16.5372581 C82.8582267,16.6756459 83.059515,16.77629 83.2901613,16.8391935 C83.5208076,16.9020971 83.7745147,16.9335484 84.0512903,16.9335484 C84.75581,16.9335484 85.3617717,16.8014529 85.8691935,16.5372581 C86.3766154,16.2730632 86.8693524,15.8893574 87.3474194,15.386129 L87.3474194,13.0083871 Z M80.1764516,7.57354839 C81.6274266,6.22321905 83.3551513,5.54806452 85.3596774,5.54806452 C86.0977456,5.54806452 86.7540294,5.66757945 87.3285484,5.9066129 C87.9030674,6.14564636 88.3853206,6.48322363 88.7753226,6.91935484 C89.1653245,7.35548605 89.4630635,7.8733841 89.6685484,8.47306452 C89.8740333,9.07274493 89.9767742,9.73741571 89.9767742,10.4670968 L89.9767742,18.6193548 L88.7690323,18.6193548 C88.509031,18.6193548 88.3119362,18.5795165 88.1777419,18.4998387 C88.0435477,18.4201609 87.930323,18.2587109 87.8380645,18.0154839 L87.573871,16.9712903 C87.2467726,17.2648402 86.9238726,17.5269343 86.6051613,17.7575806 C86.28645,17.988227 85.9572598,18.183225 85.6175806,18.3425806 C85.2779015,18.5019363 84.9130665,18.6214512 84.5230645,18.701129 C84.1330626,18.7808069 83.7032282,18.8206452 83.2335484,18.8206452 C82.7135458,18.8206452 82.2291958,18.7493556 81.7804839,18.6067742 C81.3317719,18.4641928 80.9438726,18.2482273 80.6167742,17.958871 C80.2896758,17.6695147 80.0317751,17.3109699 79.8430645,16.8832258 C79.6543539,16.4554817 79.56,15.952261 79.56,15.3735484 C79.56,14.8787072 79.6920955,14.396454 79.9562903,13.9267742 C80.2204852,13.4570944 80.6566099,13.035647 81.2646774,12.6624194 C81.872745,12.2891917 82.6737047,11.980969 83.6675806,11.7377419 C84.6614566,11.4945149 85.8880572,11.3561292 87.3474194,11.3225806 L87.3474194,10.4670968 C87.3474194,9.54451152 87.1503246,8.85677646 86.756129,8.40387097 C86.3619335,7.95096548 85.7832296,7.72451613 85.02,7.72451613 C84.4999974,7.72451613 84.0638727,7.78951548 83.7116129,7.91951613 C83.3593531,8.04951678 83.0532271,8.18999925 82.7932258,8.34096774 C82.5332245,8.49193624 82.3025817,8.6324187 82.1012903,8.76241935 C81.899999,8.89242 81.6861302,8.95741935 81.4596774,8.95741935 C81.2751604,8.95741935 81.1179039,8.90919403 80.9879032,8.81274194 C80.8579026,8.71628984 80.7509682,8.59677491 80.6670968,8.45419355 L80.1764516,7.57354839 Z M97.0722581,18.8206452 C96.0070914,18.8206452 95.1872609,18.5208095 94.6127419,17.921129 C94.0382229,17.3214486 93.7509677,16.4764571 93.7509677,15.386129 L93.7509677,7.91322581 L92.3419355,7.91322581 C92.190967,7.91322581 92.0609683,7.86500048 91.9519355,7.76854839 C91.8429027,7.67209629 91.7883871,7.52742032 91.7883871,7.33451613 L91.7883871,6.24 L93.8641935,5.93806452 L94.4554839,2.22677419 C94.4974196,2.08419284 94.5687092,1.96887141 94.6693548,1.88080645 C94.7700005,1.7927415 94.9041927,1.74870968 95.0719355,1.74870968 L96.4558065,1.74870968 L96.4558065,5.96322581 L100.016129,5.96322581 L100.016129,7.91322581 L96.4558065,7.91322581 L96.4558065,15.1974194 C96.4558065,15.658712 96.5690311,16.0109665 96.7954839,16.2541935 C97.0219366,16.4974206 97.3238691,16.6190323 97.7012903,16.6190323 C97.9109688,16.6190323 98.0912896,16.5917745 98.2422581,16.5372581 C98.3932266,16.4827417 98.5232253,16.4240326 98.6322581,16.361129 C98.7412909,16.2982255 98.8356448,16.2395164 98.9153226,16.185 C98.9950004,16.1304836 99.0725803,16.1032258 99.1480645,16.1032258 C99.299033,16.1032258 99.4206447,16.1870959 99.5129032,16.3548387 L100.318065,17.6758065 C99.8987076,18.0448406 99.4038738,18.3279022 98.8335484,18.525 C98.263223,18.7220978 97.6761321,18.8206452 97.0722581,18.8206452 Z M110.483226,10.7564516 C110.483226,10.3035461 110.418226,9.88209872 110.288226,9.49209677 C110.158225,9.10209482 109.967421,8.7624208 109.715806,8.47306452 C109.464192,8.18370823 109.151776,7.95725888 108.778548,7.79370968 C108.405321,7.63016047 107.975486,7.5483871 107.489032,7.5483871 C106.507737,7.5483871 105.736132,7.82935203 105.174194,8.39129032 C104.612255,8.95322862 104.255807,9.74160783 104.104839,10.7564516 L110.483226,10.7564516 Z M104.029355,12.4170968 C104.062903,13.1467778 104.176128,13.7779006 104.369032,14.3104839 C104.561936,14.8430672 104.819837,15.2854821 105.142742,15.6377419 C105.465647,15.9900018 105.851449,16.2520959 106.300161,16.4240323 C106.748873,16.5959686 107.249997,16.6819355 107.803548,16.6819355 C108.331938,16.6819355 108.78903,16.6211296 109.174839,16.4995161 C109.560647,16.3779026 109.896128,16.2437104 110.18129,16.0969355 C110.466453,15.9501606 110.709676,15.8159684 110.910968,15.6943548 C111.112259,15.5727413 111.296773,15.5119355 111.464516,15.5119355 C111.682582,15.5119355 111.850322,15.5958056 111.967742,15.7635484 L112.735161,16.7574194 C112.41645,17.1348406 112.055808,17.4535471 111.653226,17.7135484 C111.250643,17.9735497 110.822905,18.1853218 110.37,18.348871 C109.917095,18.5124202 109.451615,18.6298384 108.973548,18.701129 C108.495481,18.7724197 108.030002,18.8080645 107.577097,18.8080645 C106.68806,18.8080645 105.864036,18.659195 105.105,18.3614516 C104.345964,18.0637082 103.687583,17.6254868 103.129839,17.0467742 C102.572094,16.4680616 102.135969,15.750972 101.821452,14.8954839 C101.506934,14.0399957 101.349677,13.0545217 101.349677,11.9390323 C101.349677,11.0499956 101.49016,10.2196813 101.771129,9.44806452 C102.052098,8.67644775 102.454675,8.00548672 102.978871,7.43516129 C103.503067,6.86483586 104.14048,6.41403391 104.891129,6.08274194 C105.641778,5.75144996 106.490963,5.58580645 107.43871,5.58580645 C108.227101,5.58580645 108.956771,5.7137084 109.627742,5.96951613 C110.298713,6.22532386 110.877417,6.60064269 111.363871,7.09548387 C111.850325,7.59032505 112.229837,8.19628674 112.502419,8.9133871 C112.775001,9.63048746 112.91129,10.4461245 112.91129,11.3603226 C112.91129,11.7796795 112.865162,12.0606444 112.772903,12.2032258 C112.680645,12.3458072 112.512904,12.4170968 112.269677,12.4170968 L104.029355,12.4170968 Z M129.819677,18.6193548 L126.888387,18.6193548 C126.687096,18.6193548 126.523549,18.5648393 126.397742,18.4558065 C126.271935,18.3467736 126.171291,18.225162 126.095806,18.0909677 L121.591935,10.8319355 C121.558387,10.9325811 121.522742,11.0290318 121.485,11.1212903 C121.447258,11.2135488 121.403226,11.3016125 121.352903,11.3854839 L117,18.0909677 C116.907741,18.225162 116.805001,18.3467736 116.691774,18.4558065 C116.578548,18.5648393 116.429678,18.6193548 116.245161,18.6193548 L113.502581,18.6193548 L119.616774,9.30967742 L113.754194,0.503225806 L116.672903,0.503225806 C116.882582,0.503225806 117.035645,0.534677105 117.132097,0.597580645 C117.228549,0.660484185 117.314516,0.754838081 117.39,0.880645161 L121.793226,7.8 L121.919032,7.49806452 C121.960968,7.39741885 122.015484,7.29258119 122.082581,7.18354839 L126.183871,0.930967742 C126.267742,0.788386384 126.359999,0.681451969 126.460645,0.61016129 C126.561291,0.538870611 126.682903,0.503225806 126.825484,0.503225806 L129.630968,0.503225806 L123.718065,9.18387097 L129.819677,18.6193548 Z" id="TravelgateX"></path>
                </g>
            </g>
        </g>
    </svg>
