<?xml version="1.0" encoding="UTF-8" standalone="no"?>
<svg width="215px" height="40px" viewBox="0 0 215 40" version="1.1" xmlns="http://www.w3.org/2000/svg" xmlns:xlink="http://www.w3.org/1999/xlink">
    <!-- Generator: Sketch 41.2 (35397) - http://www.bohemiancoding.com/sketch -->
    <title>logo_travelgate</title>
    <desc>Created with Sketch.</desc>
    <defs></defs>
    <g id="Page-1" stroke="none" stroke-width="1" fill="none" fill-rule="evenodd">
        <g id="logo_travelgate">
            <g id="Layer_1">
                <g id="Group">
                    <g transform="translate(177.406069, 0.000000)" id="Shape" fill="#009DF5">
                        <polyline points="23.9345954 19.7479986 12.3196243 3.08394509 1.8324711 3.08394509 13.3272038 19.8632659 0.22525289 39.5606214 10.3874205 39.5606214"></polyline>
                        <g transform="translate(19.573699, 0.000000)">
                            <polyline points="17.7632876 0.0170881503 7.28265896 0.0170881503 0.0633815029 10.6692197 5.49617052 18.1647038"></polyline>
                            <polyline points="5.38338873 21.2927673 15.864328 36.5375723 13.7668353 36.5375723 5.37717486 36.5375723 0.0633815029 28.8218064"></polyline>
                        </g>
                    </g>
                    <g transform="translate(0.000000, 9.631503)" id="Shape" fill="#FFFFFF">
                        <polygon points="16.4844725 3.45708815 10.1854697 3.45708815 10.1854697 21.1551301 6.29900289 21.1551301 6.29900289 3.45708815 0 3.45708815 0 0.264710983 16.4844725 0.264710983"></polygon>
                        <path d="M35.539935,21.1551301 L32.0294075,21.1551301 C31.3648338,21.1551301 30.8832587,20.8953902 30.5846821,20.375289 L26.1930275,13.6863656 C26.0292919,13.4356358 25.8484682,13.2572977 25.6511777,13.1516618 C25.4532659,13.0454046 25.162146,12.9925867 24.7768858,12.9925867 L23.1156069,12.9925867 L23.1156069,21.1548194 L19.2288295,21.1548194 L19.2288295,0.264710983 L25.6005347,0.264710983 C27.0163656,0.264710983 28.2317991,0.411669075 29.248078,0.705274566 C30.2640462,0.998880058 31.0970159,1.41085983 31.7476084,1.94090318 C32.3975795,2.47063584 32.8769798,3.10351879 33.1851879,3.84017341 C33.493396,4.57744942 33.6475,5.38867052 33.6475,6.27476879 C33.6475,6.97817919 33.5437283,7.6424422 33.3368064,8.26880058 C33.129263,8.89453757 32.8306864,9.46310694 32.4410766,9.9732659 C32.0508454,10.4837355 31.5689595,10.9314451 30.9963512,11.3167052 C30.4228107,11.7019653 29.7706647,12.005513 29.0386705,12.2270376 C29.2887789,12.3715101 29.519935,12.5427023 29.7321387,12.7396821 C29.9440318,12.9375939 30.1363512,13.1712355 30.3097182,13.4406069 L35.539935,21.1551301 Z M25.542435,10.204422 C26.2741185,10.204422 26.9125939,10.1127673 27.4569292,9.92945809 C28.0006431,9.74677023 28.4483526,9.49386561 28.8003685,9.1716763 C29.151763,8.84886561 29.4146098,8.46609104 29.5879769,8.02304191 C29.7610332,7.57999277 29.8477168,7.09344653 29.8477168,6.56371387 C29.8477168,5.50424855 29.4988078,4.69054191 28.8003685,4.12259393 C28.1019292,3.55402457 27.0350072,3.27005058 25.6005347,3.27005058 L23.1156069,3.27005058 L23.1156069,10.2047327 L25.542435,10.2047327 L25.542435,10.204422 Z"></path>
                        <path d="M55.708302,21.1551301 L52.7032731,21.1551301 C52.3658598,21.1551301 52.0915173,21.0709321 51.879935,20.9028468 C51.6680419,20.7341402 51.5092775,20.5247327 51.4030202,20.2743136 L49.8430275,16.0125289 L41.1886561,16.0125289 L39.6286633,20.2743136 C39.5509899,20.4958382 39.4018569,20.6984104 39.1803324,20.8810983 C38.9588078,21.0644075 38.6844653,21.1554408 38.3569942,21.1554408 L35.3233815,21.1554408 L43.5434032,0.265021676 L47.5022616,0.265021676 L55.708302,21.1551301 Z M48.8457009,13.2669292 L46.3029841,6.31764451 C46.1774639,6.0100578 46.0475939,5.64406069 45.9127529,5.21996387 C45.7779118,4.79648844 45.6427601,4.33883671 45.5079191,3.84731936 C45.3830202,4.33883671 45.2531503,4.79866329 45.1183092,5.22710983 C44.9828468,5.65555636 44.8529769,6.02869942 44.728078,6.34684971 L42.1993425,13.2669292 L48.8457009,13.2669292 L48.8457009,13.2669292 Z"></path>
                        <path d="M74.1137934,0.264710983 L65.6765968,21.1551301 L62.1660694,21.1551301 L53.7288728,0.264710983 L56.8491691,0.264710983 C57.1865824,0.264710983 57.4609249,0.346734104 57.6725072,0.510469653 C57.8840896,0.674205202 58.0431647,0.886098266 58.149422,1.14583815 L63.076091,13.8886272 C63.2392052,14.3024711 63.3957948,14.7576373 63.5452384,15.2541257 C63.6943714,15.7499928 63.8366691,16.2676084 63.9718208,16.8069725 C64.0870882,16.2676084 64.211987,15.7499928 64.3474494,15.2541257 C64.4822905,14.7576373 64.6314234,14.3027818 64.795159,13.8886272 L69.6929335,1.14583815 C69.7699855,0.924313584 69.921604,0.722362717 70.1480997,0.539053468 C70.373974,0.356365607 70.6511127,0.264710983 70.9788945,0.264710983 L74.1137934,0.264710983 L74.1137934,0.264710983 Z"></path>
                        <polygon points="80.1813295 3.35642341 80.1813295 9.14961705 87.4916402 9.14961705 87.4916402 12.1400434 80.1813295 12.1400434 80.1813295 18.0494364 89.4567775 18.0494364 89.4567775 21.1551301 76.2808815 21.1551301 76.2808815 0.264710983 89.4567775 0.264710983 89.4567775 3.35642341"></polygon>
                        <polygon points="105.131582 17.9481503 105.131582 21.1551301 92.8949133 21.1551301 92.8949133 0.264710983 96.7810694 0.264710983 96.7810694 17.9481503"></polygon>
                        <path d="M124.388996,10.6807153 L124.388996,19.1325145 C123.32953,19.9129769 122.20078,20.4834104 121.001192,20.8444364 C119.802225,21.2060838 118.51875,21.3862861 117.151387,21.3862861 C115.446301,21.3862861 113.903085,21.1215751 112.520809,20.5918425 C111.138533,20.0621098 109.958829,19.3254552 108.981077,18.3812572 C108.003634,17.4376806 107.249892,16.3107948 106.720159,15.0005997 C106.190426,13.691026 105.925715,12.2609032 105.925715,10.7096098 C105.925715,9.13967486 106.180484,7.69960983 106.691575,6.38972543 C107.202045,5.08015173 107.926582,3.9532659 108.865809,3.00906792 C109.804415,2.06549133 110.943728,1.33349711 112.282197,0.813706647 C113.620975,0.292984104 115.12349,0.0332442197 116.78974,0.0332442197 C117.637623,0.0332442197 118.429892,0.10066474 119.166546,0.235195087 C119.903201,0.370657514 120.587038,0.555520231 121.218367,0.791647399 C121.848764,1.02777457 122.42479,1.3142341 122.944892,1.65102601 C123.464993,1.98843931 123.941286,2.35909682 124.375325,2.76393064 L123.262421,4.52618497 C123.089364,4.80580925 122.863179,4.97638006 122.583244,5.03882948 C122.304241,5.10190029 122.000694,5.03230491 121.673533,4.82942197 C121.355694,4.6467341 121.037543,4.46342486 120.719704,4.28073699 C120.401864,4.09742775 120.047984,3.9383526 119.657753,3.80382225 C119.268143,3.66898121 118.829444,3.55806358 118.343519,3.47138006 C117.856973,3.38469653 117.296171,3.34151012 116.660181,3.34151012 C115.629921,3.34151012 114.69784,3.51518786 113.864559,3.86161127 C113.031279,4.20803468 112.321344,4.70452312 111.734133,5.34952312 C111.14599,5.99514451 110.693309,6.77063584 110.376091,7.67537572 C110.058251,8.58073699 109.899176,9.59235549 109.899176,10.7096098 C109.899176,11.9039162 110.070368,12.9705275 110.411821,13.910065 C110.753584,14.8486705 111.235159,15.6431142 111.856546,16.2937066 C112.477934,16.9436777 113.226705,17.4398555 114.102861,17.7816185 C114.979017,18.1240029 115.95677,18.294263 117.035499,18.294263 C117.806019,18.294263 118.494827,18.2128613 119.101611,18.0491257 C119.708396,17.8853902 120.300578,17.6638656 120.878468,17.3839306 L120.878468,13.5990607 L118.249068,13.5990607 C117.998338,13.5990607 117.803533,13.5291546 117.664032,13.3890318 C117.52453,13.2501517 117.454624,13.0789595 117.454624,12.8763873 L117.454624,10.6804046 L124.388996,10.6804046 L124.388996,10.6807153 Z"></path>
                        <path d="M145.800137,21.1551301 L142.795108,21.1551301 C142.457695,21.1551301 142.183353,21.0709321 141.97177,20.9028468 C141.759877,20.7341402 141.601113,20.5247327 141.494855,20.2743136 L139.934863,16.0125289 L131.280802,16.0125289 L129.720809,20.2743136 C129.643136,20.4958382 129.494314,20.6984104 129.2731,20.8810983 C129.050954,21.0644075 128.776611,21.1554408 128.449762,21.1554408 L125.415527,21.1554408 L133.636171,0.265021676 L137.594408,0.265021676 L145.800137,21.1551301 Z M138.937847,13.2669292 L136.39513,6.31764451 C136.26961,6.0100578 136.13974,5.64406069 136.004899,5.21996387 C135.870058,4.79648844 135.735527,4.33883671 135.600686,3.84731936 C135.475166,4.33883671 135.345296,4.79866329 135.210455,5.22710983 C135.074993,5.65555636 134.945123,6.02869942 134.820224,6.34684971 L132.291488,13.2669292 L138.937847,13.2669292 L138.937847,13.2669292 Z"></path>
                        <polygon points="160.521734 3.45708815 154.223042 3.45708815 154.223042 21.1551301 150.336886 21.1551301 150.336886 3.45708815 144.037572 3.45708815 144.037572 0.264710983 160.522045 0.264710983 160.522045 3.45708815"></polygon>
                        <polygon points="167.16716 3.35642341 167.16716 9.14961705 174.477471 9.14961705 174.477471 12.1400434 167.16716 12.1400434 167.16716 18.0494364 176.442608 18.0494364 176.442608 21.1551301 163.266402 21.1551301 163.266402 0.264710983 176.442298 0.264710983 176.442298 3.35642341"></polygon>
                    </g>
                </g>
            </g>
        </g>
    </g>
</svg>