<?xml version="1.0" encoding="UTF-8" standalone="no"?>
<svg width="137px" height="33px" viewBox="0 0 137 33" version="1.1" xmlns="http://www.w3.org/2000/svg" xmlns:xlink="http://www.w3.org/1999/xlink">
    <!-- Generator: Sketch 41 (35326) - http://www.bohemiancoding.com/sketch -->
    <title>Group 65</title>
    <desc>Created with Sketch.</desc>
    <defs></defs>
    <g id="Page-1" stroke="none" stroke-width="1" fill="none" fill-rule="evenodd">
        <g id="Stats-admin" transform="translate(-30.000000, -15.000000)">
            <g id="Group-124">
                <g id="Group-62">
                    <g id="Group-54">
                        <g id="Group-55">
                            <g id="Group-65" transform="translate(30.000000, 15.000000)">
                                <g id="Group-125" transform="translate(0.000000, 1.000000)">
                                    <rect id="Rectangle" fill="#009DF5" x="0" y="-1.77635684e-15" width="29.8906356" height="29.9856643"></rect>
                                    <path d="M7.45642333,12.003521 C6.65105304,12.0566611 5.89864833,12.237651 5.25170529,12.5018425 C4.60323637,12.7651759 4.06052255,13.1052606 3.62828818,13.4528607 C3.19482138,13.8004904 2.86881161,14.1538897 2.62860316,14.4613981 C2.38862946,14.7699124 2.23096515,15.0307604 2.13465876,15.2137327 C2.08586,15.3047751 2.0526428,15.376674 2.03101641,15.4252871 C2.00933133,15.4738706 2,15.4997305 2,15.4997305 C2,15.4997305 2.07955108,15.4243403 2.23483854,15.2968455 C2.39112368,15.170475 2.62232359,14.9906686 2.92999346,14.7934053 C3.23725253,14.5963194 3.61836997,14.378522 4.06938438,14.184898 C4.5196065,13.9905343 5.03928543,13.8214979 5.61128437,13.7181173 C6.18310726,13.6139379 6.80681,13.5783139 7.46003262,13.6286136 C7.48949381,13.6299154 7.5474185,13.6357443 7.5474185,13.6357443 C7.60226208,13.6435555 7.63360128,13.6482304 7.6650285,13.6529349 C7.7361579,13.664563 7.80966415,13.6779664 7.88648626,13.6954233 C8.0390154,13.7287394 8.20113996,13.7713166 8.36658038,13.8208765 C8.53205014,13.8707619 8.70259638,13.9257069 8.87563685,13.9859777 C9.04864797,14.046426 9.22453478,14.1111646 9.40291582,14.1780631 C9.75906168,14.3138722 10.1245389,14.4595044 10.4952099,14.6133917 C10.86682,14.7649416 11.2435358,14.924924 11.6260618,15.0847289 C12.3905268,15.4059365 13.1738599,15.735843 13.9684317,16.0507187 C14.76271,16.3663046 15.5669359,16.6708541 16.3733625,16.9426201 C17.1793784,17.2150666 17.9865093,17.4579547 18.7830471,17.6542712 C19.5793795,17.8507357 20.3657937,17.9993859 21.1248301,18.0850432 C21.8834557,18.1708189 22.6154665,18.192359 23.2924282,18.1366743 C23.9689792,18.0820844 24.5895421,17.946808 25.1111871,17.7477694 C25.3718188,17.6475251 25.6078898,17.5342622 25.8152919,17.412182 C26.0228407,17.290161 26.2018966,17.1611572 26.3530759,17.0342542 C26.3913696,17.0033347 26.4271397,16.9711429 26.4617948,16.9401939 C26.4967433,16.9097182 26.5295203,16.8787395 26.5607421,16.8481455 C26.59214,16.817877 26.6218946,16.7880227 26.6496539,16.7579908 C26.6774425,16.7281069 26.7051724,16.7006788 26.7297625,16.6717417 C26.8317029,16.560402 26.9078207,16.4572286 26.9683864,16.3743821 C27.0280423,16.2905001 27.070004,16.2242229 27.097147,16.1789236 C27.1242313,16.1337723 27.138199,16.1104569 27.138199,16.1104569 C27.138199,16.1104569 27.11669,16.1268783 27.0749924,16.158715 C27.0345273,16.1913802 26.9710566,16.236206 26.8900677,16.2940802 C26.8482528,16.3216267 26.8037676,16.3542622 26.7513889,16.3856551 C26.7257424,16.4017806 26.6989515,16.4185866 26.6709868,16.4361619 C26.6426113,16.4528199 26.6130915,16.4701585 26.5824272,16.4881776 C26.5522911,16.506611 26.5191032,16.5230323 26.4859447,16.5412585 C26.4528743,16.5596031 26.4179258,16.5772376 26.3815688,16.5946945 C26.345652,16.6128024 26.3089429,16.6315316 26.2699449,16.6487814 C26.2313872,16.6665934 26.1920371,16.6850859 26.1504276,16.701744 C25.9855153,16.770832 25.8000918,16.8355706 25.5959469,16.890338 C25.3917433,16.9450759 25.1676739,16.9870909 24.9277296,17.0167973 C24.4466964,17.0739909 23.8986714,17.070322 23.3028159,17.0023879 C22.7068724,16.9351639 22.0634506,16.8056275 21.3878094,16.6278923 C20.711992,16.4503641 20.0039258,16.2248442 19.2742332,15.9690854 C18.5445113,15.7129123 17.7933096,15.4257605 17.0296956,15.12272 C16.2662576,14.8190877 15.4893215,14.5021999 14.7078077,14.1833298 C13.9264407,13.864075 13.1393516,13.5460038 12.3518223,13.2445906 C11.5639116,12.9432958 10.7764997,12.6588661 9.97984453,12.4238188 C9.78074676,12.3644949 9.58053392,12.3096387 9.37873652,12.2590136 C9.17699781,12.2081813 8.97408534,12.161018 8.76709408,12.1220506 C8.5600148,12.0829352 8.35108685,12.0485539 8.13347313,12.0268955 C8.02542921,12.0155041 7.91412813,12.0096457 7.80127182,12.00503 L7.71591067,12.0058288 C7.6837792,12.0055625 7.65170641,12.0116873 7.61969231,12.0116873 L7.54025861,12 C7.49750467,12.0017753 7.45642333,12.003521 7.45642333,12.003521 Z" id="Clip-31" fill="#FFFFFF"></path>
                                </g>
                                <path d="M45.536,8.838 L44.384,8.838 C44.2959996,8.838 44.2270003,8.81500023 44.177,8.769 C44.1269998,8.72299977 44.0860002,8.67200028 44.054,8.616 L41.75,5.004 C41.7179998,5.10000048 41.6820002,5.18199966 41.642,5.25 L39.398,8.616 C39.3579998,8.67200028 39.3150002,8.72299977 39.269,8.769 C39.2229998,8.81500023 39.1600004,8.838 39.08,8.838 L38,8.838 L40.958,4.422 L38.12,0.24 L39.278,0.24 C39.3620004,0.24 39.4239998,0.25399986 39.464,0.282 C39.5040002,0.31000014 39.5399998,0.34999974 39.572,0.402 L41.816,3.846 C41.8440001,3.76199958 41.8859997,3.6700005 41.942,3.57 L44.06,0.426 C44.0920002,0.36999972 44.1299998,0.32500017 44.174,0.291 C44.2180002,0.25699983 44.2699997,0.24 44.33,0.24 L45.44,0.24 L42.59,4.368 L45.536,8.838 Z M52.58,1.218 L49.796,1.218 L49.796,8.838 L48.638,8.838 L48.638,1.218 L45.848,1.218 L45.848,0.24 L52.58,0.24 L52.58,1.218 Z M60.836,4.704 L60.836,8.004 C60.4039978,8.31600156 59.9430025,8.54899923 59.453,8.703 C58.9629976,8.85700077 58.4260029,8.934 57.842,8.934 C57.1499965,8.934 56.5260028,8.82700107 55.97,8.613 C55.4139972,8.39899893 54.939002,8.09900193 54.545,7.713 C54.150998,7.32699807 53.8480011,6.8640027 53.636,6.324 C53.4239989,5.7839973 53.318,5.19000324 53.318,4.542 C53.318,3.88599672 53.420999,3.2880027 53.627,2.748 C53.833001,2.2079973 54.1259981,1.74500193 54.506,1.359 C54.8860019,0.97299807 55.3479973,0.67400106 55.892,0.462 C56.4360027,0.24999894 57.0439966,0.144 57.716,0.144 C58.0560017,0.144 58.3719985,0.16899975 58.664,0.219 C58.9560015,0.26900025 59.2259988,0.34099953 59.474,0.435 C59.7220012,0.52900047 59.9519989,0.64299933 60.164,0.777 C60.3760011,0.91100067 60.5739991,1.06199916 60.758,1.23 L60.428,1.758 C60.3759997,1.8380004 60.3090004,1.88899989 60.227,1.911 C60.1449996,1.93300011 60.0540005,1.9140003 59.954,1.854 C59.8579995,1.79799972 59.7480006,1.7300004 59.624,1.65 C59.4999994,1.5699996 59.3490009,1.49300037 59.171,1.419 C58.9929991,1.34499963 58.7830012,1.28200026 58.541,1.23 C58.2989988,1.17799974 58.0120017,1.152 57.68,1.152 C57.1959976,1.152 56.758002,1.23099921 56.366,1.389 C55.973998,1.54700079 55.6400014,1.77299853 55.364,2.067 C55.0879986,2.36100147 54.8760007,2.71699791 54.728,3.135 C54.5799993,3.55300209 54.506,4.0219974 54.506,4.542 C54.506,5.0820027 54.5829992,5.56499787 54.737,5.991 C54.8910008,6.41700213 55.1109986,6.77899851 55.397,7.077 C55.6830014,7.37500149 56.029998,7.60199922 56.438,7.758 C56.846002,7.91400078 57.3039975,7.992 57.812,7.992 C58.212002,7.992 58.5669985,7.94700045 58.877,7.857 C59.1870016,7.76699955 59.4899985,7.6420008 59.786,7.482 L59.786,5.592 L58.448,5.592 C58.3719996,5.592 58.3110002,5.57000022 58.265,5.526 C58.2189998,5.48199978 58.196,5.42800032 58.196,5.364 L58.196,4.704 L60.836,4.704 Z M72.656,0.24 L72.656,8.838 L72.074,8.838 C71.9819995,8.838 71.9050003,8.82200016 71.843,8.79 C71.7809997,8.75799984 71.7200003,8.70400038 71.66,8.628 L66.686,2.148 C66.694,2.2480005 66.7,2.34599952 66.704,2.442 C66.708,2.53800048 66.71,2.62799958 66.71,2.712 L66.71,8.838 L65.69,8.838 L65.69,0.24 L66.29,0.24 C66.3420003,0.24 66.3859998,0.24299997 66.422,0.249 C66.4580002,0.25500003 66.4899999,0.26499993 66.518,0.279 C66.5460001,0.29300007 66.5739999,0.31299987 66.602,0.339 C66.6300001,0.36500013 66.6599998,0.3979998 66.692,0.438 L71.666,6.912 C71.658,6.80799948 71.651,6.70700049 71.645,6.609 C71.639,6.51099951 71.636,6.41800044 71.636,6.33 L71.636,0.24 L72.656,0.24 Z M78.668,5.136 C78.668,4.88799876 78.6330004,4.66100103 78.563,4.455 C78.4929997,4.24899897 78.3910007,4.07100075 78.257,3.921 C78.1229993,3.77099925 77.960001,3.65500041 77.768,3.573 C77.575999,3.49099959 77.3580012,3.45 77.114,3.45 C76.6019974,3.45 76.1970015,3.59899851 75.899,3.897 C75.6009985,4.19500149 75.4160004,4.60799736 75.344,5.136 L78.668,5.136 Z M79.532,7.986 C79.3999993,8.1460008 79.2420009,8.28499941 79.058,8.403 C78.8739991,8.52100059 78.6770011,8.61799962 78.467,8.694 C78.2569989,8.77000038 78.0400011,8.82699981 77.816,8.865 C77.5919989,8.90300019 77.3700011,8.922 77.15,8.922 C76.7299979,8.922 76.3430018,8.85100071 75.989,8.709 C75.6349982,8.56699929 75.3290013,8.35900137 75.071,8.085 C74.8129987,7.81099863 74.6120007,7.47200202 74.468,7.068 C74.3239993,6.66399798 74.252,6.20000262 74.252,5.676 C74.252,5.25199788 74.3169994,4.85600184 74.447,4.488 C74.5770007,4.11999816 74.7639988,3.80100135 75.008,3.531 C75.2520012,3.26099865 75.5499982,3.04900077 75.902,2.895 C76.2540018,2.74099923 76.6499978,2.664 77.09,2.664 C77.4540018,2.664 77.7909984,2.72499939 78.101,2.847 C78.4110016,2.96900061 78.6789989,3.14499885 78.905,3.375 C79.1310011,3.60500115 79.3079994,3.88899831 79.436,4.227 C79.5640006,4.56500169 79.628,4.94999784 79.628,5.382 C79.628,5.55000084 79.6100002,5.66199972 79.574,5.718 C79.5379998,5.77400028 79.4700005,5.802 79.37,5.802 L75.308,5.802 C75.3200001,6.18600192 75.3729995,6.51999858 75.467,6.804 C75.5610005,7.08800142 75.6919992,7.32499905 75.86,7.515 C76.0280008,7.70500095 76.2279988,7.84699953 76.46,7.941 C76.6920012,8.03500047 76.9519986,8.082 77.24,8.082 C77.5080013,8.082 77.738999,8.05100031 77.933,7.989 C78.127001,7.92699969 78.2939993,7.86000036 78.434,7.788 C78.5740007,7.71599964 78.6909995,7.64900031 78.785,7.587 C78.8790005,7.52499969 78.9599997,7.494 79.028,7.494 C79.1160004,7.494 79.1839998,7.52799966 79.232,7.596 L79.532,7.986 Z M82.802,8.934 C82.3219976,8.934 81.9530013,8.80000134 81.695,8.532 C81.4369987,8.26399866 81.308,7.87800252 81.308,7.374 L81.308,3.654 L80.576,3.654 C80.5119997,3.654 80.4580002,3.63500019 80.414,3.597 C80.3699998,3.55899981 80.348,3.5000004 80.348,3.42 L80.348,2.994 L81.344,2.868 L81.59,0.99 C81.6020001,0.9299997 81.6289998,0.88100019 81.671,0.843 C81.7130002,0.80499981 81.7679997,0.786 81.836,0.786 L82.376,0.786 L82.376,2.88 L84.134,2.88 L84.134,3.654 L82.376,3.654 L82.376,7.302 C82.376,7.55800128 82.4379994,7.74799938 82.562,7.872 C82.6860006,7.99600062 82.845999,8.058 83.042,8.058 C83.1540006,8.058 83.2509996,8.04300015 83.333,8.013 C83.4150004,7.98299985 83.4859997,7.95000018 83.546,7.914 C83.6060003,7.87799982 83.6569998,7.84500015 83.699,7.815 C83.7410002,7.78499985 83.7779998,7.77 83.81,7.77 C83.8660003,7.77 83.9159998,7.80399966 83.96,7.872 L84.272,8.382 C84.0879991,8.55400086 83.8660013,8.68899951 83.606,8.787 C83.3459987,8.88500049 83.0780014,8.934 82.802,8.934 Z M93.62,2.76 L91.652,8.838 L90.806,8.838 C90.7019995,8.838 90.6300002,8.77000068 90.59,8.634 L89.246,4.512 C89.2139998,4.41999954 89.1880001,4.32700047 89.168,4.233 C89.1479999,4.13899953 89.1280001,4.04600046 89.108,3.954 C89.0879999,4.04600046 89.0680001,4.13899953 89.048,4.233 C89.0279999,4.32700047 89.0020002,4.42199952 88.97,4.518 L87.602,8.634 C87.5659998,8.77000068 87.4860006,8.838 87.362,8.838 L86.558,8.838 L84.59,2.76 L85.43,2.76 C85.5140004,2.76 85.5849997,2.78199978 85.643,2.826 C85.7010003,2.87000022 85.7399999,2.9219997 85.76,2.982 L86.924,6.894 C86.9920003,7.18200144 87.0459998,7.45399872 87.086,7.71 C87.1220002,7.57799934 87.1589998,7.44400068 87.197,7.308 C87.2350002,7.17199932 87.2759998,7.0340007 87.32,6.894 L88.604,2.958 C88.6240001,2.8979997 88.6589997,2.8480002 88.709,2.808 C88.7590003,2.7679998 88.8199996,2.748 88.892,2.748 L89.36,2.748 C89.4400004,2.748 89.5059997,2.7679998 89.558,2.808 C89.6100003,2.8480002 89.6459999,2.8979997 89.666,2.958 L90.92,6.894 C90.9640002,7.0340007 91.0039998,7.17199932 91.04,7.308 C91.0760002,7.44400068 91.1099998,7.57799934 91.142,7.71 C91.1620001,7.57799934 91.1869999,7.44500067 91.217,7.311 C91.2470001,7.17699933 91.2799998,7.03800072 91.316,6.894 L92.504,2.982 C92.5240001,2.91799968 92.5619997,2.86500021 92.618,2.823 C92.6740003,2.78099979 92.7399996,2.76 92.816,2.76 L93.62,2.76 Z M97.226,2.664 C97.6700022,2.664 98.0699982,2.73799926 98.426,2.886 C98.7820018,3.03400074 99.0859987,3.24399864 99.338,3.516 C99.5900013,3.78800136 99.7829993,4.11699807 99.917,4.503 C100.051001,4.88900193 100.118,5.31999762 100.118,5.796 C100.118,6.2760024 100.051001,6.70799808 99.917,7.092 C99.7829993,7.47600192 99.5900013,7.80399864 99.338,8.076 C99.0859987,8.34800136 98.7820018,8.55699927 98.426,8.703 C98.0699982,8.84900073 97.6700022,8.922 97.226,8.922 C96.7779978,8.922 96.3750018,8.84900073 96.017,8.703 C95.6589982,8.55699927 95.3540013,8.34800136 95.102,8.076 C94.8499987,7.80399864 94.6570007,7.47600192 94.523,7.092 C94.3889993,6.70799808 94.322,6.2760024 94.322,5.796 C94.322,5.31999762 94.3889993,4.88900193 94.523,4.503 C94.6570007,4.11699807 94.8499987,3.78800136 95.102,3.516 C95.3540013,3.24399864 95.6589982,3.03400074 96.017,2.886 C96.3750018,2.73799926 96.7779978,2.664 97.226,2.664 Z M97.226,8.088 C97.826003,8.088 98.2739985,7.88700201 98.57,7.485 C98.8660015,7.08299799 99.014,6.5220036 99.014,5.802 C99.014,5.07799638 98.8660015,4.51400202 98.57,4.11 C98.2739985,3.70599798 97.826003,3.504 97.226,3.504 C96.9219985,3.504 96.6570011,3.55599948 96.431,3.66 C96.2049989,3.76400052 96.0170007,3.91399902 95.867,4.11 C95.7169992,4.30600098 95.6050004,4.54699857 95.531,4.833 C95.4569996,5.11900143 95.42,5.4419982 95.42,5.802 C95.42,6.5220036 95.5689985,7.08299799 95.867,7.485 C96.1650015,7.88700201 96.617997,8.088 97.226,8.088 Z M102.482,3.978 C102.674001,3.56199792 102.909999,3.23700117 103.19,3.003 C103.470001,2.76899883 103.811998,2.652 104.216,2.652 C104.344001,2.652 104.466999,2.66599986 104.585,2.694 C104.703001,2.72200014 104.808,2.7659997 104.9,2.826 L104.822,3.624 C104.798,3.7240005 104.738,3.774 104.642,3.774 C104.586,3.774 104.504001,3.76200012 104.396,3.738 C104.287999,3.71399988 104.166001,3.702 104.03,3.702 C103.837999,3.702 103.667001,3.72999972 103.517,3.786 C103.366999,3.84200028 103.233001,3.92499945 103.115,4.035 C102.996999,4.14500055 102.891,4.28099919 102.797,4.443 C102.703,4.60500081 102.618,4.78999896 102.542,4.998 L102.542,8.838 L101.468,8.838 L101.468,2.76 L102.08,2.76 C102.196001,2.76 102.276,2.78199978 102.32,2.826 C102.364,2.87000022 102.394,2.94599946 102.41,3.054 L102.482,3.978 Z M106.91,0 L106.91,5.202 L107.186,5.202 C107.266,5.202 107.333,5.19100011 107.387,5.169 C107.441,5.14699989 107.498,5.10200034 107.558,5.034 L109.478,2.976 C109.534,2.90799966 109.593,2.85500019 109.655,2.817 C109.717,2.77899981 109.799999,2.76 109.904,2.76 L110.87,2.76 L108.632,5.142 C108.523999,5.27800068 108.408001,5.38399962 108.284,5.46 C108.356,5.50800024 108.421,5.56299969 108.479,5.625 C108.537,5.68700031 108.592,5.7579996 108.644,5.838 L111.02,8.838 L110.066,8.838 C109.974,8.838 109.895,8.82300015 109.829,8.793 C109.763,8.76299985 109.706,8.7080004 109.658,8.628 L107.66,6.138 C107.6,6.05399958 107.541,5.99900013 107.483,5.973 C107.425,5.94699987 107.336001,5.934 107.216,5.934 L106.91,5.934 L106.91,8.838 L105.836,8.838 L105.836,0 L106.91,0 Z M42.288,28.99 C41.4393291,28.99 40.7885856,28.7509191 40.33575,28.27275 C39.8829144,27.7945809 39.6565,27.1343375 39.6565,26.292 L39.6565,20.8485 L38.659,20.8485 C38.5323327,20.8485 38.4246671,20.8073337 38.336,20.725 C38.2473329,20.6426663 38.203,20.5191675 38.203,20.3545 L38.203,19.4235 L39.7705,19.167 L40.2645,16.507 C40.2961668,16.3803327 40.3563329,16.282167 40.445,16.2125 C40.5336671,16.142833 40.647666,16.108 40.787,16.108 L42.003,16.108 L42.003,19.1765 L44.606,19.1765 L44.606,20.8485 L42.003,20.8485 L42.003,26.1305 C42.003,26.4345015 42.0774159,26.6719991 42.22625,26.843 C42.3750841,27.0140009 42.579332,27.0995 42.839,27.0995 C42.9846674,27.0995 43.1065828,27.0820835 43.20475,27.04725 C43.3029172,27.0124165 43.3884163,26.9760002 43.46125,26.938 C43.5340837,26.8999998 43.5989997,26.8635835 43.656,26.82875 C43.7130003,26.7939165 43.7699997,26.7765 43.827,26.7765 C43.896667,26.7765 43.9536664,26.7939165 43.998,26.82875 C44.0423336,26.8635835 44.0898331,26.915833 44.1405,26.9855 L44.8435,28.1255 C44.5014983,28.4105014 44.1088356,28.6258326 43.6655,28.7715 C43.2221645,28.9171674 42.7630024,28.99 42.288,28.99 Z M48.3205,20.782 C48.6245015,20.1993304 48.9854979,19.7417517 49.4035,19.40925 C49.8215021,19.0767483 50.3154972,18.9105 50.8855,18.9105 C51.3351689,18.9105 51.6961653,19.0086657 51.9685,19.205 L51.8165,20.9625 C51.7848332,21.0765006 51.738917,21.1572498 51.67875,21.20475 C51.618583,21.2522502 51.5378338,21.276 51.4365,21.276 C51.3414995,21.276 51.2005843,21.2601668 51.01375,21.2285 C50.8269157,21.1968332 50.6448342,21.181 50.4675,21.181 C50.207832,21.181 49.9766677,21.2189996 49.774,21.295 C49.5713323,21.3710004 49.3892508,21.4802493 49.22775,21.62275 C49.0662492,21.7652507 48.9237506,21.9378323 48.80025,22.1405 C48.6767494,22.3431677 48.5611672,22.574332 48.4535,22.834 L48.4535,28.838 L46.107,28.838 L46.107,19.091 L47.4845,19.091 C47.7251679,19.091 47.8929995,19.1337496 47.988,19.21925 C48.0830005,19.3047504 48.1463332,19.4583322 48.178,19.68 L48.3205,20.782 Z M58.343,24.677 C57.6653299,24.7086668 57.0953356,24.7672496 56.633,24.85275 C56.1706644,24.9382504 55.8001681,25.0474993 55.5215,25.1805 C55.2428319,25.3135007 55.0433339,25.4686658 54.923,25.646 C54.8026661,25.8233342 54.7425,26.016499 54.7425,26.2255 C54.7425,26.6371687 54.8644154,26.9316658 55.10825,27.109 C55.3520846,27.2863342 55.6703314,27.375 56.063,27.375 C56.5443357,27.375 56.9607482,27.2879175 57.31225,27.11375 C57.6637518,26.9395825 58.0073317,26.6751684 58.343,26.3205 L58.343,24.677 Z M52.966,20.4495 C54.0870056,19.4234949 55.4359921,18.9105 57.013,18.9105 C57.5830028,18.9105 58.0928311,19.0039157 58.5425,19.19075 C58.9921689,19.3775843 59.3721651,19.6372483 59.6825,19.96975 C59.9928349,20.3022517 60.2287492,20.6996644 60.39025,21.162 C60.5517508,21.6243356 60.6325,22.1309972 60.6325,22.682 L60.6325,28.838 L59.5685,28.838 C59.3468322,28.838 59.1758339,28.8047503 59.0555,28.73825 C58.9351661,28.6717497 58.840167,28.5371677 58.7705,28.3345 L58.5615,27.6315 C58.3144988,27.8531678 58.0738345,28.0479158 57.8395,28.21575 C57.6051655,28.3835842 57.3613346,28.5244994 57.108,28.6385 C56.8546654,28.7525006 56.5839181,28.839583 56.29575,28.89975 C56.0075819,28.959917 55.6893351,28.99 55.341,28.99 C54.9293313,28.99 54.5493351,28.9345839 54.201,28.82375 C53.8526649,28.7129161 53.5518346,28.5466678 53.2985,28.325 C53.0451654,28.1033322 52.848834,27.827835 52.7095,27.4985 C52.570166,27.169165 52.5005,26.7860022 52.5005,26.349 C52.5005,26.1019988 52.5416663,25.8565846 52.624,25.61275 C52.7063337,25.3689154 52.8409157,25.1361678 53.02775,24.9145 C53.2145843,24.6928322 53.4568318,24.4838343 53.7545,24.2875 C54.0521682,24.0911657 54.4179145,23.9201674 54.85175,23.7745 C55.2855855,23.6288326 55.7906638,23.5100838 56.367,23.41825 C56.9433362,23.3264162 57.6019963,23.2710001 58.343,23.252 L58.343,22.682 C58.343,22.0296634 58.2036681,21.5467516 57.925,21.23325 C57.6463319,20.9197484 57.2441693,20.763 56.7185,20.763 C56.3384981,20.763 56.0234179,20.8073329 55.77325,20.896 C55.5230821,20.9846671 55.303001,21.0844161 55.113,21.19525 C54.922999,21.3060839 54.7504174,21.4058329 54.59525,21.4945 C54.4400826,21.5831671 54.2675009,21.6275 54.0775,21.6275 C53.9128325,21.6275 53.7735006,21.5847504 53.6595,21.49925 C53.5454994,21.4137496 53.453667,21.3140006 53.384,21.2 L52.966,20.4495 Z M71.624,19.091 L67.7575,28.838 L65.6295,28.838 L61.763,19.091 L63.701,19.091 C63.8783342,19.091 64.0255827,19.1321663 64.14275,19.2145 C64.2599173,19.2968337 64.3374998,19.4013327 64.3755,19.528 L66.2565,24.734 C66.3578338,25.0380015 66.4464996,25.3356652 66.5225,25.627 C66.5985004,25.9183348 66.6649997,26.2096652 66.722,26.501 C66.7853337,26.2096652 66.8549996,25.9183348 66.931,25.627 C67.0070004,25.3356652 67.0988328,25.0380015 67.2065,24.734 L69.1255,19.528 C69.1698336,19.4013327 69.2489994,19.2968337 69.363,19.2145 C69.4770006,19.1321663 69.6131659,19.091 69.7715,19.091 L71.624,19.091 Z M79.148,22.8435 C79.148,22.5394985 79.1052504,22.252918 79.01975,21.98375 C78.9342496,21.714582 78.8060009,21.4786677 78.635,21.276 C78.4639991,21.0733323 78.2470846,20.9134173 77.98425,20.79625 C77.7214154,20.6790827 77.4158351,20.6205 77.0675,20.6205 C76.3898299,20.6205 75.8562519,20.8136647 75.46675,21.2 C75.0772481,21.5863353 74.8286672,22.1341631 74.721,22.8435 L79.148,22.8435 Z M74.6735,24.259 C74.7115002,24.7593358 74.800166,25.1915815 74.9395,25.55575 C75.078834,25.9199185 75.2624989,26.2207488 75.4905,26.45825 C75.7185011,26.6957512 75.9892484,26.8730827 76.30275,26.99025 C76.6162516,27.1074173 76.9629981,27.166 77.343,27.166 C77.7230019,27.166 78.0507486,27.1216671 78.32625,27.033 C78.6017514,26.9443329 78.8424156,26.8461672 79.04825,26.7385 C79.2540844,26.6308328 79.4345826,26.5326671 79.58975,26.444 C79.7449174,26.3553329 79.8953326,26.311 80.041,26.311 C80.2373343,26.311 80.3829995,26.3838326 80.478,26.5295 L81.1525,27.3845 C80.892832,27.6885015 80.6015016,27.9434156 80.2785,28.14925 C79.9554984,28.3550844 79.6182518,28.5197494 79.26675,28.64325 C78.9152482,28.7667506 78.5574185,28.8538331 78.19325,28.9045 C77.8290815,28.9551669 77.4760017,28.9805 77.134,28.9805 C76.4563299,28.9805 75.8261696,28.8680845 75.2435,28.64325 C74.6608304,28.4184155 74.1541688,28.0859189 73.7235,27.64575 C73.2928312,27.2055811 72.9540012,26.6609199 72.707,26.01175 C72.4599988,25.3625801 72.3365,24.6105043 72.3365,23.7555 C72.3365,23.0904967 72.4441656,22.4650863 72.6595,21.87925 C72.8748344,21.2934137 73.1835813,20.7835855 73.58575,20.34975 C73.9879187,19.9159145 74.4787471,19.5723346 75.05825,19.319 C75.6377529,19.0656654 76.291663,18.939 77.02,18.939 C77.6343364,18.939 78.2011641,19.0371657 78.7205,19.2335 C79.2398359,19.4298343 79.6863315,19.7164148 80.06,20.09325 C80.4336685,20.4700852 80.7265823,20.9324139 80.93875,21.48025 C81.1509177,22.0280861 81.257,22.6534965 81.257,23.3565 C81.257,23.7111684 81.2190004,23.9502494 81.143,24.07375 C81.0669996,24.1972506 80.9213344,24.259 80.706,24.259 L74.6735,24.259 Z M85.3895,14.721 L85.3895,28.838 L83.043,28.838 L83.043,14.721 L85.3895,14.721 Z M91.2985,23.727 C91.5898348,23.727 91.8431656,23.6874171 92.0585,23.60825 C92.2738344,23.5290829 92.4527493,23.419834 92.59525,23.2805 C92.7377507,23.141166 92.8454163,22.9733343 92.91825,22.777 C92.9910837,22.5806657 93.0275,22.3653345 93.0275,22.131 C93.0275,21.6496643 92.8834181,21.2680847 92.59525,20.98625 C92.3070819,20.7044153 91.8748362,20.5635 91.2985,20.5635 C90.7221638,20.5635 90.2899181,20.7044153 90.00175,20.98625 C89.7135819,21.2680847 89.5695,21.6496643 89.5695,22.131 C89.5695,22.3590011 89.6059163,22.5711657 89.67875,22.7675 C89.7515837,22.9638343 89.8592493,23.1332493 90.00175,23.27575 C90.1442507,23.4182507 90.3247489,23.5290829 90.54325,23.60825 C90.7617511,23.6874171 91.0134986,23.727 91.2985,23.727 Z M93.949,29.275 C93.949,29.0849991 93.8920006,28.9298339 93.778,28.8095 C93.6639994,28.6891661 93.5088343,28.5957503 93.3125,28.52925 C93.1161657,28.4627497 92.8865846,28.4136668 92.62375,28.382 C92.3609154,28.3503332 92.0822515,28.3265834 91.78775,28.31075 C91.4932485,28.2949166 91.1892516,28.2806667 90.87575,28.268 C90.5622484,28.2553333 90.2566682,28.2300002 89.959,28.192 C89.699332,28.3376674 89.4887508,28.5086657 89.32725,28.705 C89.1657492,28.9013343 89.085,29.129332 89.085,29.389 C89.085,29.5600009 89.1277496,29.7199159 89.21325,29.86875 C89.2987504,30.0175841 89.4349157,30.1458328 89.62175,30.2535 C89.8085843,30.3611672 90.0508318,30.445083 90.3485,30.50525 C90.6461682,30.565417 91.0103312,30.5955 91.441,30.5955 C91.8780022,30.5955 92.2548317,30.5622503 92.5715,30.49575 C92.8881682,30.4292497 93.1494156,30.3374173 93.35525,30.22025 C93.5610844,30.1030827 93.7114995,29.9637508 93.8065,29.80225 C93.9015005,29.6407492 93.949,29.465001 93.949,29.275 Z M96.286,19.4235 L96.286,20.2975 C96.286,20.5761681 96.1181683,20.7471664 95.7825,20.8105 L94.9085,20.972 C95.0415007,21.3076683 95.108,21.674998 95.108,22.074 C95.108,22.5553357 95.0114176,22.9907481 94.81825,23.38025 C94.6250824,23.7697519 94.3575017,24.1006653 94.0155,24.373 C93.6734983,24.6453347 93.2697523,24.8559159 92.80425,25.00475 C92.3387477,25.1535841 91.836836,25.228 91.2985,25.228 C91.1084991,25.228 90.9248342,25.2185001 90.7475,25.1995 C90.5701658,25.1804999 90.3960009,25.1551668 90.225,25.1235 C89.9209985,25.3071676 89.769,25.5129989 89.769,25.741 C89.769,25.9373343 89.8592491,26.0814162 90.03975,26.17325 C90.2202509,26.2650838 90.4593318,26.3299998 90.757,26.368 C91.0546682,26.4060002 91.3934981,26.42975 91.7735,26.43925 C92.1535019,26.44875 92.542998,26.4693332 92.942,26.501 C93.341002,26.5326668 93.7304981,26.5880829 94.1105,26.66725 C94.4905019,26.7464171 94.8293318,26.8714991 95.127,27.0425 C95.4246682,27.2135009 95.6637491,27.4462485 95.84425,27.74075 C96.0247509,28.0352515 96.115,28.4136644 96.115,28.876 C96.115,29.3066688 96.0089177,29.7246646 95.79675,30.13 C95.5845823,30.5353354 95.2774187,30.8963318 94.87525,31.213 C94.4730813,31.5296683 93.9790863,31.7845824 93.39325,31.97775 C92.8074137,32.1709176 92.1408371,32.2675 91.3935,32.2675 C90.6588297,32.2675 90.0191694,32.1962507 89.4745,32.05375 C88.9298306,31.9112493 88.4770018,31.7212512 88.116,31.48375 C87.7549982,31.2462488 87.4858342,30.9723349 87.3085,30.662 C87.1311658,30.3516651 87.0425,30.0286683 87.0425,29.693 C87.0425,29.2369977 87.1802486,28.8554182 87.45575,28.54825 C87.7312514,28.2410818 88.1096643,27.9956676 88.591,27.812 C88.331332,27.6789993 88.1255008,27.5016678 87.9735,27.28 C87.8214992,27.0583322 87.7455,26.7670018 87.7455,26.406 C87.7455,26.2603326 87.7724164,26.1099174 87.82625,25.95475 C87.8800836,25.7995826 87.9592495,25.6460008 88.06375,25.494 C88.1682505,25.3419992 88.2996659,25.1979173 88.458,25.06175 C88.6163341,24.9255827 88.8031656,24.8036672 89.0185,24.696 C88.5244975,24.4299987 88.1365847,24.0753356 87.85475,23.632 C87.5729153,23.1886645 87.432,22.6693363 87.432,22.074 C87.432,21.5926643 87.5285824,21.1572519 87.72175,20.76775 C87.9149176,20.3782481 88.1840816,20.0457514 88.52925,19.77025 C88.8744184,19.4947486 89.2829143,19.2841674 89.75475,19.1385 C90.2265857,18.9928326 90.7411639,18.92 91.2985,18.92 C91.7165021,18.92 92.1091648,18.9627496 92.4765,19.04825 C92.8438352,19.1337504 93.1794985,19.2588325 93.4835,19.4235 L96.286,19.4235 Z M102.917,24.677 C102.23933,24.7086668 101.669336,24.7672496 101.207,24.85275 C100.744664,24.9382504 100.374168,25.0474993 100.0955,25.1805 C99.8168319,25.3135007 99.6173339,25.4686658 99.497,25.646 C99.3766661,25.8233342 99.3165,26.016499 99.3165,26.2255 C99.3165,26.6371687 99.4384154,26.9316658 99.68225,27.109 C99.9260846,27.2863342 100.244331,27.375 100.637,27.375 C101.118336,27.375 101.534748,27.2879175 101.88625,27.11375 C102.237752,26.9395825 102.581332,26.6751684 102.917,26.3205 L102.917,24.677 Z M97.54,20.4495 C98.6610056,19.4234949 100.009992,18.9105 101.587,18.9105 C102.157003,18.9105 102.666831,19.0039157 103.1165,19.19075 C103.566169,19.3775843 103.946165,19.6372483 104.2565,19.96975 C104.566835,20.3022517 104.802749,20.6996644 104.96425,21.162 C105.125751,21.6243356 105.2065,22.1309972 105.2065,22.682 L105.2065,28.838 L104.1425,28.838 C103.920832,28.838 103.749834,28.8047503 103.6295,28.73825 C103.509166,28.6717497 103.414167,28.5371677 103.3445,28.3345 L103.1355,27.6315 C102.888499,27.8531678 102.647835,28.0479158 102.4135,28.21575 C102.179165,28.3835842 101.935335,28.5244994 101.682,28.6385 C101.428665,28.7525006 101.157918,28.839583 100.86975,28.89975 C100.581582,28.959917 100.263335,28.99 99.915,28.99 C99.5033313,28.99 99.1233351,28.9345839 98.775,28.82375 C98.4266649,28.7129161 98.1258346,28.5466678 97.8725,28.325 C97.6191654,28.1033322 97.422834,27.827835 97.2835,27.4985 C97.144166,27.169165 97.0745,26.7860022 97.0745,26.349 C97.0745,26.1019988 97.1156663,25.8565846 97.198,25.61275 C97.2803337,25.3689154 97.4149157,25.1361678 97.60175,24.9145 C97.7885843,24.6928322 98.0308318,24.4838343 98.3285,24.2875 C98.6261682,24.0911657 98.9919145,23.9201674 99.42575,23.7745 C99.8595855,23.6288326 100.364664,23.5100838 100.941,23.41825 C101.517336,23.3264162 102.175996,23.2710001 102.917,23.252 L102.917,22.682 C102.917,22.0296634 102.777668,21.5467516 102.499,21.23325 C102.220332,20.9197484 101.818169,20.763 101.2925,20.763 C100.912498,20.763 100.597418,20.8073329 100.34725,20.896 C100.097082,20.9846671 99.8770009,21.0844161 99.687,21.19525 C99.496999,21.3060839 99.3244174,21.4058329 99.16925,21.4945 C99.0140826,21.5831671 98.8415009,21.6275 98.6515,21.6275 C98.4868325,21.6275 98.3475006,21.5847504 98.2335,21.49925 C98.1194994,21.4137496 98.027667,21.3140006 97.958,21.2 L97.54,20.4495 Z M110.6595,28.99 C109.810829,28.99 109.160086,28.7509191 108.70725,28.27275 C108.254414,27.7945809 108.028,27.1343375 108.028,26.292 L108.028,20.8485 L107.0305,20.8485 C106.903833,20.8485 106.796167,20.8073337 106.7075,20.725 C106.618833,20.6426663 106.5745,20.5191675 106.5745,20.3545 L106.5745,19.4235 L108.142,19.167 L108.636,16.507 C108.667667,16.3803327 108.727833,16.282167 108.8165,16.2125 C108.905167,16.142833 109.019166,16.108 109.1585,16.108 L110.3745,16.108 L110.3745,19.1765 L112.9775,19.1765 L112.9775,20.8485 L110.3745,20.8485 L110.3745,26.1305 C110.3745,26.4345015 110.448916,26.6719991 110.59775,26.843 C110.746584,27.0140009 110.950832,27.0995 111.2105,27.0995 C111.356167,27.0995 111.478083,27.0820835 111.57625,27.04725 C111.674417,27.0124165 111.759916,26.9760002 111.83275,26.938 C111.905584,26.8999998 111.9705,26.8635835 112.0275,26.82875 C112.0845,26.7939165 112.1415,26.7765 112.1985,26.7765 C112.268167,26.7765 112.325166,26.7939165 112.3695,26.82875 C112.413834,26.8635835 112.461333,26.915833 112.512,26.9855 L113.215,28.1255 C112.872998,28.4105014 112.480336,28.6258326 112.037,28.7715 C111.593664,28.9171674 111.134502,28.99 110.6595,28.99 Z M120.758,22.8435 C120.758,22.5394985 120.71525,22.252918 120.62975,21.98375 C120.54425,21.714582 120.416001,21.4786677 120.245,21.276 C120.073999,21.0733323 119.857085,20.9134173 119.59425,20.79625 C119.331415,20.6790827 119.025835,20.6205 118.6775,20.6205 C117.99983,20.6205 117.466252,20.8136647 117.07675,21.2 C116.687248,21.5863353 116.438667,22.1341631 116.331,22.8435 L120.758,22.8435 Z M116.2835,24.259 C116.3215,24.7593358 116.410166,25.1915815 116.5495,25.55575 C116.688834,25.9199185 116.872499,26.2207488 117.1005,26.45825 C117.328501,26.6957512 117.599248,26.8730827 117.91275,26.99025 C118.226252,27.1074173 118.572998,27.166 118.953,27.166 C119.333002,27.166 119.660749,27.1216671 119.93625,27.033 C120.211751,26.9443329 120.452416,26.8461672 120.65825,26.7385 C120.864084,26.6308328 121.044583,26.5326671 121.19975,26.444 C121.354917,26.3553329 121.505333,26.311 121.651,26.311 C121.847334,26.311 121.993,26.3838326 122.088,26.5295 L122.7625,27.3845 C122.502832,27.6885015 122.211502,27.9434156 121.8885,28.14925 C121.565498,28.3550844 121.228252,28.5197494 120.87675,28.64325 C120.525248,28.7667506 120.167418,28.8538331 119.80325,28.9045 C119.439082,28.9551669 119.086002,28.9805 118.744,28.9805 C118.06633,28.9805 117.43617,28.8680845 116.8535,28.64325 C116.27083,28.4184155 115.764169,28.0859189 115.3335,27.64575 C114.902831,27.2055811 114.564001,26.6609199 114.317,26.01175 C114.069999,25.3625801 113.9465,24.6105043 113.9465,23.7555 C113.9465,23.0904967 114.054166,22.4650863 114.2695,21.87925 C114.484834,21.2934137 114.793581,20.7835855 115.19575,20.34975 C115.597919,19.9159145 116.088747,19.5723346 116.66825,19.319 C117.247753,19.0656654 117.901663,18.939 118.63,18.939 C119.244336,18.939 119.811164,19.0371657 120.3305,19.2335 C120.849836,19.4298343 121.296331,19.7164148 121.67,20.09325 C122.043669,20.4700852 122.336582,20.9324139 122.54875,21.48025 C122.760918,22.0280861 122.867,22.6534965 122.867,23.3565 C122.867,23.7111684 122.829,23.9502494 122.753,24.07375 C122.677,24.1972506 122.531334,24.259 122.316,24.259 L116.2835,24.259 Z M136.1575,28.838 L133.6115,28.838 C133.434166,28.838 133.293251,28.7936671 133.18875,28.705 C133.084249,28.6163329 133.000334,28.5150006 132.937,28.401 L129.7545,23.1285 C129.703833,23.2868341 129.643667,23.4229994 129.574,23.537 L126.5245,28.401 C126.4485,28.5086672 126.361417,28.6084162 126.26325,28.70025 C126.165083,28.7920838 126.036834,28.838 125.8785,28.838 L123.494,28.838 L128.054,21.77 L123.6745,15.101 L126.2205,15.101 C126.397834,15.101 126.526083,15.1247498 126.60525,15.17225 C126.684417,15.2197502 126.758833,15.2973328 126.8285,15.405 L129.954,20.44 C130.017334,20.2816659 130.093333,20.1233341 130.182,19.965 L133.051,15.4525 C133.120667,15.3321661 133.196666,15.2435003 133.279,15.1865 C133.361334,15.1294997 133.465833,15.101 133.5925,15.101 L136.034,15.101 L131.6165,21.6655 L136.1575,28.838 Z" id="XTG-Network-travelga" fill="#FFFFFF"></path>
                            </g>
                        </g>
                    </g>
                </g>
            </g>
        </g>
    </g>
</svg>