<?xml version="1.0" encoding="UTF-8" standalone="no"?>
<svg width="215px" height="46px" viewBox="0 0 215 46" version="1.1" xmlns="http://www.w3.org/2000/svg" xmlns:xlink="http://www.w3.org/1999/xlink">
    <!-- Generator: Sketch 41.2 (35397) - http://www.bohemiancoding.com/sketch -->
    <title>logo_white_travelgatex</title>
    <desc>Created with Sketch.</desc>
    <defs></defs>
    <g id="Page-1" stroke="none" stroke-width="1" fill="none" fill-rule="evenodd">
        <g id="logo_white_travelgatex">
            <g id="Layer_1">
                <g id="Group">
                    <g transform="translate(171.926995, 0.000000)" id="Shape" fill="#009DF5">
                        <polyline points="27.2973345 22.8115365 13.9242615 3.62579796 1.85067912 3.62579796 15.0843124 22.9436757 0 45.622343 11.6997963 45.622343"></polyline>
                        <g transform="translate(22.266553, 0.000000)">
                            <polyline points="20.4611375 0.0949066214 8.39449066 0.0949066214 0.082860781 12.3590323 6.33793718 20.9889643"></polyline>
                            <polyline points="6.20798812 24.5899406 18.274635 42.1418251 15.8596265 42.1418251 6.20032258 42.1418251 0.082860781 33.2585654"></polyline>
                        </g>
                    </g>
                    <g transform="translate(0.000000, 13.140917)" id="Shape" fill="#FFFFFF">
                        <polygon points="16.0085569 3.33779287 9.90387097 3.33779287 9.90387097 20.4899745 6.13680815 20.4899745 6.13680815 3.33779287 0.0321222411 3.33779287 0.0321222411 0.243837012 16.0081919 0.243837012"></polygon>
                        <path d="M34.4762903,20.4899745 L31.074253,20.4899745 C30.430348,20.4899745 29.9634805,20.238472 29.6740153,19.7343718 L25.4178183,13.2515195 C25.2590323,13.0091426 25.08382,12.8357555 24.8929117,12.7335484 C24.7012733,12.6306112 24.4187436,12.5791426 24.0453226,12.5791426 L22.4355603,12.5791426 L22.4355603,20.4899745 L18.6688625,20.4899745 L18.6688625,0.243837012 L24.8439983,0.243837012 C26.216129,0.243837012 27.3940662,0.386196944 28.3792699,0.670551783 C29.3637436,0.955271647 30.17118,1.35460951 30.8015789,1.86783531 C31.4316129,2.38142615 31.8962903,2.99466893 32.1948812,3.70865874 C32.493472,4.42337861 32.6431324,5.20964346 32.6431324,6.06818336 C32.6431324,6.74968591 32.5427504,7.39359083 32.3419864,8.00062818 C32.1408574,8.60693548 31.8513922,9.15775891 31.4739559,9.65236842 C31.0957895,10.1466129 30.6289219,10.5806282 30.0737182,10.9544143 C29.5181494,11.3278353 28.8859253,11.6216808 28.1766808,11.8363158 C28.4190577,11.9768506 28.6428183,12.1422071 28.8486927,12.3331154 C29.053837,12.5247538 29.240365,12.7514346 29.4086418,13.0124278 L34.4762903,20.4899745 Z M24.7870543,9.87722411 C25.4962988,9.87722411 26.115017,9.78815789 26.6424788,9.61112054 C27.1695756,9.43408319 27.6035908,9.18878608 27.9445246,8.87632428 C28.2850934,8.56349745 28.5395161,8.19226655 28.7077929,7.7629966 C28.8753396,7.33372666 28.9592954,6.86211375 28.9592954,6.34852292 C28.9592954,5.32170628 28.6212818,4.53288625 27.9441596,3.98242784 C27.2674024,3.43160441 26.2332852,3.15601019 24.8429032,3.15601019 L22.4344652,3.15601019 L22.4344652,9.87758913 L24.7870543,9.87758913 L24.7870543,9.87722411 Z"></path>
                        <path d="M54.022674,20.4899745 L51.1101358,20.4899745 C50.783073,20.4899745 50.5173345,20.4082088 50.3118251,20.2454075 C50.1066808,20.0822411 49.9526401,19.8789219 49.8497029,19.6358149 L48.3374024,15.5059168 L39.9505772,15.5059168 L38.4382767,19.6358149 C38.3630815,19.8508149 38.2181664,20.0471986 38.0038964,20.223871 C37.7892615,20.4012733 37.5235229,20.4899745 37.2055857,20.4899745 L34.2656706,20.4899745 L42.2323514,0.243837012 L46.0691341,0.243837012 L54.022674,20.4899745 Z M47.371545,12.8448812 L44.9076231,6.10943124 C44.7860696,5.81120543 44.6601358,5.4567657 44.5294567,5.045382 C44.3991426,4.63472835 44.2677334,4.19158744 44.1370543,3.7152292 C44.0158659,4.19158744 43.8899321,4.63728353 43.759618,5.05268251 C43.6285739,5.46771647 43.5026401,5.82945671 43.3814516,6.13790323 L40.9310357,12.8448812 L47.371545,12.8448812 L47.371545,12.8448812 Z"></path>
                        <path d="M71.8603735,0.243837012 L63.683438,20.4899745 L60.2814007,20.4899745 L52.1044652,0.243837012 L55.1287012,0.243837012 C55.455764,0.243837012 55.7215025,0.323047538 55.9266469,0.481833616 C56.1317912,0.640619694 56.2858319,0.845764007 56.3891341,1.09763158 L61.1640323,13.4475382 C61.3220883,13.8490662 61.4739389,14.289652 61.618489,14.7707555 C61.763039,15.251129 61.9006537,15.752309 62.0320628,16.2757555 C62.1437606,15.752309 62.2649491,15.251129 62.3959932,14.7707555 C62.5266723,14.289652 62.6712224,13.8490662 62.8300085,13.4475382 L67.5767997,1.09763158 C67.6516299,0.882996604 67.7983701,0.686977929 68.0177504,0.509575552 C68.2367657,0.3325382 68.5054244,0.243837012 68.8229966,0.243837012 L71.8603735,0.243837012 Z"></path>
                        <polygon points="77.7409338 3.23996604 77.7409338 8.85478778 84.8260781 8.85478778 84.8260781 11.752725 77.7409338 11.752725 77.7409338 17.4796095 86.7300509 17.4796095 86.7300509 20.4892445 73.960365 20.4892445 73.960365 0.243837012 86.7300509 0.243837012 86.7300509 3.23996604"></polygon>
                        <polygon points="101.921681 17.3817827 101.921681 20.4899745 90.0623684 20.4899745 90.0623684 0.243837012 93.8283362 0.243837012 93.8283362 17.3817827 101.921681 17.3817827"></polygon>
                        <path d="M120.585433,10.3386163 L120.585433,18.5297878 C119.558981,19.2853905 118.464635,19.8387691 117.302029,20.1888285 C116.139788,20.5388879 114.896146,20.7137351 113.571104,20.7137351 C111.918998,20.7137351 110.422759,20.4574873 109.083115,19.9438964 C107.743472,19.4306706 106.599847,18.7170458 105.652606,17.801562 C104.705365,16.8875382 103.974949,15.795382 103.461723,14.5250934 C102.948132,13.2555348 102.691885,11.8698981 102.691885,10.3659932 C102.691885,8.84493209 102.939007,7.44943973 103.433981,6.17951613 C103.928591,4.91032258 104.6309,3.81816638 105.540908,2.90304754 C106.450917,1.98865874 107.555119,1.27941426 108.852054,0.775314092 C110.149355,0.270848896 111.605441,0.0189813243 113.220314,0.0189813243 C114.041986,0.0189813243 114.809635,0.0843208829 115.524355,0.215 C116.23871,0.346044143 116.900866,0.525636672 117.512649,0.75450764 C118.123701,0.983013582 118.681825,1.26079796 119.18556,1.58713073 C119.68966,1.91419355 120.151418,2.27337861 120.571927,2.66578098 L119.493642,4.37373514 C119.32573,4.64494907 119.10635,4.80994058 118.835136,4.8705348 C118.564652,4.93149406 118.270441,4.86396435 117.953599,4.66758065 C117.645518,4.49054329 117.337436,4.31277589 117.029355,4.13573854 C116.720908,3.95797114 116.378514,3.80393039 116.000348,3.67325127 C115.622912,3.54293718 115.197657,3.43525467 114.726774,3.35093379 C114.255161,3.26697793 113.711638,3.225 113.09511,3.225 C112.096766,3.225 111.193328,3.39327674 110.385526,3.72910017 C109.578455,4.0649236 108.889652,4.54602716 108.320942,5.17095076 C107.751138,5.79660441 107.312377,6.54819185 107.005025,7.42534805 C106.696944,8.30286927 106.542538,9.28296265 106.542538,10.3663582 C106.542538,11.523489 106.70826,12.5572411 107.039703,13.4676146 C107.370416,14.3779881 107.837649,15.1478268 108.439941,15.7782258 C109.041503,16.4078947 109.767903,16.8889983 110.616952,17.2197114 C111.465637,17.5515195 112.413608,17.716511 113.459041,17.716511 C114.206248,17.716511 114.873514,17.6373005 115.46157,17.4788795 C116.049261,17.3200934 116.623812,17.1058234 117.183761,16.8342445 L117.183761,13.1657385 L114.635518,13.1657385 C114.392776,13.1657385 114.203328,13.0978438 114.068633,12.9624194 C113.933209,12.827725 113.865314,12.6616384 113.865314,12.4656197 L113.865314,10.3375212 L120.585433,10.3375212 L120.585433,10.3386163 L120.585433,10.3386163 Z"></path>
                        <path d="M141.336036,20.4899745 L138.423497,20.4899745 C138.096435,20.4899745 137.830696,20.4082088 137.625187,20.2454075 C137.420042,20.0822411 137.266002,19.8789219 137.162699,19.6358149 L135.650399,15.5059168 L127.262844,15.5059168 L125.750543,19.6358149 C125.675348,19.8508149 125.531163,20.0471986 125.316893,20.223871 C125.101163,20.4012733 124.835789,20.4899745 124.518217,20.4899745 L121.577572,20.4899745 L129.544253,0.243837012 L133.381036,0.243837012 L141.336036,20.4899745 Z M134.685272,12.8448812 L132.22135,6.10943124 C132.099431,5.81120543 131.973497,5.4567657 131.843548,5.045382 C131.712869,4.63472835 131.581825,4.19158744 131.451876,3.7152292 C131.329958,4.19158744 131.204024,4.63728353 131.07371,5.05268251 C130.942666,5.46771647 130.816732,5.82945671 130.695543,6.13790323 L128.245127,12.8448812 L134.685272,12.8448812 L134.685272,12.8448812 Z"></path>
                        <polygon points="155.603421 3.33779287 149.49837 3.33779287 149.49837 20.4899745 145.732767 20.4899745 145.732767 3.33779287 139.626986 3.33779287 139.626986 0.243837012 155.603421 0.243837012 155.603421 3.33779287"></polygon>
                        <polygon points="162.04393 3.23996604 162.04393 8.85478778 169.129075 8.85478778 169.129075 11.752725 162.04393 11.752725 162.04393 17.4796095 171.033413 17.4796095 171.033413 20.4892445 158.264092 20.4892445 158.264092 0.243837012 171.033413 0.243837012 171.033413 3.23996604"></polygon>
                    </g>
                </g>
            </g>
        </g>
    </g>
</svg>