<?xml version="1.0" standalone="no"?>
<!DOCTYPE svg PUBLIC "-//W3C//DTD SVG 20010904//EN"
 "http://www.w3.org/TR/2001/REC-SVG-20010904/DTD/svg10.dtd">
<svg version="1.0" xmlns="http://www.w3.org/2000/svg"
 width="519.000000pt" height="97.000000pt" viewBox="0 0 519.000000 97.000000"
 preserveAspectRatio="xMidYMid meet">
<metadata>
Created by potrace 1.15, written by Peter Selinger 2001-2017
</metadata>
<g transform="translate(0.000000,97.000000) scale(0.100000,-0.100000)"
fill="#000000" stroke="none">
<path d="M221 728 c-10 -24 -64 -148 -119 -276 l-101 -233 47 3 46 3 26 65 26
65 133 3 132 3 31 -71 31 -70 43 0 c38 0 42 2 36 18 -4 10 -56 134 -117 275
l-110 257 -43 0 c-41 0 -44 -2 -61 -42z m122 -205 c19 -45 32 -84 29 -87 -7
-8 -177 -8 -184 -1 -5 5 69 185 88 216 4 7 12 0 19 -17 7 -16 28 -66 48 -111z"/>
<path d="M1520 495 l0 -275 185 0 185 0 0 35 0 35 -140 0 -140 0 0 240 0 240
-45 0 -45 0 0 -275z"/>
<path d="M2915 680 c-15 -29 -17 -30 -70 -24 -175 21 -303 -133 -236 -283 24
-52 73 -81 205 -124 110 -36 137 -60 120 -107 -28 -82 -229 -78 -250 4 -5 20
-12 24 -45 24 -34 0 -39 -3 -39 -24 0 -31 38 -86 76 -108 74 -43 203 -40 275
7 39 25 69 77 69 120 0 40 -29 93 -60 112 l-27 16 38 38 c43 43 55 84 46 161
-6 44 -14 64 -51 113 -5 7 1 27 18 53 14 23 26 44 26 47 0 3 -18 5 -40 5 -34
0 -42 -4 -55 -30z m-41 -115 c64 -31 87 -126 46 -193 -32 -53 -59 -59 -139
-34 -88 28 -105 48 -105 117 -1 79 44 123 127 124 22 1 53 -6 71 -14z"/>
<path d="M3667 646 c-58 -16 -84 -38 -98 -86 -9 -28 -8 -44 4 -72 19 -46 51
-62 163 -83 49 -10 97 -21 107 -26 24 -13 21 -55 -5 -73 -30 -21 -151 -21
-209 -1 -46 17 -57 12 -61 -25 -5 -38 39 -54 159 -58 89 -3 109 -1 147 18 72
35 92 102 50 168 -19 29 -47 40 -158 63 -118 24 -151 54 -105 95 17 15 35 19
93 18 39 -1 90 -9 113 -17 l42 -16 7 31 c8 41 -8 53 -90 67 -77 14 -98 13
-159 -3z"/>
<path d="M675 631 c-22 -10 -48 -27 -57 -38 -43 -48 -61 -171 -36 -244 31 -93
93 -129 220 -129 85 0 158 14 158 30 0 5 -4 20 -10 34 -8 23 -12 24 -42 15
-51 -14 -165 -11 -198 6 -33 17 -50 43 -50 74 0 20 5 21 160 21 l160 0 0 38
c0 50 -18 111 -43 146 -44 62 -177 86 -262 47z m186 -80 c17 -17 29 -40 29
-55 l0 -26 -115 0 -115 0 0 26 c0 15 12 38 29 55 26 25 37 29 86 29 49 0 60
-4 86 -29z"/>
<path d="M1166 640 c-16 -5 -40 -19 -54 -32 -44 -41 -52 -76 -52 -238 l0 -150
40 0 40 0 0 145 c0 84 5 154 11 168 15 34 49 47 118 47 55 0 59 2 65 25 4 14
4 30 1 35 -7 12 -129 12 -169 0z"/>
<path d="M2175 642 l-40 -7 -3 -207 -2 -208 40 0 40 0 2 178 3 177 79 3 c131
5 146 -19 146 -230 l0 -128 41 0 42 0 -5 159 c-4 134 -8 163 -24 192 -33 56
-75 73 -184 75 -52 1 -113 -1 -135 -4z"/>
<path d="M1950 430 l0 -210 40 0 40 0 0 210 0 210 -40 0 -40 0 0 -210z"/>
<path d="M3092 481 c3 -174 7 -187 72 -235 24 -19 42 -21 154 -21 70 0 135 3
145 7 15 7 17 26 17 208 l0 200 -40 0 -40 0 -2 -172 -3 -173 -80 -3 c-134 -5
-145 11 -145 214 l0 134 -41 0 -41 0 4 -159z"/>
</g>
</svg>
