<?xml version="1.0" standalone="no"?>
<!DOCTYPE svg PUBLIC "-//W3C//DTD SVG 20010904//EN"
 "http://www.w3.org/TR/2001/REC-SVG-20010904/DTD/svg10.dtd">
<svg version="1.0" xmlns="http://www.w3.org/2000/svg"
 width="1251.000000pt" height="532.000000pt" viewBox="0 0 1251.000000 532.000000"
 preserveAspectRatio="xMidYMid meet">

<g transform="translate(0.000000,532.000000) scale(0.100000,-0.100000)"
fill="#000000" stroke="none">
<path d="M5770 2384 c-98 -44 -150 -123 -150 -229 1 -141 96 -235 237 -235
120 1 208 70 232 182 23 106 -19 205 -113 262 -58 36 -149 45 -206 20z"/>
<path d="M6700 2336 c-146 -34 -219 -67 -315 -139 -85 -64 -158 -164 -188
-257 -86 -262 -12 -526 188 -677 98 -74 180 -110 310 -137 302 -61 617 12 777
180 53 56 102 143 118 207 21 91 32 87 -219 87 l-219 0 -17 -42 c-38 -97 -100
-144 -203 -154 -125 -13 -226 45 -277 158 -25 56 -28 74 -28 163 0 158 46 251
151 302 46 22 69 27 127 27 113 -2 188 -45 226 -131 l18 -43 222 0 221 0 -7
48 c-4 26 -22 80 -40 120 -62 134 -186 230 -360 278 -80 22 -405 29 -485 10z"/>
<path d="M851 2218 c-24 -62 -58 -151 -76 -198 -19 -47 -64 -164 -100 -260
-36 -96 -72 -191 -80 -210 -7 -19 -39 -102 -70 -185 -31 -82 -61 -158 -66
-167 -25 -48 -24 -49 208 -46 l217 3 20 65 21 65 214 3 c139 1 218 -1 225 -8
6 -6 20 -36 31 -68 l20 -57 788 -3 787 -2 0 140 0 140 -362 2 -363 3 0 80 0
80 338 3 337 2 0 140 0 140 -337 2 -338 3 0 80 0 80 363 3 362 2 0 140 0 140
-575 0 -575 0 -2 -540 c-2 -325 -7 -540 -12 -541 -5 0 -15 14 -22 33 -6 18
-48 128 -92 243 -44 116 -117 307 -162 425 -44 118 -96 251 -113 295 l-32 80
-256 3 -256 2 -42 -112z m326 -318 c6 -19 23 -75 38 -125 15 -49 31 -97 35
-105 4 -9 11 -35 15 -58 l7 -42 -121 0 c-66 0 -122 4 -125 9 -3 4 3 35 14 67
10 33 35 111 55 174 20 63 38 121 41 129 7 21 27 -3 41 -49z"/>
<path d="M3052 1738 l3 -593 195 0 195 0 6 180 c3 99 6 181 7 183 1 1 77 2
168 2 l166 0 28 -28 c31 -32 34 -44 48 -209 6 -61 13 -116 17 -122 4 -7 79
-11 222 -11 201 0 215 1 208 18 -29 67 -38 113 -46 232 -5 74 -11 155 -15 180
-7 52 -36 104 -70 127 -33 21 -30 33 19 68 23 17 52 51 66 80 23 44 26 61 25
155 0 91 -4 113 -26 161 -34 75 -83 120 -160 147 -62 22 -72 22 -561 22 l-497
0 2 -592z m739 292 c48 -14 70 -40 76 -93 6 -50 -15 -99 -50 -119 -32 -18
-332 -25 -352 -8 -19 16 -22 199 -3 218 15 15 276 17 329 2z"/>
<path d="M4384 2317 c-2 -7 -3 -76 -2 -152 l3 -140 197 -3 198 -2 2 -443 3
-442 214 -3 c165 -2 216 1 223 10 4 7 8 202 8 433 0 231 0 426 0 433 0 9 38
12 156 12 l156 0 -7 23 c-17 54 -17 176 -1 226 9 27 16 52 16 55 0 3 -261 6
-580 6 -467 0 -582 -3 -586 -13z"/>
<path d="M7680 1730 l0 -600 228 2 227 3 3 177 2 176 59 51 c48 42 61 48 73
38 9 -7 67 -77 129 -157 62 -80 139 -178 171 -217 l59 -73 281 0 c238 0 279 2
275 14 -3 8 -135 164 -294 348 -158 183 -295 342 -303 352 -13 17 -12 21 15
43 216 183 495 428 495 434 0 5 -125 9 -277 9 l-278 0 -195 -200 c-107 -110
-198 -200 -202 -200 -4 0 -9 89 -10 198 l-3 197 -227 3 -228 2 0 -600z"/>
<path d="M9260 1730 l0 -600 628 2 627 3 3 144 c2 109 -1 146 -10 153 -7 4
-187 8 -400 8 l-388 0 0 69 c0 54 4 70 16 75 9 3 166 6 350 6 l334 0 0 140 0
140 -347 2 -348 3 -3 73 -3 72 568 -2 568 -3 5 -440 5 -440 225 0 225 0 5 440
5 440 203 3 202 2 0 155 0 155 -1235 0 -1235 0 0 -600z"/>
<path d="M5640 1514 l0 -384 218 2 217 3 3 383 c1 211 -1 382 -6 380 -4 -1
-34 -16 -67 -33 -53 -27 -70 -30 -151 -30 -82 0 -96 3 -152 32 l-62 32 0 -385z"/>
<path d="M1379 714 c-7 -9 -16 -37 -19 -63 -4 -39 -9 -47 -28 -49 -30 -4 -26
-36 5 -40 22 -3 23 -7 25 -145 3 -118 6 -142 18 -142 12 0 15 24 18 142 l3
142 27 3 c16 2 28 10 30 21 3 13 -3 17 -27 17 -29 0 -31 2 -31 38 0 41 14 62
42 62 10 0 18 7 18 15 0 21 -63 20 -81 -1z"/>
<path d="M2487 724 c-4 -4 -7 -18 -7 -31 0 -17 6 -23 21 -23 16 0 20 5 17 27
-3 26 -18 39 -31 27z"/>
<path d="M3650 500 c0 -215 1 -231 18 -228 16 3 17 22 17 228 0 206 -1 225
-17 228 -17 3 -18 -13 -18 -228z"/>
<path d="M5564 695 c-8 -20 -14 -41 -13 -48 4 -33 -2 -47 -21 -47 -12 0 -20
-7 -20 -16 0 -9 9 -18 20 -21 23 -6 22 1 20 -133 -2 -118 5 -160 26 -160 11 0
14 28 14 145 0 109 3 145 13 147 6 0 17 2 22 3 6 2 16 3 23 4 24 2 6 26 -24
31 -50 9 -46 81 6 98 43 15 37 32 -11 32 -36 0 -41 -3 -55 -35z"/>
<path d="M6674 716 c-9 -24 4 -48 23 -44 12 2 18 12 18 28 0 29 -32 41 -41 16z"/>
<path d="M7845 718 c-3 -7 -4 -110 -3 -228 3 -183 5 -215 18 -215 13 0 15 32
15 224 0 171 -3 225 -12 228 -7 3 -15 -1 -18 -9z"/>
<path d="M8484 716 c-9 -24 4 -48 23 -44 12 2 18 12 18 28 0 29 -32 41 -41 16z"/>
<path d="M8825 718 c-3 -7 -4 -110 -3 -228 3 -183 5 -215 18 -215 13 0 15 32
15 224 0 171 -3 225 -12 228 -7 3 -15 -1 -18 -9z"/>
<path d="M8954 716 c-9 -22 2 -46 21 -46 12 0 15 8 13 27 -3 30 -25 42 -34 19z"/>
<path d="M10117 724 c-4 -4 -7 -18 -7 -31 0 -17 6 -23 21 -23 16 0 20 5 17 27
-3 26 -18 39 -31 27z"/>
<path d="M10576 715 c-9 -25 -7 -418 3 -434 16 -25 31 0 31 53 0 44 4 56 28
79 15 15 32 27 38 27 5 -1 34 -38 64 -83 49 -73 90 -108 90 -77 0 6 -27 51
-60 100 -33 49 -60 93 -60 99 0 5 23 29 50 54 28 25 50 50 50 56 0 27 -36 6
-106 -60 -44 -42 -79 -68 -84 -63 -5 5 -11 65 -12 133 -2 81 -7 126 -14 128
-6 2 -14 -3 -18 -12z"/>
<path d="M3957 684 c-4 -4 -7 -24 -7 -45 0 -28 -5 -38 -20 -42 -25 -7 -26 -27
-1 -34 18 -5 20 -17 23 -140 3 -121 5 -136 23 -149 25 -19 80 -15 80 6 0 9
-11 16 -28 18 l-28 3 3 132 c3 130 3 132 26 133 12 1 25 4 28 7 11 11 -7 27
-31 27 -21 0 -24 5 -27 42 -3 41 -22 60 -41 42z"/>
<path d="M9950 646 c0 -38 -3 -45 -22 -48 -31 -4 -34 -26 -4 -34 l26 -6 0
-127 c0 -148 10 -174 63 -169 39 4 43 29 7 38 -25 6 -25 7 -28 132 l-3 126 31
7 c36 8 35 27 -1 35 -20 5 -25 13 -27 48 -3 34 -7 42 -23 42 -16 0 -19 -7 -19
-44z"/>
<path d="M11250 658 c0 -38 -8 -52 -32 -61 -25 -9 -22 -22 7 -35 25 -12 25
-12 25 -147 0 -134 0 -136 24 -146 29 -13 79 -4 73 14 -2 7 -16 13 -30 15
l-27 3 0 129 c0 126 1 129 22 132 33 4 37 38 4 38 -22 0 -25 5 -28 42 -2 31
-8 44 -20 46 -14 3 -18 -4 -18 -30z"/>
<path d="M555 603 c-11 -3 -32 -14 -47 -24 -33 -24 -38 -24 -38 2 0 14 -5 19
-17 17 -16 -3 -18 -23 -21 -226 -2 -217 -2 -222 18 -222 18 0 20 6 20 75 0 41
2 75 5 75 3 0 23 -9 45 -20 112 -57 215 20 214 159 0 66 -24 120 -62 143 -31
19 -88 29 -117 21z m78 -44 c35 -16 57 -60 57 -117 0 -92 -36 -142 -102 -142
-51 0 -83 22 -102 71 -20 50 -20 78 0 129 25 61 87 86 147 59z"/>
<path d="M895 590 c-36 -18 -39 -18 -51 -2 -27 37 -35 -1 -32 -159 3 -129 5
-154 18 -154 12 0 16 21 20 110 6 123 16 150 65 171 41 17 49 28 32 43 -10 8
-23 6 -52 -9z"/>
<path d="M1084 599 c-125 -37 -142 -259 -25 -318 80 -41 162 -17 202 59 25 47
25 143 0 190 -31 59 -110 90 -177 69z m104 -45 c33 -23 52 -67 52 -119 0 -50
-10 -77 -43 -112 -25 -28 -91 -31 -126 -7 -44 32 -64 118 -41 181 24 64 106
94 158 57z"/>
<path d="M1595 595 c-76 -27 -118 -120 -95 -212 14 -58 25 -74 70 -102 66 -40
162 -18 202 46 17 29 18 34 4 39 -10 4 -28 -7 -49 -30 -29 -30 -41 -36 -76
-36 -23 0 -51 5 -62 10 -22 12 -49 61 -49 90 0 19 6 20 109 20 60 0 116 3 125
6 37 14 6 119 -45 155 -35 25 -88 30 -134 14z m99 -36 c23 -11 56 -62 56 -88
0 -7 -35 -11 -105 -11 -67 0 -105 4 -105 10 0 21 30 69 52 84 26 19 67 20 102
5z"/>
<path d="M1928 603 c-40 -6 -78 -49 -78 -88 0 -51 26 -73 110 -95 97 -25 123
-57 80 -100 -13 -13 -33 -20 -61 -20 -50 0 -77 14 -89 46 -6 14 -17 24 -30 24
-24 0 -24 -3 -4 -46 9 -19 29 -41 45 -49 55 -29 152 -11 186 34 7 9 13 31 13
49 0 43 -35 75 -98 92 -26 7 -55 14 -64 17 -24 6 -48 31 -48 49 0 28 38 54 79
54 33 0 44 -6 70 -37 35 -42 59 -36 42 10 -17 45 -83 70 -153 60z"/>
<path d="M2230 600 c-44 -11 -70 -43 -70 -87 0 -50 34 -79 110 -94 86 -17 118
-51 88 -92 -33 -45 -125 -37 -155 13 -9 17 -25 30 -35 30 -22 0 -23 -12 -3
-50 52 -100 245 -67 245 42 0 41 -28 62 -119 93 -69 22 -82 31 -88 53 -8 33
26 62 74 62 28 0 42 -8 69 -37 26 -28 37 -34 46 -25 9 9 9 18 0 36 -21 48 -92
72 -162 56z"/>
<path d="M2700 603 c-68 -14 -110 -78 -110 -170 0 -101 49 -162 137 -170 63
-5 110 19 140 72 45 80 21 215 -45 249 -33 17 -88 26 -122 19z m99 -49 c29
-21 51 -72 51 -119 0 -81 -45 -135 -112 -135 -58 0 -99 42 -105 107 -10 97 33
163 106 163 20 0 47 -7 60 -16z"/>
<path d="M3065 603 c-11 -3 -28 -12 -38 -21 -17 -16 -20 -15 -32 2 -8 11 -21
16 -30 12 -13 -5 -15 -27 -13 -163 3 -137 5 -158 19 -161 15 -3 17 12 20 118
l4 122 33 29 c34 30 77 38 112 19 29 -15 40 -65 40 -181 0 -90 3 -109 15 -109
13 0 15 22 15 139 0 136 0 139 -26 165 -15 14 -34 26 -43 26 -9 0 -25 2 -36 4
-11 2 -29 2 -40 -1z"/>
<path d="M3388 603 c-59 -9 -120 -103 -68 -103 11 0 20 6 20 14 0 25 50 56 89
56 49 0 81 -24 81 -60 0 -36 -1 -37 -85 -50 -116 -18 -154 -53 -140 -128 12
-67 110 -93 186 -50 l39 22 16 -23 c10 -14 24 -21 37 -19 29 4 34 34 7 41 -19
5 -20 13 -20 116 0 113 -8 149 -39 168 -21 13 -87 22 -123 16z m122 -209 c0
-56 -44 -94 -109 -94 -40 0 -53 4 -65 22 -21 29 -20 41 2 69 18 22 66 35 140
38 30 1 32 -1 32 -35z"/>
<path d="M4205 601 c-73 -18 -115 -80 -115 -167 1 -103 64 -174 157 -174 105
0 173 116 138 236 -24 82 -97 125 -180 105z m112 -66 c35 -35 35 -36 31 -105
-3 -60 -7 -73 -33 -100 -52 -55 -141 -36 -171 36 -28 66 -10 155 37 188 13 9
41 16 62 16 31 0 46 -7 74 -35z"/>
<path d="M4735 595 c-22 -8 -41 -19 -43 -25 -6 -17 -19 -11 -25 11 -3 12 -12
19 -19 17 -10 -4 -14 -54 -16 -226 -2 -217 -2 -222 18 -222 18 0 20 6 20 75 0
41 2 75 5 75 2 0 19 -9 37 -20 66 -40 159 -16 193 51 9 17 19 55 22 85 14 133
-79 219 -192 179z m102 -42 c49 -32 67 -119 39 -187 -18 -43 -51 -66 -96 -66
-67 0 -110 53 -110 135 0 108 88 170 167 118z"/>
<path d="M5280 600 c-76 -18 -121 -112 -101 -209 40 -197 301 -160 301 42 0
75 -59 167 -108 167 -9 0 -26 2 -37 4 -11 3 -36 1 -55 -4z m113 -54 c72 -67
50 -221 -35 -244 -67 -18 -117 14 -139 88 -17 55 -4 107 36 147 42 42 98 46
138 9z"/>
<path d="M5802 600 c-94 -22 -140 -152 -92 -257 45 -100 186 -114 249 -24 43
59 9 72 -43 16 -27 -28 -41 -35 -72 -35 -22 0 -50 7 -63 16 -21 15 -51 69 -51
93 0 6 49 12 123 13 l122 3 3 40 c6 91 -81 158 -176 135z m109 -59 c17 -17 29
-40 29 -55 l0 -26 -100 0 c-108 0 -114 4 -89 53 32 63 111 77 160 28z"/>
<path d="M6114 600 c-39 -12 -62 -38 -70 -78 -9 -45 34 -86 106 -101 69 -15
100 -35 100 -65 0 -35 -30 -56 -83 -56 -41 0 -49 4 -74 35 -30 38 -53 45 -53
17 0 -69 109 -113 195 -78 40 17 55 42 55 90 0 44 -28 67 -112 91 -77 21 -88
29 -88 66 0 33 23 49 72 49 32 0 50 -11 87 -55 20 -25 38 -3 23 29 -22 48 -96
74 -158 56z"/>
<path d="M6429 603 c-34 -5 -67 -41 -75 -81 -9 -44 33 -85 106 -102 71 -16
100 -35 100 -64 0 -35 -30 -56 -83 -56 -40 0 -49 4 -76 36 -20 25 -35 35 -46
31 -14 -6 -14 -9 0 -37 32 -63 115 -87 190 -56 38 16 55 42 55 83 0 48 -25 71
-103 94 -105 32 -128 58 -87 99 13 13 33 20 58 20 37 0 53 -10 90 -55 16 -18
32 -11 32 14 0 34 -82 86 -125 80 -5 -1 -22 -4 -36 -6z"/>
<path d="M6892 600 c-98 -23 -144 -170 -85 -271 53 -91 197 -89 253 3 28 46
28 160 0 205 -34 56 -98 80 -168 63z m91 -41 c37 -17 57 -60 57 -124 0 -92
-34 -134 -108 -135 -58 0 -97 38 -107 103 -18 116 65 198 158 156z"/>
<path d="M7257 600 c-16 -5 -35 -14 -44 -21 -12 -11 -17 -10 -28 4 -30 41 -35
19 -35 -148 0 -134 3 -165 14 -165 22 0 26 23 26 137 0 102 1 105 29 134 23
22 39 29 69 29 66 0 76 -21 82 -169 4 -103 8 -126 20 -126 12 0 15 21 18 121
1 67 -2 133 -7 147 -18 47 -88 74 -144 57z"/>
<path d="M7585 601 c-54 -13 -95 -52 -95 -91 0 -19 39 -10 45 10 18 57 121 68
159 17 27 -36 13 -59 -40 -70 -108 -22 -131 -30 -153 -52 -59 -58 -8 -155 80
-155 22 0 58 9 79 20 l40 20 20 -20 c24 -24 43 -25 60 -4 11 13 10 16 -8 21
-21 5 -22 11 -23 112 -1 58 -4 117 -8 130 -13 48 -89 78 -156 62z m125 -204
c0 -30 -27 -72 -55 -85 -37 -17 -101 -15 -119 4 -33 32 -12 88 37 99 112 25
137 22 137 -18z"/>
<path d="M8220 600 c-39 -9 -80 -51 -80 -81 0 -26 27 -24 41 4 19 35 40 46 87
47 48 0 82 -26 82 -64 0 -26 -39 -46 -91 -46 -43 0 -106 -28 -123 -55 -62 -94
57 -182 169 -125 39 20 39 20 60 0 25 -24 38 -25 54 -6 10 12 8 17 -8 26 -19
10 -21 20 -21 120 0 112 -8 148 -39 167 -25 16 -91 22 -131 13z m130 -201 c0
-17 -5 -39 -10 -50 -27 -49 -136 -67 -164 -27 -21 29 -20 41 2 69 18 22 66 35
140 38 29 1 32 -1 32 -30z"/>
<path d="M9187 600 c-16 -5 -35 -14 -43 -21 -12 -10 -17 -8 -29 7 -28 39 -36
4 -33 -157 3 -129 5 -154 18 -154 12 0 16 22 20 115 3 63 9 123 14 132 21 44
101 63 141 32 18 -13 21 -30 25 -147 4 -108 8 -132 20 -132 23 0 27 247 5 281
-26 40 -87 59 -138 44z"/>
<path d="M9522 600 c-69 -16 -112 -82 -112 -172 0 -65 24 -115 69 -145 65 -44
166 -21 204 44 17 29 17 34 3 39 -10 4 -28 -7 -49 -30 -29 -30 -41 -36 -76
-36 -50 0 -98 39 -107 88 l-6 32 110 0 c61 0 117 3 126 6 23 9 20 72 -4 111
-33 56 -92 79 -158 63z m94 -48 c25 -19 44 -53 44 -76 0 -14 -16 -16 -106 -16
-93 0 -105 2 -100 16 3 9 6 20 6 26 0 5 14 23 31 39 36 34 91 39 125 11z"/>
<path d="M10338 603 c-42 -6 -94 -61 -108 -113 -23 -85 9 -181 71 -212 42 -22
100 -23 139 -3 58 30 94 105 50 105 -11 0 -20 -6 -20 -14 0 -7 -12 -25 -26
-40 -20 -19 -37 -26 -66 -26 -49 0 -74 13 -91 48 -52 102 -3 222 90 222 30 0
43 -7 75 -42 27 -30 41 -39 49 -31 14 14 -13 68 -44 87 -26 16 -80 25 -119 19z"/>
<path d="M10976 600 c-120 -36 -143 -253 -34 -320 39 -24 107 -26 148 -5 33
17 74 70 65 85 -11 17 -34 11 -46 -12 -7 -13 -19 -28 -28 -35 -23 -18 -93 -16
-120 3 -21 15 -51 70 -51 94 0 6 42 10 113 10 139 0 151 6 136 70 -12 54 -50
97 -98 110 -41 11 -46 11 -85 0z m115 -59 c17 -17 29 -40 29 -55 l0 -26 -100
0 c-97 0 -100 1 -100 23 0 12 8 32 18 43 43 53 108 59 153 15z"/>
<path d="M11457 595 c-43 -15 -40 -13 -56 -42 -31 -60 9 -113 101 -133 67 -14
98 -34 98 -64 0 -35 -30 -56 -83 -56 -40 0 -49 4 -76 36 -31 38 -67 43 -54 7
40 -115 253 -107 253 10 0 52 -23 74 -103 98 -105 32 -128 58 -87 99 32 32 92
27 127 -10 30 -32 53 -39 53 -16 0 25 -41 65 -78 76 -46 12 -48 12 -95 -5z"/>
<path d="M2485 588 c-3 -8 -4 -81 -3 -163 3 -125 5 -150 18 -150 13 0 15 24
15 159 0 119 -3 160 -12 163 -7 3 -15 -2 -18 -9z"/>
<path d="M5006 584 c-3 -9 -6 -76 -6 -149 0 -140 4 -165 25 -165 20 0 25 25
25 130 0 90 2 101 25 128 14 16 36 33 50 36 14 4 25 13 25 21 0 23 -50 19 -76
-6 l-22 -21 -7 21 c-8 25 -30 28 -39 5z"/>
<path d="M6680 435 c0 -153 1 -166 18 -163 15 3 17 19 17 163 0 144 -2 160
-17 163 -17 3 -18 -10 -18 -163z"/>
<path d="M8486 584 c-9 -24 -7 -287 3 -303 23 -36 31 5 31 160 0 129 -3 159
-14 159 -8 0 -17 -7 -20 -16z"/>
<path d="M8616 584 c-3 -9 -6 -76 -6 -149 0 -140 4 -165 25 -165 20 0 25 25
25 126 0 113 13 147 65 164 19 6 35 18 35 26 0 20 -49 18 -73 -3 -18 -17 -19
-17 -32 0 -15 21 -31 22 -39 1z"/>
<path d="M8954 587 c-2 -7 -3 -80 -2 -162 3 -125 5 -150 18 -150 13 0 15 26
18 163 2 141 0 162 -13 162 -9 0 -18 -6 -21 -13z"/>
<path d="M10115 588 c-3 -8 -4 -81 -3 -163 3 -125 5 -150 18 -150 13 0 15 24
15 159 0 119 -3 160 -12 163 -7 3 -15 -2 -18 -9z"/>
</g>
</svg>
