<?xml version="1.0" encoding="utf-8"?>
<!-- Generator: Adobe Illustrator 19.2.1, SVG Export Plug-In . SVG Version: 6.00 Build 0)  -->
<svg version="1.1" id="layer" xmlns="http://www.w3.org/2000/svg" xmlns:xlink="http://www.w3.org/1999/xlink" x="0px" y="0px"
	 viewBox="0 0 652 652" style="enable-background:new 0 0 652 652;" xml:space="preserve">
<style type="text/css">
	.st0{fill:#F8AC00;}
</style>
<path class="st0" d="M245.9,379.5c-31.4,0-45.3-23.6-45-53.1c0.3-29.9,17.9-53.5,48.1-53.5c13.2,0,22,3.8,25.2,5l-3.5,13.5
	c-4.1-1.9-11.6-4.1-18.6-4.1c-13.2,0-28.6,7.9-28.9,38.1c-0.3,27.7,10.7,39.6,27,39.6c8.2,0,15.7-2.8,18.6-4.4l4.4,12.3
	C268.9,375.1,259.7,379.5,245.9,379.5 M308.2,310.6c-10.4,0-15.4,8.5-15.4,28.6s4.7,28.3,15.1,28.3c10.4,0,15.1-8.2,15.1-28.3
	C323.3,319.1,318.9,310.6,308.2,310.6z M308.2,379.5c-19.8,0-34.9-11-34.9-40.3c0-28.9,15.1-40.3,34.9-40.3s34.9,11,34.9,40.3
	C343.1,368.1,328,379.5,308.2,379.5 M370.7,300.2l1.3,8.8c6.3-8.2,12.9-10.4,21.4-10.4c19.2,0,22.6,14.8,22.6,25.8v53.8h-18.6V331
	c0-6.9,0.9-19.5-11-19.5c-13.5,0-14.8,18.6-14.8,25.2v41.8h-18.6v-78.3H370.7 M459.7,367.2c14.2,0,14.2-23.6,14.2-28.3
	c0-9.4-1.3-27.7-13.8-27.7c-13.8,0-14.2,23-14.2,27.7C446.2,350.8,448.1,367.2,459.7,367.2z M492.8,274.1v104.1h-16.7l-0.6-13.5
	c-3.8,6.6-10.1,15.1-22,15.1c-18.2,0-26.7-18.9-26.7-40.6c0-28.3,14.5-40.6,28-40.6c13.2,0,18.2,10.1,19.5,13.2v-37.7H492.8
	 M537.7,310.6c-10.4,0-15.4,8.5-15.4,28.6s5,28.3,15.4,28.3s15.1-8.2,15.1-28.3S548.1,310.6,537.7,310.6z M537.7,379.5
	c-19.8,0-34.9-11-34.9-40.3c0-28.9,15.1-40.3,34.9-40.3s34.9,11,34.9,40.3C572.6,368.1,557.5,379.5,537.7,379.5 M599,300.2l0.3,19.5
	c6.3-19.2,16-20.8,19.5-20.8c3.1,0,6,0.9,7.5,1.3l-3.5,16.4c-1.6-0.3-3.8-0.9-6-0.9c-5.3,0-9.1,3.1-11,5.7c-3.8,5.3-5.3,11-5.3,28.9
	v28h-18.6v-78H599"/>
<path class="st0" d="M87.4,263.1c-34.9,0-61,28.3-61,62.9s26.1,62.9,61,62.9c34.6,0,61-28,61-62.9C148.1,291.4,122,263.1,87.4,263.1
	z M87.4,383.2c-31.4,0-55.3-25.5-55.3-57.2c0-31.4,23.6-57.2,55.3-57.2s55,25.8,55,57.5C142.4,357.8,118.9,383.2,87.4,383.2z
	 M124.2,365v-10.1l-40.9-37.1c-1.6-1.6-0.9-2.2,0.3-2.2h30.8L99,328.2l5.7,5.3l32.4-25.2H89.3c-6.3,0-8.8,0-10.4,0.6
	c-1.6,0.3-3.5,1.3-4.4,3.5c-0.6,1.6-0.6,4.4,0.3,6.3c1.6,2.5,3.8,4.7,10.4,11.3c-6.3-3.8-23-14.8-23-14.8H67v-7.2H37.4
	C37.4,308.1,124.2,365,124.2,365z"/>
</svg>
