<?xml version="1.0" encoding="UTF-8" standalone="no"?>
<!-- Created with Inkscape (http://www.inkscape.org/) -->

<svg
   xmlns:dc="http://purl.org/dc/elements/1.1/"
   xmlns:cc="http://creativecommons.org/ns#"
   xmlns:rdf="http://www.w3.org/1999/02/22-rdf-syntax-ns#"
   xmlns:svg="http://www.w3.org/2000/svg"
   xmlns="http://www.w3.org/2000/svg"
   xmlns:sodipodi="http://sodipodi.sourceforge.net/DTD/sodipodi-0.dtd"
   xmlns:inkscape="http://www.inkscape.org/namespaces/inkscape"
   version="1.1"
   id="svg2"
   xml:space="preserve"
   width="3325.9868"
   height="585.82666"
   viewBox="0 0 3325.9868 585.82666"
   sodipodi:docname="lh_logo_blue_1c_4c.svg"
   inkscape:version="0.92.1 r15371"><metadata
     id="metadata8"><rdf:RDF><cc:Work
         rdf:about=""><dc:format>image/svg+xml</dc:format><dc:type
           rdf:resource="http://purl.org/dc/dcmitype/StillImage" /><dc:title></dc:title></cc:Work></rdf:RDF></metadata><defs
     id="defs6"><clipPath
       clipPathUnits="userSpaceOnUse"
       id="clipPath18"><path
         d="M 0,439.37 H 2494.49 V 0 H 0 Z"
         id="path16"
         inkscape:connector-curvature="0" /></clipPath></defs><sodipodi:namedview
     pagecolor="#ffffff"
     bordercolor="#666666"
     borderopacity="1"
     objecttolerance="10"
     gridtolerance="10"
     guidetolerance="10"
     inkscape:pageopacity="0"
     inkscape:pageshadow="2"
     inkscape:window-width="640"
     inkscape:window-height="480"
     id="namedview4"
     showgrid="false"
     inkscape:zoom="0.13259223"
     inkscape:cx="1662.9934"
     inkscape:cy="292.91333"
     inkscape:window-x="0"
     inkscape:window-y="0"
     inkscape:window-maximized="0"
     inkscape:current-layer="g10" /><g
     id="g10"
     inkscape:groupmode="layer"
     inkscape:label="lh_logo_blue_1c_4c"
     transform="matrix(1.3333333,0,0,-1.3333333,0,585.82667)"><g
       id="g12"><g
         id="g14"
         clip-path="url(#clipPath18)"><g
           id="g20"
           transform="translate(302.1201,261.9609)"><path
             d="m 0,0 c -1.616,0 -2.976,-0.042 -3.741,-0.127 -0.893,-1.616 -2.211,-3.784 -4.167,-6.803 30.44,0 58.075,-2.508 88.642,-7.992 l -8.63,-8.333 c -27.592,4.889 -50.507,6.844 -79.714,6.844 -4.251,0 -5.144,0 -6.164,-0.042 -1.021,-1.53 -3.317,-4.506 -5.612,-7.27 2.593,0.17 7.61,0.255 14.539,0.255 24.021,0 46.468,-1.785 70.829,-5.697 l -8.631,-8.375 c -18.536,2.891 -41.196,4.549 -61.518,4.549 -7.227,0 -15.432,-0.255 -22.787,-0.68 -1.658,-1.913 -5.994,-6.59 -7.312,-8.035 9.735,1.02 20.449,1.488 33.203,1.488 18.154,0 35.5,-1.191 51.91,-3.614 l -8.631,-8.29 c -11.691,1.445 -25.891,2.295 -38.432,2.295 -32.353,0 -57.862,-7.014 -84.221,-23.127 25.126,-26.954 66.28,-44.002 106.158,-44.002 h 3.741 l -13.944,-13.479 c -57.522,10.8 -118.062,36.096 -169.206,70.746 -49.189,33.203 -66.407,43.023 -104.797,59.986 l -0.255,9.864 25.976,-11.139 8.843,7.015 84.815,-38.858 -5.527,-4.421 -43.534,18.918 -4.294,-3.358 22.618,-12.627 c 19.089,-10.629 33.628,-15.39 47.063,-15.39 29.377,0 55.736,20.832 72.741,57.436 12.797,1.659 26.444,2.424 42.854,2.424 C 26.486,10.161 59.179,6.93 96.209,0 L 87.196,-8.715 C 64.154,-3.911 24.998,0 0,0 m -82.435,-242.117 c -110.338,0 -199.842,89.504 -199.842,199.842 0,110.338 89.504,199.843 199.842,199.843 110.338,0 199.842,-89.505 199.842,-199.843 0,-110.338 -89.504,-199.842 -199.842,-199.842 m 0,412.44 c -117.566,0 -212.599,-95.031 -212.599,-212.598 0,-117.567 95.033,-212.599 212.599,-212.599 117.567,0 212.599,95.032 212.599,212.599 0,117.567 -95.032,212.598 -212.599,212.598 M 479.229,-126.91 h 121.89 v -57.098 H 413.628 V 99.458 h 65.601 z M 748.521,20.087 h 61.146 v -204.095 h -57.501 v 23.487 c -8.505,-15.793 -25.916,-29.56 -57.909,-29.56 -52.236,0 -79.368,23.487 -79.368,90.708 v 119.46 h 61.147 V -96.537 c 0,-27.133 11.745,-39.28 36.446,-39.28 22.272,0 36.039,12.147 36.039,39.28 z m 108.122,7.693 c 0,49.403 31.183,75.727 80.181,75.727 15.795,0 25.917,-2.43 25.917,-2.43 V 51.674 c 0,0 -8.504,0.807 -15.795,0.807 -19.032,0 -29.157,-6.479 -29.157,-24.296 v -8.098 h 44.952 v -49.809 h -44.952 v -154.286 h -61.146 v 154.286 h -30.775 v 49.809 h 30.775 v 7.693 m 213.81,-7.693 h 46.568 v -49.809 h -46.568 v -79.37 c 0,-21.868 11.339,-27.537 29.156,-27.537 7.288,0 17.412,1.214 17.412,1.214 v -48.998 c 0,0 -14.171,-3.238 -29.155,-3.238 -48.997,0 -78.559,22.271 -78.559,71.673 v 86.256 H 978.53 v 49.809 h 30.777 v 59.527 h 61.146 z m 181.95,6.074 c 51.834,0 78.967,-23.486 78.967,-90.708 v -119.461 h -61.15 v 116.627 c 0,27.13 -11.743,39.277 -37.254,39.277 -23.083,0 -36.85,-12.147 -36.85,-39.277 v -116.627 h -61.147 v 283.06 h 61.551 V 0.245 c 10.53,14.984 27.132,25.916 55.883,25.916 m 234.87,-130.798 c 0,-22.273 -21.058,-38.877 -53.452,-38.877 -15.796,0 -25.108,7.289 -25.108,21.059 0,10.528 6.479,19.436 27.132,22.269 l 35.231,4.862 c 6.073,0.811 12.553,2.024 16.197,3.239 z M 1453.259,26.16 c -60.338,0 -89.495,-23.083 -91.924,-66.412 h 59.527 c 0.81,11.34 7.289,19.844 32.397,19.844 22.271,0 32.8,-7.291 32.8,-18.222 0,-9.722 -6.077,-13.365 -21.057,-14.984 l -38.874,-4.049 c -52.646,-5.668 -76.537,-27.537 -76.537,-67.224 0,-36.849 22.677,-65.194 70.865,-65.194 32.803,0 52.24,10.528 69.248,31.587 v -25.514 h 55.883 V -49.97 c 0,56.288 -32.8,76.13 -92.328,76.13 m 233.719,0.001 c 53.05,0 80.183,-23.486 80.183,-90.708 v -119.461 h -61.15 v 116.627 c 0,27.13 -11.743,39.277 -37.255,39.277 -23.083,0 -36.849,-12.147 -36.849,-39.277 V -184.008 H 1570.76 V 20.086 h 57.502 V -3.402 c 8.504,15.795 25.915,29.563 58.716,29.563 m 209.173,-82.204 c 51.833,-6.886 77.749,-23.083 77.749,-65.603 0,-42.925 -30.37,-68.436 -94.758,-68.436 -70.056,0 -94.758,27.939 -95.971,68.843 h 60.334 c 1.623,-14.986 12.15,-22.275 35.637,-22.275 23.892,0 33.611,5.671 33.611,17.008 0,10.528 -8.098,15.387 -29.156,18.222 l -21.464,2.837 c -44.948,6.073 -70.864,23.485 -70.864,63.981 0,38.875 28.751,67.627 89.09,67.627 55.88,0 85.848,-22.272 88.681,-66.412 h -59.528 c -2.025,11.741 -8.504,19.032 -29.153,19.032 -20.25,0 -27.943,-6.885 -27.943,-15.795 0,-8.906 4.86,-13.766 22.271,-16.197 l 21.464,-2.832 m 230.821,-48.598 c 0,-22.27 -21.063,-38.873 -53.456,-38.873 -15.792,0 -25.109,7.289 -25.109,21.059 0,10.528 6.481,19.436 27.132,22.269 l 35.234,4.862 c 6.072,0.807 12.552,2.024 16.199,3.239 z m -34.02,130.801 c -60.334,0 -89.492,-23.083 -91.92,-66.412 h 59.527 c 0.811,11.34 7.288,19.841 32.393,19.841 22.274,0 32.803,-7.288 32.803,-18.222 0,-9.719 -6.074,-13.362 -21.059,-14.981 l -38.873,-4.049 c -52.642,-5.671 -76.537,-27.538 -76.537,-67.224 0,-36.849 22.678,-65.194 70.867,-65.194 32.799,0 52.24,10.528 69.245,31.587 v -25.514 h 55.884 V -49.97 c 0,56.285 -32.802,76.13 -92.33,76.13"
             style="fill:#0a1d3d;fill-opacity:1;fill-rule:nonzero;stroke:none"
             id="path22"
             inkscape:connector-curvature="0" /></g></g></g></g></svg>