<?xml version="1.0" standalone="no"?>
<!DOCTYPE svg PUBLIC "-//W3C//DTD SVG 20010904//EN"
 "http://www.w3.org/TR/2001/REC-SVG-20010904/DTD/svg10.dtd">
<svg version="1.0" xmlns="http://www.w3.org/2000/svg"
 width="800.000000pt" height="134.000000pt" viewBox="0 0 800.000000 134.000000"
 preserveAspectRatio="xMidYMid meet">
<metadata>
Created by potrace 1.15, written by Peter Selinger 2001-2017
</metadata>
<g transform="translate(0.000000,134.000000) scale(0.100000,-0.100000)"
fill="#000000" stroke="none">
<path d="M520 1310 c-246 -64 -444 -267 -495 -505 -16 -76 -20 -185 -7 -185 5
0 151 144 326 320 175 176 320 320 323 320 3 0 148 -145 323 -322 175 -178
321 -320 325 -316 15 14 4 145 -19 225 -56 197 -197 351 -397 435 -68 28 -85
31 -209 34 -74 2 -151 -1 -170 -6z"/>
<path d="M342 907 c-280 -280 -322 -326 -322 -352 1 -78 6 -74 331 253 172
171 315 312 319 312 4 0 144 -139 311 -310 167 -170 306 -310 310 -310 8 0 33
69 27 75 -175 178 -650 655 -651 655 -1 0 -147 -145 -325 -323z"/>
<path d="M4144 1173 c-34 -37 -40 -69 -20 -110 19 -39 75 -68 113 -58 73 18
99 112 46 167 -37 39 -103 40 -139 1z"/>
<path d="M5045 1185 c-38 -7 -91 -16 -117 -20 -39 -5 -48 -10 -48 -26 0 -20 4
-23 52 -33 48 -11 58 -48 58 -206 0 -77 -2 -140 -5 -140 -2 0 -25 14 -50 32
-42 29 -53 32 -139 36 -112 5 -158 -11 -236 -84 -72 -68 -103 -137 -108 -243
-5 -106 18 -175 81 -247 62 -70 149 -108 247 -107 83 1 132 17 191 64 l36 29
9 -33 10 -32 123 -3 122 -3 -3 23 c-2 19 -10 24 -41 26 -73 6 -72 -4 -75 519
-3 430 -4 463 -20 462 -9 0 -48 -7 -87 -14z m-127 -437 c66 -44 74 -75 70
-261 -3 -151 -5 -165 -28 -206 -31 -55 -78 -81 -145 -81 -104 0 -165 65 -186
199 -24 157 20 309 104 362 45 28 131 22 185 -13z"/>
<path d="M5423 1185 c-12 -8 -27 -31 -33 -50 -26 -80 60 -158 134 -122 19 9
40 30 50 51 15 32 15 38 1 72 -8 20 -23 43 -33 50 -23 18 -93 17 -119 -1z"/>
<path d="M1507 1164 c-16 -16 15 -44 48 -44 21 0 44 -9 62 -24 l28 -24 3 -395
3 -395 -26 -30 c-17 -21 -40 -34 -68 -39 -27 -6 -43 -15 -45 -26 -3 -16 11
-17 163 -17 149 0 166 2 163 16 -2 10 -22 22 -49 30 -87 26 -84 10 -87 397 -1
188 -1 339 1 337 2 -3 55 -124 117 -270 185 -435 215 -503 226 -507 11 -4 20
15 174 357 56 124 109 243 119 265 10 22 29 64 41 93 12 28 26 52 31 52 14 0
11 -654 -3 -684 -12 -27 -58 -46 -110 -46 -21 0 -28 -5 -28 -20 0 -19 7 -20
234 -20 196 0 235 2 239 15 8 18 3 21 -55 29 -25 4 -51 13 -58 21 -8 9 -10
128 -8 423 l3 410 24 26 c13 14 40 27 62 31 30 5 39 11 39 26 0 19 -7 19 -147
17 l-147 -3 -42 -95 c-24 -52 -54 -120 -67 -150 -14 -30 -53 -118 -87 -195
-97 -218 -100 -223 -110 -250 -13 -35 -24 -31 -45 18 -21 49 -25 58 -147 332
-52 116 -107 240 -123 278 l-29 67 -147 0 c-80 0 -149 -3 -152 -6z"/>
<path d="M352 767 c-200 -200 -302 -309 -302 -323 0 -11 6 -28 12 -37 12 -15
46 16 303 273 159 159 294 290 300 290 5 0 141 -131 301 -291 l292 -292 17 33
17 32 -308 309 c-170 170 -313 309 -319 309 -5 0 -146 -136 -313 -303z"/>
<path d="M381 636 c-258 -258 -283 -286 -277 -310 3 -14 11 -26 16 -26 5 0
127 119 271 265 145 146 267 265 273 265 6 0 130 -119 276 -265 146 -146 268
-265 271 -265 3 0 11 11 16 23 10 22 -8 43 -275 310 l-287 287 -284 -284z"/>
<path d="M6600 839 c-19 -4 -61 -13 -92 -19 -45 -9 -58 -15 -58 -30 0 -12 10
-20 34 -24 59 -11 61 -18 65 -249 4 -260 -1 -282 -64 -299 -32 -9 -45 -17 -45
-30 0 -17 14 -18 186 -18 168 0 185 2 182 17 -2 9 -22 23 -46 31 -29 9 -46 22
-53 39 -12 31 -11 335 1 387 19 82 84 136 164 136 59 0 88 -16 114 -63 15 -28
17 -61 17 -243 0 -237 -3 -247 -71 -260 -24 -4 -34 -12 -34 -25 0 -18 10 -19
186 -19 167 0 185 2 182 17 -2 9 -21 22 -42 30 -22 7 -42 16 -45 19 -3 3 -8
108 -11 232 -5 208 -7 230 -27 268 -69 130 -308 149 -418 34 -16 -17 -32 -30
-37 -30 -4 0 -8 18 -8 39 0 72 -8 78 -80 60z"/>
<path d="M4155 821 c-90 -14 -100 -18 -103 -38 -3 -19 1 -23 25 -23 16 0 39
-7 51 -16 22 -15 22 -19 22 -253 0 -264 0 -263 -68 -277 -23 -5 -32 -12 -32
-25 0 -19 9 -19 183 -17 150 3 182 6 182 17 0 8 -15 18 -35 23 -70 18 -70 17
-70 339 l0 289 -27 -1 c-16 -1 -73 -9 -128 -18z"/>
<path d="M5425 821 c-90 -14 -100 -18 -103 -38 -3 -19 1 -23 25 -23 16 0 39
-7 51 -16 22 -15 22 -19 22 -253 0 -264 0 -263 -68 -277 -22 -5 -32 -12 -32
-25 0 -18 11 -19 180 -19 170 0 180 1 180 19 0 14 -10 21 -35 25 -64 12 -65
18 -65 338 l0 288 -27 -1 c-16 -1 -73 -9 -128 -18z"/>
<path d="M3000 821 c-14 -4 -44 -20 -65 -34 -212 -135 -235 -445 -41 -575 110
-75 235 -87 346 -34 36 17 81 47 100 66 32 34 33 37 18 53 -16 15 -20 14 -59
-21 -78 -71 -168 -86 -250 -43 -67 36 -100 107 -107 231 l-5 96 224 2 224 3 3
29 c8 68 -48 152 -137 204 -38 22 -58 27 -136 29 -49 1 -101 -1 -115 -6z m204
-70 c24 -24 30 -40 34 -85 l4 -56 -140 0 c-81 0 -143 4 -147 10 -11 18 16 90
46 124 34 40 54 46 124 40 38 -3 56 -10 79 -33z"/>
<path d="M3595 825 c-5 -2 -45 -11 -88 -21 -60 -13 -77 -21 -75 -33 2 -10 16
-17 36 -19 62 -6 67 -27 67 -279 0 -247 0 -248 -66 -262 -20 -4 -35 -14 -37
-24 -3 -16 12 -17 182 -17 179 0 186 1 186 20 0 15 -7 20 -29 20 -15 0 -40 9
-55 21 l-26 20 0 163 c0 182 14 252 58 299 19 20 35 27 63 27 32 0 41 -5 58
-34 46 -74 131 -58 131 26 0 80 -101 112 -203 65 -30 -14 -68 -39 -83 -56 -36
-40 -44 -39 -44 7 0 63 -9 82 -39 81 -14 0 -30 -2 -36 -4z"/>
<path d="M5867 818 c-51 -14 -117 -76 -117 -111 0 -35 36 -67 75 -67 39 0 61
23 71 74 10 58 34 76 98 76 71 0 102 -12 121 -49 15 -31 21 -127 7 -147 -4 -6
-66 -41 -138 -77 -150 -75 -189 -105 -215 -162 -34 -73 -16 -149 43 -185 65
-39 202 -17 287 47 33 25 34 25 47 8 8 -10 14 -22 14 -27 0 -14 79 -48 113
-48 39 0 127 52 127 75 0 18 -9 19 -45 5 -20 -8 -29 -6 -45 10 -19 19 -20 34
-20 230 0 167 -3 218 -15 247 -38 91 -88 113 -250 112 -66 -1 -137 -6 -158
-11z m273 -395 c0 -58 -5 -108 -13 -122 -15 -31 -76 -62 -131 -68 -38 -5 -45
-2 -64 22 -41 51 -20 143 42 190 45 34 126 75 147 75 17 0 19 -9 19 -97z"/>
<path d="M7465 821 c-105 -27 -158 -99 -114 -155 40 -51 129 -20 129 46 0 14
9 37 21 52 18 23 27 26 85 26 59 0 69 -3 94 -28 19 -20 31 -44 36 -77 12 -83
4 -92 -142 -165 -71 -36 -144 -75 -161 -88 -97 -70 -103 -216 -12 -263 72 -36
196 -15 286 49 l31 22 16 -26 c52 -78 155 -83 233 -11 31 28 20 38 -32 30 -33
-4 -46 -2 -50 8 -2 8 -6 113 -8 234 -3 211 -4 222 -27 263 -42 74 -74 87 -225
89 -71 1 -143 -2 -160 -6z m255 -409 c0 -122 -7 -135 -82 -167 -107 -44 -179
24 -134 128 18 42 58 79 126 116 89 49 90 49 90 -77z"/>
<path d="M410 505 c-242 -242 -254 -256 -237 -272 16 -17 29 -6 255 220 l237
237 237 -237 c226 -226 239 -237 255 -220 17 16 5 30 -232 271 -138 139 -252
254 -255 254 -3 1 -120 -113 -260 -253z"/>
<path d="M450 385 c-171 -171 -212 -217 -202 -227 10 -10 54 29 215 190 l202
202 202 -202 c161 -161 205 -200 215 -190 10 10 -31 56 -197 226 -116 117
-212 214 -215 214 -3 1 -102 -95 -220 -213z"/>
<path d="M491 274 c-125 -127 -161 -168 -152 -177 9 -9 48 25 167 146 86 86
159 157 163 157 4 0 75 -70 159 -155 83 -85 156 -155 162 -155 5 0 10 6 10 13
0 15 -321 337 -335 337 -6 0 -84 -75 -174 -166z"/>
</g>
</svg>
