<?xml version="1.0" encoding="UTF-8" standalone="no"?>
<!-- Generator: Adobe Illustrator 18.1.0, SVG Export Plug-In . SVG Version: 6.00 Build 0)  -->

<svg
   xmlns:dc="http://purl.org/dc/elements/1.1/"
   xmlns:cc="http://creativecommons.org/ns#"
   xmlns:rdf="http://www.w3.org/1999/02/22-rdf-syntax-ns#"
   xmlns:svg="http://www.w3.org/2000/svg"
   xmlns="http://www.w3.org/2000/svg"
   xmlns:sodipodi="http://sodipodi.sourceforge.net/DTD/sodipodi-0.dtd"
   xmlns:inkscape="http://www.inkscape.org/namespaces/inkscape"
   version="1.1"
   id="Layer_1"
   x="0px"
   y="0px"
   width="197.2"
   height="49.900002"
   viewBox="-199 394 197.2 49.9"
   enable-background="new -199 394 197.2 49.9"
   xml:space="preserve"
   sodipodi:docname="Norwegianlogo.svg"
   inkscape:version="0.92.0 r15299"><metadata
     id="metadata4594"><rdf:RDF><cc:Work
         rdf:about=""><dc:format>image/svg+xml</dc:format><dc:type
           rdf:resource="http://purl.org/dc/dcmitype/StillImage" /><dc:title></dc:title></cc:Work></rdf:RDF></metadata><defs
     id="defs4592" /><sodipodi:namedview
     pagecolor="#ffffff"
     bordercolor="#666666"
     borderopacity="1"
     objecttolerance="10"
     gridtolerance="10"
     guidetolerance="10"
     inkscape:pageopacity="0"
     inkscape:pageshadow="2"
     inkscape:window-width="1920"
     inkscape:window-height="1057"
     id="namedview4590"
     showgrid="false"
     units="px"
     inkscape:zoom="3.5851928"
     inkscape:cx="88.598285"
     inkscape:cy="54.448387"
     inkscape:window-x="1912"
     inkscape:window-y="-7"
     inkscape:window-maximized="1"
     inkscape:current-layer="Layer_1" /><rect
     style="fill:#d81939;fill-opacity:1;stroke:none;stroke-width:0.97991937;stroke-opacity:1"
     id="rect4598"
     width="197.2"
     height="49.900002"
     x="-199"
     y="394" /><g
     id="g4587"><g
       id="g4489"><g
         id="g4487"><path
           d="m -23.6,426.3 c -17.5,9 -34.7,14.5 -43,12.8 -7.3,-1.5 -3.7,-11.5 6.7,-19.7 h 2.2 c -8.2,6.9 -8.8,15.5 -3.6,16.2 5.9,0.7 21.1,-2.5 36.6,-9.7 z"
           id="path4485"
           inkscape:connector-curvature="0"
           style="fill:#003d50" /></g></g><g
       id="g4495"><g
         id="g4493"><path
           d="m -5.4,413.9 c 0.5,0 1,0.1 1.4,0.2 0.3,0.1 0.4,0.1 0.7,0.3 0.1,0 0.2,0.1 0.3,0.2 0.2,0.1 0.1,0.2 0.2,0.3 0.1,0.4 -0.1,0.7 -0.3,1 -0.6,1 -1.6,1.7 -2.5,2.4 -1,0.8 -2,1.4 -3,2.1 -0.2,0.1 -0.4,0.3 -0.6,0.4 0.2,0.1 0.3,0.1 0.5,0.2 v 0 c 0,0 0.1,0.1 0.2,0.1 0.3,-0.1 0.5,-0.3 0.8,-0.4 0.3,-0.2 0.5,-0.2 0.8,-0.1 0.2,0.1 0.5,0.4 0.6,0.6 0.1,0.4 0.1,0.7 -0.1,1.1 1.3,0.6 2.5,1.2 3.7,1.8 0.3,0.2 0.6,0.3 0.9,0.5 0.1,0.2 -0.1,0.4 -0.3,0.5 -0.5,0.2 -0.9,0.6 -1.4,0.6 -0.5,-0.1 -1,-0.2 -1.6,-0.4 -0.8,-0.2 -1.6,-0.4 -2.4,-0.5 -0.6,-0.1 -1.3,-0.2 -1.9,-0.4 -0.5,-0.1 -0.9,-0.2 -1.4,-0.2 -0.6,-0.1 -1.2,-0.1 -1.9,-0.1 -0.8,0 -1.5,0 -2.3,-0.1 -1.2,0.5 -2.3,1.1 -3.7,1.6 -0.9,0.3 -1.7,0.6 -2.6,0.9 0.3,0.4 0.7,0.5 0.9,1 0,0.1 -0.1,0.1 -0.1,0.1 -0.2,0.1 -0.3,0.1 -0.5,0.2 -0.9,-0.2 -1.7,-0.4 -2.6,-0.7 h -0.2 c -0.4,0.1 -1,0.5 -1.4,0 0,-0.1 -0.1,-0.2 -0.1,-0.4 0,-0.1 -0.1,-0.1 -0.2,-0.2 -0.2,-0.1 -0.3,-0.1 -0.4,-0.2 -0.3,-0.1 -0.5,-0.2 -0.8,-0.3 -0.6,-0.2 -1.1,-0.3 -1.6,-0.6 -0.1,-0.1 -0.2,-0.2 0,-0.4 0.3,-0.2 0.8,-0.4 1.2,-0.2 0.4,0 0.9,0.1 1.2,0.1 v 0 c -0.5,-0.5 -0.9,-1 -1.4,-1.5 -0.1,-0.1 -0.2,-0.2 -0.2,-0.4 0,-0.1 0.1,-0.2 0.2,-0.3 0.1,-0.1 0.2,-0.1 0.3,-0.1 0.4,-0.2 0.5,-0.3 0.8,-0.2 0.9,0.4 1.6,0.7 2.6,1.1 0.2,0.1 0.4,0.2 0.6,0.2 0.3,-0.1 0.4,-0.2 0.6,-0.3 0.1,0 0.4,-0.2 0.5,-0.3 0.3,-0.2 0.6,-0.4 0.8,-0.5 0.6,-0.4 0.9,-0.6 1.4,-0.9 -0.7,-0.3 -1.5,-0.7 -2.2,-1 -0.8,-0.2 -1,-0.3 -1.7,-0.5 -0.5,-0.1 -1.1,-0.3 -1.1,-0.3 -1,-0.2 -1.2,-0.3 -2.1,-0.5 -0.4,-0.2 -0.9,-0.2 -1.4,-0.4 0,-0.1 0,-0.1 0,-0.2 0.1,-0.2 0.4,-0.4 0.6,-0.6 0.3,-0.2 0.5,-0.4 0.9,-0.5 0.7,0 1.2,0.1 2,0.2 0.9,0.1 1.8,0.2 2.6,0.3 1.1,0.1 2.4,0.2 3.5,0.4 0.1,0 0.2,0.1 0.3,0 0.1,0.1 0.2,0 0.3,0.1 0.1,0 0.2,0 0.3,0 0.5,-0.4 1.1,-0.9 1.8,-1.1 0.4,0 0.8,0.2 1,0.5 1.3,-0.9 2.5,-1.8 3.9,-2.5 1.3,-0.7 2.5,-1.2 3.5,-1.5 0.7,-0.2 1.5,-0.3 2.2,-0.4 -0.4,0.2 -0.3,0.2 -0.1,0.2"
           id="path4491"
           inkscape:connector-curvature="0"
           style="fill:#003d50" /></g></g><g
       id="g4501"><g
         id="g4499"><path
           d="m -4.7,414.7 c -0.6,0.1 -1,0.2 -1.7,0.5 -0.6,0.2 -1.5,0.6 -2.3,1 -1.1,0.5 -2,1.1 -3.2,1.8 -0.4,0.3 -1.3,1 -1.4,1.1 -0.7,-0.1 -1.3,-0.1 -2,-0.2 l 0.1,-0.1 c 0.9,-0.7 1.6,-1.2 2.6,-1.7 0.8,-0.5 2.1,-1.2 3.1,-1.6 0.9,-0.4 1.9,-0.7 2.9,-0.8 0.8,-0.2 1.4,-0.2 1.9,0"
           id="path4497"
           inkscape:connector-curvature="0"
           style="fill:#ffffff" /></g></g><g
       id="g4507"><g
         id="g4505"><path
           d="m -17.6,419.1 c 0.2,-0.1 0.3,-0.2 0.5,-0.3 0.2,-0.1 0.3,-0.2 0.4,-0.2 -0.1,0.3 -0.1,0.4 0,0.7 0,0.2 0.2,0.3 0.2,0.4 -0.4,0.3 -0.8,0.5 -1.2,0.8 -0.1,-0.1 -0.2,-0.2 -0.2,-0.4 -0.1,-0.3 0,-0.5 0.1,-0.8 z"
           id="path4503"
           inkscape:connector-curvature="0"
           style="fill:#ffffff" /></g></g><g
       id="g4513"><g
         id="g4511"><path
           d="m -18.3,422.4 c -0.5,0.3 -1,0.6 -1.5,0.8 -1,0.5 -2.1,1.1 -3.6,1.8 -0.4,0.2 -0.8,0.3 -1.2,0.2 -0.3,0 -0.3,0 -0.6,-0.1 -0.5,-0.5 -1.1,-1.1 -1.6,-1.6 -0.1,-0.1 -0.2,-0.2 -0.2,-0.3 l 0.3,-0.2 h 0.1 c 0.8,0.3 1.3,0.6 2.1,1 0.3,0.1 0.6,0.3 0.9,0.4 0.3,0 0.6,-0.1 0.9,-0.2 l 0.2,-0.1 c 0.4,-0.3 0.6,-0.4 0.8,-0.5 0.8,-0.5 1.5,-0.9 2.3,-1.4 l 0.2,-0.1 c 0.3,0.1 0.5,0.2 0.9,0.3"
           id="path4509"
           inkscape:connector-curvature="0"
           style="fill:#ffffff" /></g></g><g
       id="g4521"><g
         id="g4519"><g
           id="g4517"><path
             d="m -199,399.4 h 5.5 v 1.4 c 2.7,-2.4 6.2,-2.4 8.4,-1 2.4,1.5 2.4,3.8 2.4,6.4 v 7.7 h -5.5 v -6.1 c 0,-1.4 0.1,-3.2 -1.3,-4.1 -0.6,-0.5 -1.9,-0.5 -2.7,0.1 -1.4,1 -1.2,2.2 -1.2,4.3 v 5.8 h -5.6 z"
             id="path4515"
             inkscape:connector-curvature="0"
             style="fill:#ffffff" /></g></g></g><g
       id="g4529"><g
         id="g4527"><g
           id="g4525"><path
             d="m -176.2,400.1 c -2.3,1.3 -3.5,3.2 -3.8,5.6 -0.2,1.9 0.2,4.2 1.8,5.9 2.9,3 8,3.1 10.9,2.1 2.4,-0.8 4.4,-2.2 5.2,-5.3 0.5,-2 0.3,-4.1 -1,-6.1 -2.4,-3.5 -7.3,-3.8 -9.3,-3.5 -1.2,0.3 -2.6,0.6 -3.8,1.3 m 4.4,2.7 c 0.9,-0.2 2.3,0 3.1,1 0.8,0.9 1.1,2.3 1,3.3 -0.1,1 -0.7,2.1 -1.8,2.7 -1,0.5 -2.4,0.5 -3.4,-0.2 -0.9,-0.6 -1.4,-1.7 -1.5,-2.8 0,-1 0.2,-2.2 1.2,-3.2 0.6,-0.5 1,-0.6 1.4,-0.8"
             id="path4523"
             inkscape:connector-curvature="0"
             style="fill:#ffffff" /></g></g></g><g
       id="g4537"><g
         id="g4535"><g
           id="g4533"><path
             d="m -133.4,406.1 c 0,0.3 -0.1,0.5 -0.5,1.4 l -2.1,6.4 h -5.7 l -5.4,-14.5 h 6.1 l 1.9,6.1 c 0.3,1.1 0.4,1.3 0.4,1.7 0,-0.3 0.1,-0.6 0.4,-1.7 l 1.9,-6.1 h 6 l 1.9,6.1 c 0.3,1.1 0.4,1.3 0.4,1.7 0,-0.3 0.1,-0.6 0.4,-1.7 l 1.9,-6.1 h 6.1 l -5.5,14.5 h -5.7 l -2,-6.3 c -0.4,-1 -0.4,-1.2 -0.5,-1.5"
             id="path4531"
             inkscape:connector-curvature="0"
             style="fill:#ffffff" /></g></g></g><g
       id="g4545"><g
         id="g4543"><g
           id="g4541"><path
             d="m -102.6,401.6 c -2.6,-3 -8,-3.1 -10.5,-2.4 -2.4,0.7 -4.4,2.1 -5.3,5.2 -0.6,2.3 -0.4,4.5 1,6.5 2.6,3.7 7.6,3.5 10,3.2 1.8,-0.3 5.1,-1.3 6.3,-4.5 l 0.1,-0.1 -5.5,-0.6 c -0.2,0.2 -0.3,0.4 -0.9,0.9 -0.9,0.7 -2.9,0.6 -3.7,0.3 -0.9,-0.4 -1.7,-1.5 -1.8,-2.2 h 12.3 v -0.3 c 0,-1.9 -0.6,-4.3 -2,-6 m -3.8,3.2 h -6.6 c 0.5,-1.6 1.4,-2.1 2.5,-2.3 1.2,-0.2 3.2,0.1 4.1,2.3"
             id="path4539"
             inkscape:connector-curvature="0"
             style="fill:#ffffff" /></g></g></g><g
       id="g4553"><g
         id="g4551"><g
           id="g4549"><path
             d="m -97.5,414.7 c 0.1,1.1 0.4,1.8 0.5,2.1 1.4,2.5 3.9,3 7,3 3.1,0 5.5,-0.2 7.3,-2.3 1.6,-1.9 1.4,-4.2 1.4,-6.4 v -11.5 h -5.5 v 1.3 c -1.2,-1.2 -2.5,-1.6 -3.5,-1.7 -2,-0.3 -4.8,0.4 -6.5,2.6 -1.4,1.8 -1.6,4.4 -1.4,6.2 0.3,2.2 1.5,3.8 3.5,4.9 2.2,1.2 5.8,0.9 7.8,-0.8 0,0.6 0,1.9 -0.2,2.5 -0.4,0.9 -1.2,1.2 -1.8,1.3 -0.6,0.1 -2.2,0.4 -2.8,-0.7 -0.1,-0.2 -0.2,-0.3 -0.2,-0.5 0,0 -5.6,0 -5.6,0 z m 7,-10.9 c 0.7,-0.2 2.3,-0.1 3.1,0.8 0.5,0.5 0.8,1.2 0.7,1.9 -0.1,0.6 -0.4,1.4 -1,1.8 -0.9,0.6 -2.5,0.6 -3.4,0.1 -0.7,-0.4 -1.2,-0.9 -1.3,-1.7 -0.1,-0.5 0,-1.4 0.5,-2 0.4,-0.5 0.8,-0.7 1.4,-0.9"
             id="path4547"
             inkscape:connector-curvature="0"
             style="fill:#ffffff" /></g></g></g><g
       id="g4561"><g
         id="g4559"><g
           id="g4557"><path
             d="m -78.2,399.4 h 5.5 v 14.5 h -5.5 z m 0,-5.4 h 5.5 v 3.7 h -5.5 z"
             id="path4555"
             inkscape:connector-curvature="0"
             style="fill:#ffffff" /></g></g></g><g
       id="g4569"><g
         id="g4567"><g
           id="g4565"><path
             d="m -63.8,403.5 c 0.1,-0.4 0.3,-0.6 0.6,-0.9 0.7,-0.6 3.4,-0.4 4.1,-0.1 0.8,0.4 1,1 1.1,2 0,0 -1.7,-0.1 -2.9,-0.1 -1.4,0.1 -2,0.1 -3.2,0.3 -2.4,0.3 -4.8,0.7 -5.4,3.6 -0.4,2 0.2,3.8 2.1,5 l 0.2,0.1 c 2.8,1.2 6.3,0.8 9.4,-1 0,0 0,0.9 0.2,1.3 h 6.4 c -0.7,-0.6 -1,-1.6 -1,-3 v -6.2 c 0,-1.2 0.1,-2.8 -0.7,-3.7 -1.3,-1.7 -3.7,-2.1 -7.9,-2.1 -3.4,0 -5.7,0.2 -7,1.9 -0.6,0.9 -0.8,1.6 -0.8,2.7 h 4.8 z m 5.6,4 c -0.5,1.9 -1.6,2.5 -3,2.7 -0.8,0.1 -2.1,0.2 -2.7,-0.9 -0.1,-0.2 -0.2,-0.8 -0.1,-1 0.4,-0.8 1.1,-0.7 2.9,-0.8 z"
             id="path4563"
             inkscape:connector-curvature="0"
             style="fill:#ffffff" /></g></g></g><g
       id="g4577"><g
         id="g4575"><g
           id="g4573"><path
             d="m -48.5,399.4 h 5.5 v 1.4 c 2.7,-2.4 6.2,-2.4 8.4,-1 2.4,1.5 2.4,3.8 2.4,6.4 v 7.7 h -5.5 v -6.1 c 0,-1.4 0.1,-3.2 -1.3,-4.1 -0.7,-0.4 -2.1,-0.4 -2.8,0.2 -1.4,1 -1.2,2.2 -1.2,4.3 v 5.8 h -5.5 z"
             id="path4571"
             inkscape:connector-curvature="0"
             style="fill:#ffffff" /></g></g></g><g
       id="g4585"><g
         id="g4583"><g
           id="g4581"><path
             d="m -149.8,399.2 v 5.6 c -1.7,0 -2.8,0.2 -3.9,1 v 8.1 h -5.5 v -14.5 h 5.5 v 1.7 c 0.3,-0.5 1,-1.1 1.9,-1.5 0.3,-0.2 1.3,-0.4 2,-0.4"
             id="path4579"
             inkscape:connector-curvature="0"
             style="fill:#ffffff" /></g></g></g></g></svg>