<?xml version="1.0" encoding="utf-8"?>
<!-- Generator: Adobe Illustrator 19.2.1, SVG Export Plug-In . SVG Version: 6.00 Build 0)  -->
<svg version="1.1" id="layer" xmlns="http://www.w3.org/2000/svg" xmlns:xlink="http://www.w3.org/1999/xlink" x="0px" y="0px"
	 viewBox="0 0 652 652" style="enable-background:new 0 0 652 652;" xml:space="preserve">
<style type="text/css">
	.st0{fill:#00D66C;}
	.st1{fill:#FFFFFF;}
</style>
<path class="st0" d="M133.6,326.4c0-30-23.7-53.8-53.7-53.8s-53.7,23.8-53.7,53.8c0,30,23.7,53.8,53.7,53.8
	C109.9,380.2,133.6,356.3,133.6,326.4L133.6,326.4L133.6,326.4z"/>
<path class="st1" d="M103.6,334.1h-3c-3,0-4.3,1.6-4.7,4.7c-0.8,5.7-5.3,9.6-11.2,9.6c-6.9,0-11.3-5.1-11.3-12.4v-17.2
	c0-0.7-0.1-1.3-0.3-1.8c0.6,0.3,1.4,0.4,2.3,0.4h15.8c3,0,4.7-1.7,4.7-4.7v-1.4c0-3-1.7-4.7-4.7-4.7h-8.9v-9.7c0-3-1.7-4.7-4.7-4.7
	h-2.2c-3,0-4.7,1.7-4.7,4.7v15.9c0,0.7,0.1,1.3,0.3,1.8c-0.7-0.3-1.5-0.5-2.3-0.4H52.7c-3,0-4.7,1.7-4.7,4.7v1.4
	c0,3,1.7,4.7,4.7,4.7h9V336c0,13.9,8.9,23.6,23,23.6c13.1,0,21.7-8.3,23.3-20.8C108.4,335.7,106.3,334.1,103.6,334.1L103.6,334.1z"
	/>
<path class="st0" d="M207.3,354.9h12.6v-27.4c0-9.9,5.4-13.4,11.9-13.4c3.8,0,6.5,1.1,9.1,3.3l5.7-10.1c-3.5-3.2-8-4.7-12.5-4.7
	c-6,0-11.9,2.8-14.9,8.2l-0.8-7.1h-11L207.3,354.9L207.3,354.9L207.3,354.9z M563,291.5c0-4.9-3.8-7.4-7.5-7.4
	c-3.7,0-7.4,2.5-7.4,7.4c0,5,3.8,7.4,7.4,7.4C559.2,298.9,563,296.5,563,291.5L563,291.5z M184.2,289l-12.6,1.3v13.4h-9.5v10.9h9.5
	v22.9c0,12.3,7.1,18,17.6,18c4.5,0,8.3-1.1,11-2.6l-3.4-10.2c-1.8,0.8-4.1,1.4-6.2,1.4c-4.2,0-6.5-2.4-6.5-7.3v-22.3h14.1v-10.9
	h-14.1L184.2,289L184.2,289z M301.5,303.7h-11.3l-0.8,7.1c-2.9-4.7-8.5-8.2-17.3-8.2c-14,0-26.2,8.8-26.2,26.6s12.2,26.6,26.2,26.6
	c8.8,0,14.4-3.4,17.3-8.2l0.8,7.1h11.3L301.5,303.7L301.5,303.7L301.5,303.7z M549.2,303.7v51.2h12.6v-51.2L549.2,303.7L549.2,303.7
	z M273.8,345c-8.6,0-15.1-5.8-15.1-15.7c0-9.9,6.5-15.7,15.1-15.7c8.6,0,15.1,5.8,15.1,15.7C288.9,339.2,282.5,345,273.8,345
	L273.8,345z M479.9,303.7h-11.3l-0.8,7.1c-2.8-4.7-8.5-8.2-17.3-8.2c-14,0-26.2,8.8-26.2,26.6s12.2,26.6,26.2,26.6
	c8.8,0,14.4-3.4,17.3-8.2l0.8,7.1h11.3C479.9,354.9,479.9,303.7,479.9,303.7z M452.1,345c-8.6,0-15.1-5.8-15.1-15.7
	c0-9.9,6.5-15.7,15.1-15.7c8.6,0,15.1,5.8,15.1,15.7C467.3,339.2,460.8,345,452.1,345L452.1,345z M626.2,303.7h-11.3l-0.8,7.1
	c-2.8-4.7-8.5-8.2-17.3-8.2c-14,0-26.2,8.8-26.2,26.6s12.2,26.6,26.2,26.6c8.8,0,14.4-3.4,17.3-8.2l0.8,7.1h11.3V303.7L626.2,303.7z
	 M598.5,345c-8.6,0-15.1-5.8-15.1-15.7c0-9.9,6.5-15.7,15.1-15.7c8.6,0,15.1,5.8,15.1,15.7C613.6,339.2,607.1,345,598.5,345
	L598.5,345z M521.2,354.9l21.8-51.2h-13.1l-15,37.8l-15-37.8h-14l21.8,51.2H521.2L521.2,354.9z M313.5,354.9h12.6v-27.5
	c0-8.6,5.6-13.5,12.9-13.5c7.4,0,12.4,4.9,12.4,13.5v27.5h12.6v-29.3c0-15.2-9.5-22.9-21.6-22.9c-8,0-14,3.4-16.8,8.2l-0.8-7.1
	h-11.3L313.5,354.9L313.5,354.9L313.5,354.9z M395.9,355.9c15.8,0,22.5-7.2,22.5-16.3c0-11.5-10.8-14.3-19.5-15.5
	c-5-0.7-12.8-1.1-12.8-6.1c0-3.7,4.4-5.3,9.8-5.3c4.9,0,9.8,1.3,13.7,4.7l6.4-8.4c-5.6-4.9-12.2-6.5-19.5-6.5
	c-11,0-23.1,3.7-23.1,16.1c0,11.3,10.2,14.3,19.5,15.5c5.3,0.7,12.8,1.2,12.8,6.1c0,3.6-4.1,5.3-9.3,5.3c-5.9,0-13.7-2.2-18.5-7.1
	l-6.4,8.4C378,354,387.7,355.9,395.9,355.9L395.9,355.9L395.9,355.9z"/>
</svg>
