<?xml version="1.0" encoding="utf-8"?>
<!-- Generator: Adobe Illustrator 19.2.1, SVG Export Plug-In . SVG Version: 6.00 Build 0)  -->
<svg version="1.1" id="layer" xmlns="http://www.w3.org/2000/svg" xmlns:xlink="http://www.w3.org/1999/xlink" x="0px" y="0px"
	 viewBox="0 0 652 652" style="enable-background:new 0 0 652 652;" xml:space="preserve">
<style type="text/css">
	.st0{fill:#707274;}
	.st1{fill:#FFCE00;}
</style>
<g>
	<path class="st0" d="M66.4,347.1l-15.7-52.8c-1.1-3.5-4-8.5-11-8.5c-6.6,0-12.9,4-12.9,11.7c0,2.2,0.4,3.9,1.6,6.9l20,57
		c4,11.1,7.7,15,17.9,15h1.8c10.3,0,12.7-3.8,16.8-14.8l20.3-57.2c1.1-2.9,1.5-4.7,1.5-6.9c0-7.7-6.2-11.7-12.9-11.7
		c-7,0-9.9,5-11,8.5l-15.7,52.8H66.4z"/>
	<path class="st0" d="M316.5,243.1c0-8,5.1-13.4,12.3-13.4c7.3,0,12.5,5.4,12.5,13.4V363c0,8.1-5.2,13.4-12.5,13.4
		c-7.3,0-12.3-5.4-12.3-13.4V243.1z"/>
	<path class="st0" d="M361.1,299c0-7.8,5.2-13.1,12.3-13.1c7.5,0,12.5,5.4,12.5,13.1v64c0,8.1-5.1,13.4-12.5,13.4
		c-7.1,0-12.3-5.4-12.3-13.4V299z"/>
	<path class="st0" d="M486.5,363.2c0,7.8-5.4,13.2-12.5,13.2c-7.2,0-12.5-5.4-12.5-13.2v-40.9c0-9.8-5.3-16.3-15.8-16.3
		c-10.1,0-16.2,4.9-16.2,16.3v40.9c0,7.8-5.1,13.2-12.5,13.2c-7.2,0-12.3-5.4-12.3-13.2v-37.1c0-27.5,14.5-41.1,40.9-41.1
		c26.1,0,40.9,13.6,40.9,40.9V363.2z"/>
	<path class="st0" d="M120.2,298.1c0-7.9,5.4-13.2,12.4-13.2c7.2,0,12.4,5.3,12.4,13.2v41.2c0,9.8,5.4,16.3,15.9,16.3
		c10,0,16.2-4.9,16.2-16.3v-41.2c0-7.9,5.2-13.2,12.6-13.2c7.1,0,12.3,5.3,12.3,13.2v37.3c0,27.5-14.5,41.2-41,41.2
		c-26.1,0-40.8-13.7-40.8-41V298.1z"/>
	<path class="st0" d="M564.1,312.9c0-2.9-5.6-7.2-15.9-7.2c-15.4,0-21.4,9.8-21.4,25.5c0,17.7,6,24.1,18.5,24.1
		c12.5,0,18.8-8.3,18.8-25V312.9z M576.1,290.8c6.9,3.1,11.4,7.1,11.4,14.9V380c0,26.6-14.1,44.1-45.4,44.1
		c-15.2,0-35.1-8-35.1-18.6c0-5.6,4.3-10.5,9.2-10.5c7.8,0,13.7,6.9,28,6.9c14.3,0,19.9-7.2,19.9-18.8V369c-4,4.2-11.9,7.6-22.8,7.6
		c-23,0-39.2-17-39.2-45.5c0-27.9,18.1-46.3,45.4-46.3C561.1,284.9,570.8,288.3,576.1,290.8"/>
	<path class="st0" d="M276.5,322.7c-0.8-11.7-6-18.8-17.7-18.8c-11.5,0-16.5,5.1-17.7,18.8H276.5z M241.1,339.3
		c1.6,10,6.7,17,19.2,17c12.3,0,19.1-4.7,25.3-4.7c4.9,0,9.1,5.1,9.1,10c0,9.7-16.5,14.8-34.6,14.8c-26.6,0-43.2-17.4-43.2-45.4
		c0-28.2,16.3-46.5,42.5-46.5c27.9,0,40.3,18.6,40.3,44.1c0,6.9-3,10.7-10.4,10.7H241.1z"/>
	<path class="st1" d="M626.9,253.7c0,9.1-6,15.7-16.1,15.7c-10.1,0-15.9-6.5-15.9-15.7c0-9,5.8-15.4,15.9-15.4
		C620.9,238.2,626.9,244.7,626.9,253.7"/>
</g>
</svg>
